999
dxfrw 0.6.3
  0
SECTION
  2
HEADER
  9
$ACADVER
  1
AC1021
  9
$DWGCODEPAGE
  3
ANSI_1252
  9
$INSBASE
 10
0
 20
0
 30
0
  9
$EXTMIN
 10
0
 20
0
 30
0
  9
$EXTMAX
 10
112.75
 20
88
 30
0
  9
$LIMMIN
 10
0
 20
0
  9
$LIMMAX
 10
420
 20
297
  9
$ORTHOMODE
 70
    0
  9
$REGENMODE
 70
    1
  9
$FILLMODE
 70
    1
  9
$QTEXTMODE
 70
    0
  9
$MIRRTEXT
 70
    0
  9
$LTSCALE
 40
1
  9
$ATTMODE
 70
    0
  9
$TEXTSIZE
 40
2.5
  9
$TRACEWID
 40
15.68
  9
$TEXTSTYLE
  7
STANDARD
  9
$CLAYER
  8
Dimensions
  9
$CELTYPE
  6
BYLAYER
  9
$CECOLOR
 62
  256
  9
$CELTSCALE
 40
1
  9
$DISPSILH
 70
    0
  9
$DIMSCALE
 40
2.5
  9
$DIMASZ
 40
0.5
  9
$DIMEXO
 40
0.625
  9
$DIMDLI
 40
3.75
  9
$DIMRND
 40
0
  9
$DIMDLE
 40
0
  9
$DIMEXE
 40
1.25
  9
$DIMTP
 40
0
  9
$DIMTM
 40
0
  9
$DIMTXT
 40
0.75
  9
$DIMCEN
 40
2.5
  9
$DIMTSZ
 40
0
  9
$DIMTOL
 70
    0
  9
$DIMLIM
 70
    0
  9
$DIMTIH
 70
    0
  9
$DIMTOH
 70
    0
  9
$DIMSE1
 70
    0
  9
$DIMSE2
 70
    0
  9
$DIMTAD
 70
    1
  9
$DIMZIN
 70
    1
  9
$DIMBLK
  1

  9
$DIMASO
 70
    1
  9
$DIMSHO
 70
    1
  9
$DIMPOST
  1

  9
$DIMAPOST
  1

  9
$DIMALT
 70
    0
  9
$DIMALTD
 70
    3
  9
$DIMALTF
 40
0.03937
  9
$DIMLFAC
 40
1
  9
$DIMTOFL
 70
    1
  9
$DIMTVP
 40
0
  9
$DIMTIX
 70
    0
  9
$DIMSOXD
 70
    0
  9
$DIMSAH
 70
    0
  9
$DIMBLK1
  1

  9
$DIMBLK2
  1

  9
$DIMSTYLE
  2
STANDARD
  9
$DIMCLRD
 70
  256
  9
$DIMCLRE
 70
  256
  9
$DIMCLRT
 70
  256
  9
$DIMTFAC
 40
1
  9
$DIMGAP
 40
0.25
  9
$DIMJUST
 70
    0
  9
$DIMSD1
 70
    0
  9
$DIMSD2
 70
    0
  9
$DIMTOLJ
 70
    0
  9
$DIMTZIN
 70
    8
  9
$DIMALTZ
 70
    0
  9
$DIMALTTZ
 70
    0
  9
$DIMUPT
 70
    0
  9
$DIMDEC
 70
    2
  9
$DIMTDEC
 70
    2
  9
$DIMALTU
 70
    2
  9
$DIMALTTD
 70
    3
  9
$DIMTXSTY
  7
romans
  9
$DIMAUNIT
 70
    0
  9
$DIMADEC
 70
    2
  9
$DIMALTRND
 40
0
  9
$DIMAZIN
 70
    0
  9
$DIMDSEP
 70
    0
  9
$DIMATFIT
 70
    3
  9
$DIMFRAC
 70
    0
  9
$DIMLDRBLK
  1
STANDARD
  9
$DIMLUNIT
 70
    2
  9
$DIMLWD
 70
   -1
  9
$DIMLWE
 70
   -1
  9
$DIMTMOVE
 70
    0
  9
$DIMFXL
 40
0.0394
  9
$DIMFXLON
 70
    0
  9
$DIMJOGANG
 40
0.7854
  9
$DIMTFILL
 70
    0
  9
$DIMTFILLCLR
 70
    0
  9
$DIMARCSYM
 70
    0
  9
$DIMLTYPE
  6

  9
$DIMLTEX1
  6

  9
$DIMLTEX2
  6

  9
$LUNITS
 70
    2
  9
$LUPREC
 70
    4
  9
$SKETCHINC
 40
1
  9
$FILLETRAD
 40
0
  9
$AUNITS
 70
    0
  9
$AUPREC
 70
    2
  9
$MENU
  1
.
  9
$ELEVATION
 40
0
  9
$PELEVATION
 40
0
  9
$THICKNESS
 40
0
  9
$LIMCHECK
 70
    0
  9
$CHAMFERA
 40
0
  9
$CHAMFERB
 40
0
  9
$CHAMFERC
 40
0
  9
$CHAMFERD
 40
0
  9
$SKPOLY
 70
    0
  9
$USRTIMER
 70
    1
  9
$ANGBASE
 50
0
  9
$ANGDIR
 70
    0
  9
$PDMODE
 70
   34
  9
$PDSIZE
 40
0
  9
$PLINEWID
 40
0
  9
$SPLFRAME
 70
    0
  9
$SPLINETYPE
 70
    2
  9
$SPLINESEGS
 70
    8
  9
$HANDSEED
  5
20000
  9
$SURFTAB1
 70
    6
  9
$SURFTAB2
 70
    6
  9
$SURFTYPE
 70
    6
  9
$SURFU
 70
    6
  9
$SURFV
 70
    6
  9
$UCSBASE
  2

  9
$UCSNAME
  2

  9
$UCSORG
 10
0
 20
0
 30
0
  9
$UCSXDIR
 10
1
 20
0
 30
0
  9
$UCSYDIR
 10
0
 20
1
 30
0
  9
$UCSORTHOREF
  2

  9
$UCSORTHOVIEW
 70
    0
  9
$UCSORGTOP
 10
0
 20
0
 30
0
  9
$UCSORGBOTTOM
 10
0
 20
0
 30
0
  9
$UCSORGLEFT
 10
0
 20
0
 30
0
  9
$UCSORGRIGHT
 10
0
 20
0
 30
0
  9
$UCSORGFRONT
 10
0
 20
0
 30
0
  9
$UCSORGBACK
 10
0
 20
0
 30
0
  9
$PUCSBASE
  2

  9
$PUCSNAME
  2

  9
$PUCSORG
 10
0
 20
0
 30
0
  9
$PUCSXDIR
 10
1
 20
0
 30
0
  9
$PUCSYDIR
 10
0
 20
1
 30
0
  9
$PUCSORTHOREF
  2

  9
$PUCSORTHOVIEW
 70
    0
  9
$PUCSORGTOP
 10
0
 20
0
 30
0
  9
$PUCSORGBOTTOM
 10
0
 20
0
 30
0
  9
$PUCSORGLEFT
 10
0
 20
0
 30
0
  9
$PUCSORGRIGHT
 10
0
 20
0
 30
0
  9
$PUCSORGFRONT
 10
0
 20
0
 30
0
  9
$PUCSORGBACK
 10
0
 20
0
 30
0
  9
$USERI1
 70
    0
  9
$USERI2
 70
    0
  9
$USERI3
 70
    0
  9
$USERI4
 70
    0
  9
$USERI5
 70
    0
  9
$USERR1
 40
0
  9
$USERR2
 40
0
  9
$USERR3
 40
0
  9
$USERR4
 40
0
  9
$USERR5
 40
0
  9
$WORLDVIEW
 70
    1
  9
$SHADEDGE
 70
    3
  9
$SHADEDIF
 70
   70
  9
$TILEMODE
 70
    1
  9
$MAXACTVP
 70
   64
  9
$PINSBASE
 10
0.375
 20
0.25
 30
0
  9
$PLIMCHECK
 70
    0
  9
$PEXTMIN
 10
0
 20
0
 30
0
  9
$PEXTMAX
 10
0
 20
0
 30
0
  9
$GRIDMODE
 70
    1
  9
$SNAPSTYLE
 70
    0
  9
$GRIDUNIT
 10
0
 20
0
  9
$PLIMMIN
 10
0
 20
0
  9
$PLIMMAX
 10
10.98425196850394
 20
8.503937007874017
  9
$UNITMODE
 70
    0
  9
$VISRETAIN
 70
    1
  9
$PLINEGEN
 70
    0
  9
$PSLTSCALE
 70
    1
  9
$TREEDEPTH
 70
 3020
  9
$CMLSTYLE
  2
Standard
  9
$CMLJUST
 70
    0
  9
$CMLSCALE
 40
20
  9
$PROXYGRAPHICS
 70
    1
  9
$MEASUREMENT
 70
    1
  9
$CELWEIGHT
370
   -1
  9
$ENDCAPS
280
    0
  9
$JOINSTYLE
280
    0
  9
$LWDISPLAY
290
    0
  9
$INSUNITS
 70
    1
  9
$HYPERLINKBASE
  1

  9
$STYLESHEET
  1

  9
$XEDIT
290
    1
  9
$CEPSNTYPE
380
    0
  9
$PSTYLEMODE
290
    1
  9
$EXTNAMES
290
    1
  9
$PSVPSCALE
 40
0.09090909090909091
  9
$OLESTARTUP
290
    0
  9
$SORTENTS
280
  127
  9
$INDEXCTL
280
    0
  9
$HIDETEXT
280
    1
  9
$XCLIPFRAME
290
    0
  9
$HALOGAP
280
    0
  9
$OBSCOLOR
 70
  257
  9
$OBSLTYPE
280
    0
  9
$INTERSECTIONDISPLAY
280
    0
  9
$INTERSECTIONCOLOR
 70
  257
  9
$DIMASSOC
280
    1
  9
$PROJECTNAME
  1

  9
$CAMERADISPLAY
290
    0
  9
$LENSLENGTH
 40
50
  9
$CAMERAHEIGHT
 40
0
  9
$STEPSPERSEC
 40
2
  9
$STEPSIZE
 40
50
  9
$3DDWFPREC
 40
2
  9
$PSOLWIDTH
 40
5
  9
$PSOLHEIGHT
 40
80
  9
$LOFTANG1
 40
1.570796326794897
  9
$LOFTANG2
 40
1.570796326794897
  9
$LOFTMAG1
 40
0
  9
$LOFTMAG2
 40
0
  9
$LOFTPARAM
 70
    7
  9
$LOFTNORMALS
280
    1
  9
$LATITUDE
 40
1
  9
$LONGITUDE
 40
1
  9
$NORTHDIRECTION
 40
0
  9
$TIMEZONE
 70
-8000
  9
$LIGHTGLYPHDISPLAY
280
    1
  9
$TILEMODELIGHTSYNCH
280
    1
  9
$SOLIDHIST
280
    1
  9
$SHOWHIST
280
    1
  9
$DWFFRAME
280
    2
  9
$DGNFRAME
280
    0
  9
$REALWORLDSCALE
290
    1
  9
$INTERFERECOLOR
 62
    1
  9
$CSHADOW
280
    0
  9
$SHADOWPLANELOCATION
 40
0
  0
ENDSEC
  0
SECTION
  2
CLASSES
  0
ENDSEC
  0
SECTION
  2
TABLES
  0
TABLE
  2
VPORT
  5
8
330
0
100
AcDbSymbolTable
 70
    1
  0
VPORT
  5
31
330
2
100
AcDbSymbolTableRecord
100
AcDbViewportTableRecord
  2
*ACTIVE
 70
    0
 10
0
 20
0
 11
1
 21
1
 12
96.36972059821979
 22
44.93339831079133
 13
0
 23
0
 14
10
 24
10
 15
10
 25
10
 16
0
 26
0
 36
1
 17
0
 27
0
 37
0
 40
107.2982456145128
 41
2.602693602693603
 42
50
 43
0
 44
0
 50
0
 51
0
 71
    0
 72
  100
 73
    1
 74
    3
 75
    0
 76
    1
 77
    0
 78
    0
281
    0
 65
    1
110
0
120
0
130
0
111
1
121
0
131
0
112
0
122
1
132
0
 79
    0
146
0
348
10020
 60
    7
 61
    5
292
1
282
    1
141
0
142
0
 63
  250
421
3358443
  0
ENDTAB
  0
TABLE
  2
LTYPE
  5
5
330
0
100
AcDbSymbolTable
 70
    4
  0
LTYPE
  5
14
330
5
100
AcDbSymbolTableRecord
100
AcDbLinetypeTableRecord
  2
ByBlock
 70
    0
  3

 72
   65
 73
    0
 40
0
  0
LTYPE
  5
15
330
5
100
AcDbSymbolTableRecord
100
AcDbLinetypeTableRecord
  2
ByLayer
 70
    0
  3

 72
   65
 73
    0
 40
0
  0
LTYPE
  5
16
330
5
100
AcDbSymbolTableRecord
100
AcDbLinetypeTableRecord
  2
Continuous
 70
    0
  3
Solid line
 72
   65
 73
    0
 40
0
  0
LTYPE
  5
32
330
5
100
AcDbSymbolTableRecord
100
AcDbLinetypeTableRecord
  2
DOT
 70
    0
  3
Dot . . . . . . . . . . . . . . . . . . . . . .
 72
   65
 73
    2
 40
6.35
 49
0
 74
    0
 49
-6.35
 74
    0
  0
LTYPE
  5
33
330
5
100
AcDbSymbolTableRecord
100
AcDbLinetypeTableRecord
  2
DOTTINY
 70
    0
  3
Dot (.15x) .....................................
 72
   65
 73
    2
 40
0.9525
 49
0
 74
    0
 49
-0.9525
 74
    0
  0
LTYPE
  5
34
330
5
100
AcDbSymbolTableRecord
100
AcDbLinetypeTableRecord
  2
DOT2
 70
    0
  3
Dot (.5x) .....................................
 72
   65
 73
    2
 40
3.175
 49
0
 74
    0
 49
-3.175
 74
    0
  0
LTYPE
  5
35
330
5
100
AcDbSymbolTableRecord
100
AcDbLinetypeTableRecord
  2
DOTX2
 70
    0
  3
Dot (2x) .  .  .  .  .  .  .  .  .  .  .  .  .
 72
   65
 73
    2
 40
12.7
 49
0
 74
    0
 49
-12.7
 74
    0
  0
LTYPE
  5
36
330
5
100
AcDbSymbolTableRecord
100
AcDbLinetypeTableRecord
  2
DASHED
 70
    0
  3
Dashed _ _ _ _ _ _ _ _ _ _ _ _ _ _ _ _ _
 72
   65
 73
    2
 40
19.05
 49
12.7
 74
    0
 49
-6.35
 74
    0
  0
LTYPE
  5
37
330
5
100
AcDbSymbolTableRecord
100
AcDbLinetypeTableRecord
  2
DASHEDTINY
 70
    0
  3
Dashed (.15x) _ _ _ _ _ _ _ _ _ _ _ _ _ _ _ _ _
 72
   65
 73
    2
 40
2.8575
 49
1.905
 74
    0
 49
-0.9525
 74
    0
  0
LTYPE
  5
38
330
5
100
AcDbSymbolTableRecord
100
AcDbLinetypeTableRecord
  2
DASHED2
 70
    0
  3
Dashed (.5x) _ _ _ _ _ _ _ _ _ _ _ _ _ _ _ _ _
 72
   65
 73
    2
 40
9.524999999999999
 49
6.35
 74
    0
 49
-3.175
 74
    0
  0
LTYPE
  5
39
330
5
100
AcDbSymbolTableRecord
100
AcDbLinetypeTableRecord
  2
DASHEDX2
 70
    0
  3
Dashed (2x) ____  ____  ____  ____  ____  ___
 72
   65
 73
    2
 40
38.09999999999999
 49
25.4
 74
    0
 49
-12.7
 74
    0
  0
LTYPE
  5
3A
330
5
100
AcDbSymbolTableRecord
100
AcDbLinetypeTableRecord
  2
DASHDOT
 70
    0
  3
Dash dot __ . __ . __ . __ . __ . __ . __ . __
 72
   65
 73
    4
 40
25.4
 49
12.7
 74
    0
 49
-6.35
 74
    0
 49
0
 74
    0
 49
-6.35
 74
    0
  0
LTYPE
  5
3B
330
5
100
AcDbSymbolTableRecord
100
AcDbLinetypeTableRecord
  2
DASHDOTTINY
 70
    0
  3
Dash dot (.15x) _._._._._._._._._._._._._._._.
 72
   65
 73
    4
 40
3.81
 49
1.905
 74
    0
 49
-0.9525
 74
    0
 49
0
 74
    0
 49
-0.9525
 74
    0
  0
LTYPE
  5
3C
330
5
100
AcDbSymbolTableRecord
100
AcDbLinetypeTableRecord
  2
DASHDOT2
 70
    0
  3
Dash dot (.5x) _._._._._._._._._._._._._._._.
 72
   65
 73
    4
 40
12.7
 49
6.35
 74
    0
 49
-3.175
 74
    0
 49
0
 74
    0
 49
-3.175
 74
    0
  0
LTYPE
  5
3D
330
5
100
AcDbSymbolTableRecord
100
AcDbLinetypeTableRecord
  2
DASHDOTX2
 70
    0
  3
Dash dot (2x) ____  .  ____  .  ____  .  ___
 72
   65
 73
    4
 40
50.8
 49
25.4
 74
    0
 49
-12.7
 74
    0
 49
0
 74
    0
 49
-12.7
 74
    0
  0
LTYPE
  5
3E
330
5
100
AcDbSymbolTableRecord
100
AcDbLinetypeTableRecord
  2
DIVIDE
 70
    0
  3
Divide ____ . . ____ . . ____ . . ____ . . ____
 72
   65
 73
    6
 40
31.75
 49
12.7
 74
    0
 49
-6.35
 74
    0
 49
0
 74
    0
 49
-6.35
 74
    0
 49
0
 74
    0
 49
-6.35
 74
    0
  0
LTYPE
  5
3F
330
5
100
AcDbSymbolTableRecord
100
AcDbLinetypeTableRecord
  2
DIVIDETINY
 70
    0
  3
Divide (.15x) __..__..__..__..__..__..__..__.._
 72
   65
 73
    6
 40
4.7625
 49
1.905
 74
    0
 49
-0.9525
 74
    0
 49
0
 74
    0
 49
-0.9525
 74
    0
 49
0
 74
    0
 49
-0.9525
 74
    0
  0
LTYPE
  5
40
330
5
100
AcDbSymbolTableRecord
100
AcDbLinetypeTableRecord
  2
DIVIDE2
 70
    0
  3
Divide (.5x) __..__..__..__..__..__..__..__.._
 72
   65
 73
    6
 40
15.875
 49
6.35
 74
    0
 49
-3.175
 74
    0
 49
0
 74
    0
 49
-3.175
 74
    0
 49
0
 74
    0
 49
-3.175
 74
    0
  0
LTYPE
  5
41
330
5
100
AcDbSymbolTableRecord
100
AcDbLinetypeTableRecord
  2
DIVIDEX2
 70
    0
  3
Divide (2x) ________  .  .  ________  .  .  _
 72
   65
 73
    6
 40
63.5
 49
25.4
 74
    0
 49
-12.7
 74
    0
 49
0
 74
    0
 49
-12.7
 74
    0
 49
0
 74
    0
 49
-12.7
 74
    0
  0
LTYPE
  5
42
330
5
100
AcDbSymbolTableRecord
100
AcDbLinetypeTableRecord
  2
BORDER
 70
    0
  3
Border __ __ . __ __ . __ __ . __ __ . __ __ .
 72
   65
 73
    6
 40
44.45
 49
12.7
 74
    0
 49
-6.35
 74
    0
 49
12.7
 74
    0
 49
-6.35
 74
    0
 49
0
 74
    0
 49
-6.35
 74
    0
  0
LTYPE
  5
43
330
5
100
AcDbSymbolTableRecord
100
AcDbLinetypeTableRecord
  2
BORDERTINY
 70
    0
  3
Border (.15x) __.__.__.__.__.__.__.__.__.__.__.
 72
   65
 73
    6
 40
6.6675
 49
1.905
 74
    0
 49
-0.9525
 74
    0
 49
1.905
 74
    0
 49
-0.9525
 74
    0
 49
0
 74
    0
 49
-0.9525
 74
    0
  0
LTYPE
  5
44
330
5
100
AcDbSymbolTableRecord
100
AcDbLinetypeTableRecord
  2
BORDER2
 70
    0
  3
Border (.5x) __.__.__.__.__.__.__.__.__.__.__.
 72
   65
 73
    6
 40
22.225
 49
6.35
 74
    0
 49
-3.175
 74
    0
 49
6.35
 74
    0
 49
-3.175
 74
    0
 49
0
 74
    0
 49
-3.175
 74
    0
  0
LTYPE
  5
45
330
5
100
AcDbSymbolTableRecord
100
AcDbLinetypeTableRecord
  2
BORDERX2
 70
    0
  3
Border (2x) ____  ____  .  ____  ____  .  ___
 72
   65
 73
    6
 40
88.89999999999999
 49
25.4
 74
    0
 49
-12.7
 74
    0
 49
25.4
 74
    0
 49
-12.7
 74
    0
 49
0
 74
    0
 49
-12.7
 74
    0
  0
LTYPE
  5
46
330
5
100
AcDbSymbolTableRecord
100
AcDbLinetypeTableRecord
  2
CENTER
 70
    0
  3
Center ____ _ ____ _ ____ _ ____ _ ____ _ ____
 72
   65
 73
    4
 40
50.8
 49
31.75
 74
    0
 49
-6.35
 74
    0
 49
6.35
 74
    0
 49
-6.35
 74
    0
  0
LTYPE
  5
47
330
5
100
AcDbSymbolTableRecord
100
AcDbLinetypeTableRecord
  2
CENTERTINY
 70
    0
  3
Center (.15x) ___ _ ___ _ ___ _ ___ _ ___ _ ___
 72
   65
 73
    4
 40
7.62
 49
4.7625
 74
    0
 49
-0.9525
 74
    0
 49
0.9525
 74
    0
 49
-0.9525
 74
    0
  0
LTYPE
  5
48
330
5
100
AcDbSymbolTableRecord
100
AcDbLinetypeTableRecord
  2
CENTER2
 70
    0
  3
Center (.5x) ___ _ ___ _ ___ _ ___ _ ___ _ ___
 72
   65
 73
    4
 40
28.575
 49
19.05
 74
    0
 49
-3.175
 74
    0
 49
3.175
 74
    0
 49
-3.175
 74
    0
  0
LTYPE
  5
49
330
5
100
AcDbSymbolTableRecord
100
AcDbLinetypeTableRecord
  2
CENTERX2
 70
    0
  3
Center (2x) ________  __  ________  __  _____
 72
   65
 73
    4
 40
101.6
 49
63.5
 74
    0
 49
-12.7
 74
    0
 49
12.7
 74
    0
 49
-12.7
 74
    0
  0
ENDTAB
  0
TABLE
  2
LAYER
  5
2
330
0
100
AcDbSymbolTable
 70
    1
  0
LAYER
  5
10
330
2
100
AcDbSymbolTableRecord
100
AcDbLayerTableRecord
  2
0
 70
    0
 62
    7
  6
CONTINUOUS
370
    0
390
F
  0
LAYER
  5
4A
330
2
100
AcDbSymbolTableRecord
100
AcDbLayerTableRecord
  2
Dimensions
 70
    0
 62
    1
  6
DASHEDTINY
370
    0
390
F
  0
LAYER
  5
4B
330
2
100
AcDbSymbolTableRecord
100
AcDbLayerTableRecord
  2
Drawing
 70
    0
 62
    7
  6
CONTINUOUS
370
  211
390
F
  0
LAYER
  5
4C
330
2
100
AcDbSymbolTableRecord
100
AcDbLayerTableRecord
  2
Drawing_Border
 70
    0
 62
    7
  6
CONTINUOUS
370
   35
390
F
  0
LAYER
  5
4D
330
2
100
AcDbSymbolTableRecord
100
AcDbLayerTableRecord
  2
Paper_Format
 70
    1
 62
    6
  6
CONTINUOUS
290
0
370
   35
390
F
  0
LAYER
  5
4E
330
2
100
AcDbSymbolTableRecord
100
AcDbLayerTableRecord
  2
Title_Block
 70
    0
 62
    7
  6
CONTINUOUS
370
   35
390
F
  0
ENDTAB
  0
TABLE
  2
STYLE
  5
3
330
0
100
AcDbSymbolTable
 70
    3
  0
STYLE
  5
4F
330
2
100
AcDbSymbolTableRecord
100
AcDbTextStyleTableRecord
  2
romans
 70
    0
 40
0
 41
1
 50
0
 71
    0
 42
1
  3
romans
  4

  0
STYLE
  5
50
330
2
100
AcDbSymbolTableRecord
100
AcDbTextStyleTableRecord
  2
Standard
 70
    0
 40
0
 41
1
 50
0
 71
    0
 42
1
  3
txt
  4

  0
ENDTAB
  0
TABLE
  2
VIEW
  5
6
330
0
100
AcDbSymbolTable
 70
    0
  0
ENDTAB
  0
TABLE
  2
UCS
  5
7
330
0
100
AcDbSymbolTable
 70
    0
  0
ENDTAB
  0
TABLE
  2
APPID
  5
9
330
0
100
AcDbSymbolTable
 70
    1
  0
APPID
  5
12
330
9
100
AcDbSymbolTableRecord
100
AcDbRegAppTableRecord
  2
ACAD
 70
    0
  0
APPID
  5
51
330
9
100
AcDbSymbolTableRecord
100
AcDbRegAppTableRecord
  2
LibreCad
 70
    0
  0
ENDTAB
  0
TABLE
  2
DIMSTYLE
  5
A
330
0
100
AcDbSymbolTable
 70
    1
100
AcDbDimStyleTable
 71
    1
  0
DIMSTYLE
105
52
330
A
100
AcDbSymbolTableRecord
100
AcDbDimStyleTableRecord
  2
Standard
 70
    0
 40
2.5
 41
0.5
 42
0.625
 43
0.38
 44
1.25
 45
0
 46
0
 47
0
 48
0
 49
0.0394
140
0.75
141
0.09
142
0
143
25.4
144
1
145
0
146
1
147
0.25
148
0
 71
    0
 72
    0
 73
    0
 74
    1
 75
    0
 76
    0
 77
    0
 78
    1
 79
    0
170
    0
171
    2
172
    0
173
    0
174
    0
175
    0
176
  256
177
  256
178
  256
179
    2
271
    2
272
    4
273
    2
274
    2
275
    0
276
    0
277
    2
278
    0
279
    0
280
    0
281
    0
282
    0
283
    1
284
    0
285
    0
286
    0
288
    0
289
    3
340
romans
341

371
   -1
372
   -1
  0
ENDTAB
  0
TABLE
  2
BLOCK_RECORD
  5
1
330
0
100
AcDbSymbolTable
 70
    2
  0
BLOCK_RECORD
  5
1F
330
1
100
AcDbSymbolTableRecord
100
AcDbBlockTableRecord
  2
*Model_Space
 70
    0
280
    1
281
    0
  0
BLOCK_RECORD
  5
1E
330
1
100
AcDbSymbolTableRecord
100
AcDbBlockTableRecord
  2
*Paper_Space
 70
    0
280
    1
281
    0
  0
BLOCK_RECORD
  5
53
330
1
100
AcDbSymbolTableRecord
100
AcDbBlockTableRecord
  2
*D2
 70
    0
280
    1
281
    0
  0
BLOCK_RECORD
  5
56
330
1
100
AcDbSymbolTableRecord
100
AcDbBlockTableRecord
  2
*D7
 70
    0
280
    1
281
    0
  0
BLOCK_RECORD
  5
59
330
1
100
AcDbSymbolTableRecord
100
AcDbBlockTableRecord
  2
*D9
 70
    0
280
    1
281
    0
  0
BLOCK_RECORD
  5
5C
330
1
100
AcDbSymbolTableRecord
100
AcDbBlockTableRecord
  2
*D10
 70
    0
280
    1
281
    0
  0
BLOCK_RECORD
  5
5F
330
1
100
AcDbSymbolTableRecord
100
AcDbBlockTableRecord
  2
*D8
 70
    0
280
    1
281
    0
  0
BLOCK_RECORD
  5
62
330
1
100
AcDbSymbolTableRecord
100
AcDbBlockTableRecord
  2
*D13
 70
    0
280
    1
281
    0
  0
BLOCK_RECORD
  5
65
330
1
100
AcDbSymbolTableRecord
100
AcDbBlockTableRecord
  2
*D5
 70
    0
280
    1
281
    0
  0
BLOCK_RECORD
  5
68
330
1
100
AcDbSymbolTableRecord
100
AcDbBlockTableRecord
  2
*D14
 70
    0
280
    1
281
    0
  0
BLOCK_RECORD
  5
6B
330
1
100
AcDbSymbolTableRecord
100
AcDbBlockTableRecord
  2
*D17
 70
    0
280
    1
281
    0
  0
BLOCK_RECORD
  5
6E
330
1
100
AcDbSymbolTableRecord
100
AcDbBlockTableRecord
  2
*D1
 70
    0
280
    1
281
    0
  0
BLOCK_RECORD
  5
71
330
1
100
AcDbSymbolTableRecord
100
AcDbBlockTableRecord
  2
*D4
 70
    0
280
    1
281
    0
  0
BLOCK_RECORD
  5
74
330
1
100
AcDbSymbolTableRecord
100
AcDbBlockTableRecord
  2
*D3
 70
    0
280
    1
281
    0
  0
BLOCK_RECORD
  5
77
330
1
100
AcDbSymbolTableRecord
100
AcDbBlockTableRecord
  2
*D11
 70
    0
280
    1
281
    0
  0
BLOCK_RECORD
  5
7A
330
1
100
AcDbSymbolTableRecord
100
AcDbBlockTableRecord
  2
*D12
 70
    0
280
    1
281
    0
  0
BLOCK_RECORD
  5
7D
330
1
100
AcDbSymbolTableRecord
100
AcDbBlockTableRecord
  2
*D6
 70
    0
280
    1
281
    0
  0
BLOCK_RECORD
  5
80
330
1
100
AcDbSymbolTableRecord
100
AcDbBlockTableRecord
  2
*D15
 70
    0
280
    1
281
    0
  0
BLOCK_RECORD
  5
83
330
1
100
AcDbSymbolTableRecord
100
AcDbBlockTableRecord
  2
*D16
 70
    0
280
    1
281
    0
  0
BLOCK_RECORD
  5
86
330
1
100
AcDbSymbolTableRecord
100
AcDbBlockTableRecord
  2
BorderTemplate - Letter_Landscape
 70
    0
280
    1
281
    0
  0
BLOCK_RECORD
  5
89
330
1
100
AcDbSymbolTableRecord
100
AcDbBlockTableRecord
  2
BorderTemplate - Letter_Landscape-0
 70
    0
280
    1
281
    0
  0
ENDTAB
  0
ENDSEC
  0
SECTION
  2
BLOCKS
  0
BLOCK
  5
20
330
1F
100
AcDbEntity
  8
0
100
AcDbBlockBegin
  2
*Model_Space
 70
    0
 10
0
 20
0
 30
0
  3
*Model_Space
  1

  0
ENDBLK
  5
21
330
1F
100
AcDbEntity
  8
0
100
AcDbBlockEnd
  0
BLOCK
  5
1C
330
1B
100
AcDbEntity
  8
0
100
AcDbBlockBegin
  2
*Paper_Space
 70
    0
 10
0
 20
0
 30
0
  3
*Paper_Space
  1

  0
ENDBLK
  5
1D
330
1F
100
AcDbEntity
  8
0
100
AcDbBlockEnd
  0
BLOCK
  5
54
330
53
100
AcDbEntity
  8
0
100
AcDbBlockBegin
  2
*D2
 70
    1
 10
0
 20
0
  3
*D2
  1

  0
LINE
  5
8C
100
AcDbEntity
  8
Dimensions
  6
ByBlock
 62
  256
370
   -1
100
AcDbLine
 10
15
 20
67.48683711085349
 11
90.50000000000001
 21
67.48683711085349
  0
MTEXT
  5
8D
100
AcDbEntity
  8
Dimensions
  6
CONTINUOUS
 62
  256
370
   -2
100
AcDbMText
 10
52.75000000000001
 20
69.04933711085349
 30
0
 40
1.875
 41
7.678571458333334
 71
    5
 72
    1
  1
75.50
  7
romans
210
0
220
0
230
1
 50
0
 73
    2
 44
1
  0
SOLID
  5
8E
100
AcDbEntity
  8
Dimensions
  6
ByBlock
 62
  256
370
   -1
100
AcDbTrace
 10
15
 20
67.48683711085349
 30
0
 11
16.25
 21
67.69497943973991
 31
0
 12
16.25
 22
67.27869478196706
 32
0
 13
16.25
 23
67.27869478196706
 33
0
  0
SOLID
  5
8F
100
AcDbEntity
  8
Dimensions
  6
ByBlock
 62
  256
370
   -1
100
AcDbTrace
 10
90.50000000000001
 20
67.48683711085349
 30
0
 11
89.25000000000001
 21
67.27869478196706
 31
0
 12
89.25000000000001
 22
67.69497943973991
 32
0
 13
89.25000000000001
 23
67.69497943973991
 33
0
  0
LINE
  5
90
100
AcDbEntity
  8
Dimensions
  6
ByBlock
 62
  256
370
   -1
100
AcDbLine
 10
15
 20
58.8125
 11
15
 21
70.61183711085349
  0
LINE
  5
91
100
AcDbEntity
  8
Dimensions
  6
ByBlock
 62
  256
370
   -1
100
AcDbLine
 10
90.50000000000001
 20
58.8125
 11
90.50000000000001
 21
70.61183711085349
  0
ENDBLK
  5
55
330
53
100
AcDbEntity
  8
0
100
AcDbBlockEnd
  0
BLOCK
  5
57
330
56
100
AcDbEntity
  8
0
100
AcDbBlockBegin
  2
*D7
 70
    1
 10
0
 20
0
  3
*D7
  1

  0
LINE
  5
92
100
AcDbEntity
  8
Dimensions
  6
CONTINUOUS
 62
    7
370
    0
100
AcDbLine
 10
13.5
 20
32.25
 11
17.5
 21
29.25
  0
LINE
  5
93
100
AcDbEntity
  8
Dimensions
  6
CONTINUOUS
 62
    7
370
    0
100
AcDbLine
 10
17.5
 20
29.25
 11
20.5
 21
29.25
  0
SOLID
  5
94
100
AcDbEntity
  8
Dimensions
  6
CONTINUOUS
 62
    7
370
    0
100
AcDbTrace
 10
13.5
 20
32.25
 30
0
 11
14.62488539733185
 21
31.66651386310913
 31
0
 12
14.37511460266815
 22
31.33348613689086
 32
0
 13
14.37511460266815
 23
31.33348613689086
 33
0
  0
ENDBLK
  5
58
330
56
100
AcDbEntity
  8
0
100
AcDbBlockEnd
  0
BLOCK
  5
5A
330
59
100
AcDbEntity
  8
0
100
AcDbBlockBegin
  2
*D9
 70
    1
 10
0
 20
0
  3
*D9
  1

  0
LINE
  5
95
100
AcDbEntity
  8
Dimensions
  6
CONTINUOUS
 62
    7
370
    0
100
AcDbLine
 10
83.54895916572157
 20
50.31986377227538
 11
76.59250793592776
 21
45.98982780270985
  0
LINE
  5
96
100
AcDbEntity
  8
Dimensions
  6
CONTINUOUS
 62
    7
370
    0
100
AcDbLine
 10
76.59250793592776
 20
45.98982780270985
 11
76.59250793592776
 21
37.2587716673564
  0
LINE
  5
97
100
AcDbEntity
  8
Dimensions
  6
CONTINUOUS
 62
    7
370
    0
100
AcDbLine
 10
76.59250793592776
 20
37.2587716673564
 11
72.12050357391746
 21
35.12924578068482
  0
SOLID
  5
98
100
AcDbEntity
  8
Dimensions
  6
CONTINUOUS
 62
    7
370
    0
100
AcDbTrace
 10
83.54895916572157
 20
50.31986377227538
 30
0
 11
82.59773723486661
 21
49.48260630450645
 31
0
 12
82.37775549563789
 22
49.83601959048048
 32
0
 13
82.37775549563789
 23
49.83601959048048
 33
0
  0
ENDBLK
  5
5B
330
59
100
AcDbEntity
  8
0
100
AcDbBlockEnd
  0
BLOCK
  5
5D
330
5C
100
AcDbEntity
  8
0
100
AcDbBlockBegin
  2
*D10
 70
    1
 10
0
 20
0
  3
*D10
  1

  0
LINE
  5
99
100
AcDbEntity
  8
Dimensions
  6
CONTINUOUS
 62
    7
370
    0
100
AcDbLine
 10
71.19770902302645
 20
48.90017984782766
 11
76.59708445975649
 21
45.90597719311481
  0
SOLID
  5
9A
100
AcDbEntity
  8
Dimensions
  6
CONTINUOUS
 62
    7
370
    0
100
AcDbTrace
 10
71.19770902302645
 20
48.90017984782766
 30
0
 11
72.39181616567753
 21
48.47599667873213
 31
0
 12
72.18993134397621
 22
48.11194251371862
 32
0
 13
72.18993134397621
 23
48.11194251371862
 33
0
  0
ENDBLK
  5
5E
330
5C
100
AcDbEntity
  8
0
100
AcDbBlockEnd
  0
BLOCK
  5
60
330
5F
100
AcDbEntity
  8
0
100
AcDbBlockBegin
  2
*D8
 70
    1
 10
0
 20
0
  3
*D8
  1

  0
LINE
  5
9B
100
AcDbEntity
  8
Dimensions
  6
ByBlock
 62
  256
370
   -1
100
AcDbLine
 10
104.335092157157
 20
59.25000000000004
 11
104.335092157157
 21
27.25000000000003
  0
MTEXT
  5
9C
100
AcDbEntity
  8
Dimensions
  6
CONTINUOUS
 62
  256
370
   -2
100
AcDbMText
 10
102.772592157157
 20
43.25000000000004
 30
0
 40
1.875
 41
7.678571458333334
 71
    5
 72
    1
  1
32.00
  7
romans
210
0
220
0
230
1
 50
90
 73
    2
 44
1
  0
SOLID
  5
9D
100
AcDbEntity
  8
Dimensions
  6
ByBlock
 62
  256
370
   -1
100
AcDbTrace
 10
104.335092157157
 20
59.25000000000004
 30
0
 11
104.5432344860434
 21
58.00000000000004
 31
0
 12
104.1269498282706
 22
58.00000000000004
 32
0
 13
104.1269498282706
 23
58.00000000000004
 33
0
  0
SOLID
  5
9E
100
AcDbEntity
  8
Dimensions
  6
ByBlock
 62
  256
370
   -1
100
AcDbTrace
 10
104.335092157157
 20
27.25000000000003
 30
0
 11
104.1269498282706
 21
28.50000000000003
 31
0
 12
104.5432344860434
 22
28.50000000000003
 32
0
 13
104.5432344860434
 23
28.50000000000003
 33
0
  0
LINE
  5
9F
100
AcDbEntity
  8
Dimensions
  6
ByBlock
 62
  256
370
   -1
100
AcDbLine
 10
95.0625
 20
59.25000000000004
 11
107.460092157157
 21
59.25000000000004
  0
LINE
  5
A0
100
AcDbEntity
  8
Dimensions
  6
ByBlock
 62
  256
370
   -1
100
AcDbLine
 10
95.06250000000003
 20
27.25000000000003
 11
107.460092157157
 21
27.25000000000003
  0
ENDBLK
  5
61
330
5F
100
AcDbEntity
  8
0
100
AcDbBlockEnd
  0
BLOCK
  5
63
330
62
100
AcDbEntity
  8
0
100
AcDbBlockBegin
  2
*D13
 70
    1
 10
0
 20
0
  3
*D13
  1

  0
LINE
  5
A1
100
AcDbEntity
  8
Dimensions
  6
CONTINUOUS
 62
    7
370
    0
100
AcDbLine
 10
62.62308574456534
 20
41.04140861516317
 11
58.62308574456534
 21
35.04140861516317
  0
LINE
  5
A2
100
AcDbEntity
  8
Dimensions
  6
CONTINUOUS
 62
    7
370
    0
100
AcDbLine
 10
58.62308574456534
 20
35.04140861516317
 11
55.62308574456534
 21
35.04140861516317
  0
SOLID
  5
A3
100
AcDbEntity
  8
Dimensions
  6
CONTINUOUS
 62
    7
370
    0
100
AcDbTrace
 10
62.62308574456534
 20
41.04140861516317
 30
0
 11
62.10289538529791
 21
39.88588915656479
 31
0
 12
61.75652561326969
 22
40.11680233791694
 32
0
 13
61.75652561326969
 23
40.11680233791694
 33
0
  0
ENDBLK
  5
64
330
62
100
AcDbEntity
  8
0
100
AcDbBlockEnd
  0
BLOCK
  5
66
330
65
100
AcDbEntity
  8
0
100
AcDbBlockBegin
  2
*D5
 70
    1
 10
0
 20
0
  3
*D5
  1

  0
LINE
  5
A4
100
AcDbEntity
  8
Dimensions
  6
ByBlock
 62
  256
370
   -1
100
AcDbLine
 10
53.5
 20
61.05479565146016
 11
70.5
 21
61.05479565146016
  0
MTEXT
  5
A5
100
AcDbEntity
  8
Dimensions
  6
CONTINUOUS
 62
  256
370
   -2
100
AcDbMText
 10
62
 20
62.61729565146016
 30
0
 40
1.875
 41
6.875000625
 71
    5
 72
    1
  1
17.00
  7
romans
210
0
220
0
230
1
 50
0
 73
    2
 44
1
  0
SOLID
  5
A6
100
AcDbEntity
  8
Dimensions
  6
ByBlock
 62
  256
370
   -1
100
AcDbTrace
 10
53.5
 20
61.05479565146016
 30
0
 11
54.75
 21
61.26293798034658
 31
0
 12
54.75
 22
60.84665332257374
 32
0
 13
54.75
 23
60.84665332257374
 33
0
  0
SOLID
  5
A7
100
AcDbEntity
  8
Dimensions
  6
ByBlock
 62
  256
370
   -1
100
AcDbTrace
 10
70.5
 20
61.05479565146016
 30
0
 11
69.25
 21
60.84665332257374
 31
0
 12
69.25
 22
61.26293798034658
 32
0
 13
69.25
 23
61.26293798034658
 33
0
  0
LINE
  5
A8
100
AcDbEntity
  8
Dimensions
  6
ByBlock
 62
  256
370
   -1
100
AcDbLine
 10
53.5
 20
58.8125
 11
53.5
 21
64.17979565146015
  0
LINE
  5
A9
100
AcDbEntity
  8
Dimensions
  6
ByBlock
 62
  256
370
   -1
100
AcDbLine
 10
70.5
 20
58.81250000000001
 11
70.5
 21
64.17979565146015
  0
ENDBLK
  5
67
330
65
100
AcDbEntity
  8
0
100
AcDbBlockEnd
  0
BLOCK
  5
69
330
68
100
AcDbEntity
  8
0
100
AcDbBlockBegin
  2
*D14
 70
    1
 10
0
 20
0
  3
*D14
  1

  0
LINE
  5
AA
100
AcDbEntity
  8
Dimensions
  6
ByBlock
 62
  256
370
   -1
100
AcDbLine
 10
97.85174365482902
 20
27.25000000000003
 11
97.85174365482902
 21
39.25000000000003
  0
MTEXT
  5
AB
100
AcDbEntity
  8
Dimensions
  6
CONTINUOUS
 62
  256
370
   -2
100
AcDbMText
 10
96.28924365482902
 20
33.25000000000003
 30
0
 40
1.875
 41
6.875000625
 71
    5
 72
    1
  1
12.00
  7
romans
210
0
220
0
230
1
 50
90
 73
    2
 44
1
  0
SOLID
  5
AC
100
AcDbEntity
  8
Dimensions
  6
ByBlock
 62
  256
370
   -1
100
AcDbTrace
 10
97.85174365482902
 20
27.25000000000003
 30
0
 11
97.6436013259426
 21
28.50000000000003
 31
0
 12
98.05988598371545
 22
28.50000000000003
 32
0
 13
98.05988598371545
 23
28.50000000000003
 33
0
  0
SOLID
  5
AD
100
AcDbEntity
  8
Dimensions
  6
ByBlock
 62
  256
370
   -1
100
AcDbTrace
 10
97.85174365482902
 20
39.25000000000003
 30
0
 11
98.05988598371545
 21
38.00000000000003
 31
0
 12
97.6436013259426
 22
38.00000000000003
 32
0
 13
97.6436013259426
 23
38.00000000000003
 33
0
  0
LINE
  5
AE
100
AcDbEntity
  8
Dimensions
  6
ByBlock
 62
  256
370
   -1
100
AcDbLine
 10
95.06250000000003
 20
27.25000000000003
 11
100.976743654829
 21
27.25000000000003
  0
LINE
  5
AF
100
AcDbEntity
  8
Dimensions
  6
ByBlock
 62
  256
370
   -1
100
AcDbLine
 10
90.56250000000001
 20
39.25000000000003
 11
100.976743654829
 21
39.25000000000003
  0
ENDBLK
  5
6A
330
68
100
AcDbEntity
  8
0
100
AcDbBlockEnd
  0
BLOCK
  5
6C
330
6B
100
AcDbEntity
  8
0
100
AcDbBlockBegin
  2
*D17
 70
    1
 10
0
 20
0
  3
*D17
  1

  0
LINE
  5
B0
100
AcDbEntity
  8
Dimensions
  6
ByBlock
 62
  256
370
   -1
100
AcDbLine
 10
9.438167651447737
 20
38.25
 11
9.438167651447737
 21
45.75
  0
MTEXT
  5
B1
100
AcDbEntity
  8
Dimensions
  6
CONTINUOUS
 62
  256
370
   -2
100
AcDbMText
 10
4.847735814953559
 20
41.9864336061075
 30
0
 40
1.875
 41
5.803571458333334
 71
    5
 72
    1
  1
2.50
  7
romans
210
0
220
0
230
1
 50
90
 73
    2
 44
1
  0
SOLID
  5
B2
100
AcDbEntity
  8
Dimensions
  6
ByBlock
 62
  256
370
   -1
100
AcDbTrace
 10
9.438167651447737
 20
40.75
 30
0
 11
9.646309980334157
 21
39.5
 31
0
 12
9.230025322561316
 22
39.5
 32
0
 13
9.230025322561316
 23
39.5
 33
0
  0
SOLID
  5
B3
100
AcDbEntity
  8
Dimensions
  6
ByBlock
 62
  256
370
   -1
100
AcDbTrace
 10
9.438167651447737
 20
43.25
 30
0
 11
9.230025322561316
 21
44.5
 31
0
 12
9.646309980334157
 22
44.5
 32
0
 13
9.646309980334157
 23
44.5
 33
0
  0
LINE
  5
B4
100
AcDbEntity
  8
Dimensions
  6
ByBlock
 62
  256
370
   -1
100
AcDbLine
 10
12.57543256358893
 20
40.75
 11
6.313167651447737
 21
40.75
  0
LINE
  5
B5
100
AcDbEntity
  8
Dimensions
  6
ByBlock
 62
  256
370
   -1
100
AcDbLine
 10
12.45414830779173
 20
43.25
 11
6.313167651447737
 21
43.25
  0
ENDBLK
  5
6D
330
6B
100
AcDbEntity
  8
0
100
AcDbBlockEnd
  0
BLOCK
  5
6F
330
6E
100
AcDbEntity
  8
0
100
AcDbBlockBegin
  2
*D1
 70
    1
 10
0
 20
0
  3
*D1
  1

  0
LINE
  5
B6
100
AcDbEntity
  8
Dimensions
  6
ByBlock
 62
  256
370
   -1
100
AcDbLine
 10
11.5
 20
24.31735360288203
 11
94.00000000000001
 21
24.31735360288203
  0
MTEXT
  5
B7
100
AcDbEntity
  8
Dimensions
  6
CONTINUOUS
 62
  256
370
   -2
100
AcDbMText
 10
52.75000000000001
 20
25.87985360288203
 30
0
 40
1.875
 41
7.678571458333334
 71
    5
 72
    1
  1
82.50
  7
romans
210
0
220
0
230
1
 50
0
 73
    2
 44
1
  0
SOLID
  5
B8
100
AcDbEntity
  8
Dimensions
  6
ByBlock
 62
  256
370
   -1
100
AcDbTrace
 10
11.5
 20
24.31735360288203
 30
0
 11
12.75
 21
24.52549593176845
 31
0
 12
12.75
 22
24.10921127399561
 32
0
 13
12.75
 23
24.10921127399561
 33
0
  0
SOLID
  5
B9
100
AcDbEntity
  8
Dimensions
  6
ByBlock
 62
  256
370
   -1
100
AcDbTrace
 10
94.00000000000001
 20
24.31735360288203
 30
0
 11
92.75000000000001
 21
24.10921127399561
 31
0
 12
92.75000000000001
 22
24.52549593176845
 32
0
 13
92.75000000000001
 23
24.52549593176845
 33
0
  0
LINE
  5
BA
100
AcDbEntity
  8
Dimensions
  6
ByBlock
 62
  256
370
   -1
100
AcDbLine
 10
11.5
 20
26.1875
 11
11.5
 21
21.19235360288203
  0
LINE
  5
BB
100
AcDbEntity
  8
Dimensions
  6
ByBlock
 62
  256
370
   -1
100
AcDbLine
 10
94.00000000000001
 20
26.1875
 11
94.00000000000001
 21
21.19235360288203
  0
ENDBLK
  5
70
330
6E
100
AcDbEntity
  8
0
100
AcDbBlockEnd
  0
BLOCK
  5
72
330
71
100
AcDbEntity
  8
0
100
AcDbBlockBegin
  2
*D4
 70
    1
 10
0
 20
0
  3
*D4
  1

  0
LINE
  5
BC
100
AcDbEntity
  8
Dimensions
  6
ByBlock
 62
  256
370
   -1
100
AcDbLine
 10
35
 20
61.05479565146016
 11
52
 21
61.05479565146016
  0
MTEXT
  5
BD
100
AcDbEntity
  8
Dimensions
  6
CONTINUOUS
 62
  256
370
   -2
100
AcDbMText
 10
43.5
 20
62.61729565146016
 30
0
 40
1.875
 41
6.875000625
 71
    5
 72
    1
  1
17.00
  7
romans
210
0
220
0
230
1
 50
0
 73
    2
 44
1
  0
SOLID
  5
BE
100
AcDbEntity
  8
Dimensions
  6
ByBlock
 62
  256
370
   -1
100
AcDbTrace
 10
35
 20
61.05479565146016
 30
0
 11
36.25
 21
61.26293798034658
 31
0
 12
36.25
 22
60.84665332257374
 32
0
 13
36.25
 23
60.84665332257374
 33
0
  0
SOLID
  5
BF
100
AcDbEntity
  8
Dimensions
  6
ByBlock
 62
  256
370
   -1
100
AcDbTrace
 10
52
 20
61.05479565146016
 30
0
 11
50.75
 21
60.84665332257374
 31
0
 12
50.75
 22
61.26293798034658
 32
0
 13
50.75
 23
61.26293798034658
 33
0
  0
LINE
  5
C0
100
AcDbEntity
  8
Dimensions
  6
ByBlock
 62
  256
370
   -1
100
AcDbLine
 10
35
 20
58.8125
 11
35
 21
64.17979565146015
  0
LINE
  5
C1
100
AcDbEntity
  8
Dimensions
  6
ByBlock
 62
  256
370
   -1
100
AcDbLine
 10
52
 20
58.8125
 11
52
 21
64.17979565146015
  0
ENDBLK
  5
73
330
71
100
AcDbEntity
  8
0
100
AcDbBlockEnd
  0
BLOCK
  5
75
330
74
100
AcDbEntity
  8
0
100
AcDbBlockBegin
  2
*D3
 70
    1
 10
0
 20
0
  3
*D3
  1

  0
LINE
  5
C2
100
AcDbEntity
  8
Dimensions
  6
ByBlock
 62
  256
370
   -1
100
AcDbLine
 10
16.5
 20
61.05479565146016
 11
33.5
 21
61.05479565146016
  0
MTEXT
  5
C3
100
AcDbEntity
  8
Dimensions
  6
CONTINUOUS
 62
  256
370
   -2
100
AcDbMText
 10
25
 20
62.61729565146016
 30
0
 40
1.875
 41
6.875000625
 71
    5
 72
    1
  1
17.00
  7
romans
210
0
220
0
230
1
 50
0
 73
    2
 44
1
  0
SOLID
  5
C4
100
AcDbEntity
  8
Dimensions
  6
ByBlock
 62
  256
370
   -1
100
AcDbTrace
 10
16.5
 20
61.05479565146016
 30
0
 11
17.75
 21
61.26293798034658
 31
0
 12
17.75
 22
60.84665332257374
 32
0
 13
17.75
 23
60.84665332257374
 33
0
  0
SOLID
  5
C5
100
AcDbEntity
  8
Dimensions
  6
ByBlock
 62
  256
370
   -1
100
AcDbTrace
 10
33.5
 20
61.05479565146016
 30
0
 11
32.25
 21
60.84665332257374
 31
0
 12
32.25
 22
61.26293798034658
 32
0
 13
32.25
 23
61.26293798034658
 33
0
  0
LINE
  5
C6
100
AcDbEntity
  8
Dimensions
  6
ByBlock
 62
  256
370
   -1
100
AcDbLine
 10
16.5
 20
58.8125
 11
16.5
 21
64.17979565146015
  0
LINE
  5
C7
100
AcDbEntity
  8
Dimensions
  6
ByBlock
 62
  256
370
   -1
100
AcDbLine
 10
33.5
 20
58.8125
 11
33.5
 21
64.17979565146015
  0
ENDBLK
  5
76
330
74
100
AcDbEntity
  8
0
100
AcDbBlockEnd
  0
BLOCK
  5
78
330
77
100
AcDbEntity
  8
0
100
AcDbBlockBegin
  2
*D11
 70
    1
 10
0
 20
0
  3
*D11
  1

  0
LINE
  5
C8
100
AcDbEntity
  8
Dimensions
  6
ByBlock
 62
  256
370
   -1
100
AcDbLine
 10
9.407846587498438
 20
27.25
 11
9.407846587498438
 21
40.75
  0
MTEXT
  5
C9
100
AcDbEntity
  8
Dimensions
  6
CONTINUOUS
 62
  256
370
   -2
100
AcDbMText
 10
7.845346587498438
 20
34
 30
0
 40
1.875
 41
6.875000625
 71
    5
 72
    1
  1
13.50
  7
romans
210
0
220
0
230
1
 50
90
 73
    2
 44
1
  0
SOLID
  5
CA
100
AcDbEntity
  8
Dimensions
  6
ByBlock
 62
  256
370
   -1
100
AcDbTrace
 10
9.407846587498438
 20
27.25
 30
0
 11
9.199704258612018
 21
28.5
 31
0
 12
9.615988916384859
 22
28.5
 32
0
 13
9.615988916384859
 23
28.5
 33
0
  0
SOLID
  5
CB
100
AcDbEntity
  8
Dimensions
  6
ByBlock
 62
  256
370
   -1
100
AcDbTrace
 10
9.407846587498438
 20
40.75
 30
0
 11
9.615988916384859
 21
39.5
 31
0
 12
9.199704258612018
 22
39.5
 32
0
 13
9.199704258612018
 23
39.5
 33
0
  0
LINE
  5
CC
100
AcDbEntity
  8
Dimensions
  6
ByBlock
 62
  256
370
   -1
100
AcDbLine
 10
11.27162681376911
 20
27.25
 11
6.282846587498438
 21
27.25
  0
LINE
  5
CD
100
AcDbEntity
  8
Dimensions
  6
ByBlock
 62
  256
370
   -1
100
AcDbLine
 10
12.39350617989314
 20
40.75
 11
6.282846587498438
 21
40.75
  0
ENDBLK
  5
79
330
77
100
AcDbEntity
  8
0
100
AcDbBlockEnd
  0
BLOCK
  5
7B
330
7A
100
AcDbEntity
  8
0
100
AcDbBlockBegin
  2
*D12
 70
    1
 10
0
 20
0
  3
*D12
  1

  0
LINE
  5
CE
100
AcDbEntity
  8
Dimensions
  6
ByBlock
 62
  256
370
   -1
100
AcDbLine
 10
9.529130843295633
 20
43.25
 11
9.529130843295633
 21
59.25
  0
MTEXT
  5
CF
100
AcDbEntity
  8
Dimensions
  6
CONTINUOUS
 62
  256
370
   -2
100
AcDbMText
 10
7.966630843295633
 20
51.25
 30
0
 40
1.875
 41
6.785715208333334
 71
    5
 72
    1
  1
16.00
  7
romans
210
0
220
0
230
1
 50
90
 73
    2
 44
1
  0
SOLID
  5
D0
100
AcDbEntity
  8
Dimensions
  6
ByBlock
 62
  256
370
   -1
100
AcDbTrace
 10
9.529130843295633
 20
43.25
 30
0
 11
9.320988514409212
 21
44.5
 31
0
 12
9.737273172182054
 22
44.5
 32
0
 13
9.737273172182054
 23
44.5
 33
0
  0
SOLID
  5
D1
100
AcDbEntity
  8
Dimensions
  6
ByBlock
 62
  256
370
   -1
100
AcDbTrace
 10
9.529130843295633
 20
59.25
 30
0
 11
9.737273172182054
 21
58
 31
0
 12
9.320988514409212
 22
58
 32
0
 13
9.320988514409212
 23
58
 33
0
  0
LINE
  5
D2
100
AcDbEntity
  8
Dimensions
  6
ByBlock
 62
  256
370
   -1
100
AcDbLine
 10
12.30254298804524
 20
43.25
 11
6.404130843295633
 21
43.25
  0
LINE
  5
D3
100
AcDbEntity
  8
Dimensions
  6
ByBlock
 62
  256
370
   -1
100
AcDbLine
 10
12.12061660434945
 20
59.25
 11
6.404130843295633
 21
59.25
  0
ENDBLK
  5
7C
330
7A
100
AcDbEntity
  8
0
100
AcDbBlockEnd
  0
BLOCK
  5
7E
330
7D
100
AcDbEntity
  8
0
100
AcDbBlockBegin
  2
*D6
 70
    1
 10
0
 20
0
  3
*D6
  1

  0
LINE
  5
D4
100
AcDbEntity
  8
Dimensions
  6
ByBlock
 62
  256
370
   -1
100
AcDbLine
 10
72
 20
61.05479565146016
 11
89
 21
61.05479565146016
  0
MTEXT
  5
D5
100
AcDbEntity
  8
Dimensions
  6
CONTINUOUS
 62
  256
370
   -2
100
AcDbMText
 10
80.5
 20
62.61729565146016
 30
0
 40
1.875
 41
6.875000625
 71
    5
 72
    1
  1
17.00
  7
romans
210
0
220
0
230
1
 50
0
 73
    2
 44
1
  0
SOLID
  5
D6
100
AcDbEntity
  8
Dimensions
  6
ByBlock
 62
  256
370
   -1
100
AcDbTrace
 10
72
 20
61.05479565146016
 30
0
 11
73.25
 21
61.26293798034658
 31
0
 12
73.25
 22
60.84665332257374
 32
0
 13
73.25
 23
60.84665332257374
 33
0
  0
SOLID
  5
D7
100
AcDbEntity
  8
Dimensions
  6
ByBlock
 62
  256
370
   -1
100
AcDbTrace
 10
89
 20
61.05479565146016
 30
0
 11
87.75
 21
60.84665332257374
 31
0
 12
87.75
 22
61.26293798034658
 32
0
 13
87.75
 23
61.26293798034658
 33
0
  0
LINE
  5
D8
100
AcDbEntity
  8
Dimensions
  6
ByBlock
 62
  256
370
   -1
100
AcDbLine
 10
72
 20
58.81250000000002
 11
72
 21
64.17979565146015
  0
LINE
  5
D9
100
AcDbEntity
  8
Dimensions
  6
ByBlock
 62
  256
370
   -1
100
AcDbLine
 10
89
 20
58.81250000000003
 11
89
 21
64.17979565146015
  0
ENDBLK
  5
7F
330
7D
100
AcDbEntity
  8
0
100
AcDbBlockEnd
  0
BLOCK
  5
81
330
80
100
AcDbEntity
  8
0
100
AcDbBlockBegin
  2
*D15
 70
    1
 10
0
 20
0
  3
*D15
  1

  0
LINE
  5
DA
100
AcDbEntity
  8
Dimensions
  6
ByBlock
 62
  256
370
   -1
100
AcDbLine
 10
97.80106952554117
 20
39.25000000000003
 11
97.80106952554117
 21
57.25000000000003
  0
MTEXT
  5
DB
100
AcDbEntity
  8
Dimensions
  6
CONTINUOUS
 62
  256
370
   -2
100
AcDbMText
 10
96.23856952554117
 20
48.25000000000003
 30
0
 40
1.875
 41
6.875000625
 71
    5
 72
    1
  1
18.00
  7
romans
210
0
220
0
230
1
 50
90
 73
    2
 44
1
  0
SOLID
  5
DC
100
AcDbEntity
  8
Dimensions
  6
ByBlock
 62
  256
370
   -1
100
AcDbTrace
 10
97.80106952554117
 20
39.25000000000003
 30
0
 11
97.59292719665474
 21
40.50000000000003
 31
0
 12
98.00921185442759
 22
40.50000000000003
 32
0
 13
98.00921185442759
 23
40.50000000000003
 33
0
  0
SOLID
  5
DD
100
AcDbEntity
  8
Dimensions
  6
ByBlock
 62
  256
370
   -1
100
AcDbTrace
 10
97.80106952554117
 20
57.25000000000003
 30
0
 11
98.00921185442759
 21
56.00000000000003
 31
0
 12
97.59292719665474
 22
56.00000000000003
 32
0
 13
97.59292719665474
 23
56.00000000000003
 33
0
  0
LINE
  5
DE
100
AcDbEntity
  8
Dimensions
  6
ByBlock
 62
  256
370
   -1
100
AcDbLine
 10
92.06250000000001
 20
39.25000000000003
 11
100.9260695255412
 21
39.25000000000003
  0
LINE
  5
DF
100
AcDbEntity
  8
Dimensions
  6
ByBlock
 62
  256
370
   -1
100
AcDbLine
 10
92.0625
 20
57.25000000000003
 11
100.9260695255412
 21
57.25000000000003
  0
ENDBLK
  5
82
330
80
100
AcDbEntity
  8
0
100
AcDbBlockEnd
  0
BLOCK
  5
84
330
83
100
AcDbEntity
  8
0
100
AcDbBlockBegin
  2
*D16
 70
    1
 10
0
 20
0
  3
*D16
  1

  0
LINE
  5
E0
100
AcDbEntity
  8
Dimensions
  6
ByBlock
 62
  256
370
   -1
100
AcDbLine
 10
97.79009806690939
 20
54.75000000000003
 11
97.79009806690939
 21
61.75000000000004
  0
MTEXT
  5
E1
100
AcDbEntity
  8
Dimensions
  6
CONTINUOUS
 62
  256
370
   -2
100
AcDbMText
 10
96.22759806690939
 20
62.7767857291667
 30
0
 40
1.875
 41
5.803571458333334
 71
    5
 72
    1
  1
2.00
  7
romans
210
0
220
0
230
1
 50
90
 73
    2
 44
1
  0
SOLID
  5
E2
100
AcDbEntity
  8
Dimensions
  6
ByBlock
 62
  256
370
   -1
100
AcDbTrace
 10
97.79009806690939
 20
57.25000000000003
 30
0
 11
97.99824039579582
 21
56.00000000000003
 31
0
 12
97.58195573802297
 22
56.00000000000003
 32
0
 13
97.58195573802297
 23
56.00000000000003
 33
0
  0
SOLID
  5
E3
100
AcDbEntity
  8
Dimensions
  6
ByBlock
 62
  256
370
   -1
100
AcDbTrace
 10
97.79009806690939
 20
59.25000000000004
 30
0
 11
97.58195573802297
 21
60.50000000000004
 31
0
 12
97.99824039579582
 22
60.50000000000004
 32
0
 13
97.99824039579582
 23
60.50000000000004
 33
0
  0
LINE
  5
E4
100
AcDbEntity
  8
Dimensions
  6
ByBlock
 62
  256
370
   -1
100
AcDbLine
 10
91.51232295600911
 20
57.25000000000003
 11
100.9150980669094
 21
57.25000000000003
  0
LINE
  5
E5
100
AcDbEntity
  8
Dimensions
  6
ByBlock
 62
  256
370
   -1
100
AcDbLine
 10
93.29905231801699
 20
59.25000000000004
 11
100.9150980669094
 21
59.25000000000004
  0
ENDBLK
  5
85
330
83
100
AcDbEntity
  8
0
100
AcDbBlockEnd
  0
BLOCK
  5
87
330
86
100
AcDbEntity
  8
0
100
AcDbBlockBegin
  2
BorderTemplate - Letter_Landscape
 70
    0
 10
0
 20
0
  3
BorderTemplate - Letter_Landscape
  1

  0
LINE
  5
E6
100
AcDbEntity
  8
Paper_Format
  6
ByLayer
 62
  256
370
   -1
100
AcDbLine
 10
0
 20
0
 11
11
 21
0
  0
LINE
  5
E7
100
AcDbEntity
  8
Paper_Format
  6
ByLayer
 62
  256
370
   -1
100
AcDbLine
 10
11
 20
0
 11
11
 21
8.5
  0
LINE
  5
E8
100
AcDbEntity
  8
Paper_Format
  6
ByLayer
 62
  256
370
   -1
100
AcDbLine
 10
11
 20
8.5
 11
0
 21
8.5
  0
LINE
  5
E9
100
AcDbEntity
  8
Paper_Format
  6
ByLayer
 62
  256
370
   -1
100
AcDbLine
 10
0
 20
8.5
 11
0
 21
0
  0
LINE
  5
EA
100
AcDbEntity
  8
Drawing_Border
  6
ByLayer
 62
  256
370
   -1
100
AcDbLine
 10
10.625
 20
8.125
 11
0.625
 21
8.125
  0
LINE
  5
EB
100
AcDbEntity
  8
Drawing_Border
  6
ByLayer
 62
  256
370
   -1
100
AcDbLine
 10
10.625
 20
0.375
 11
10.625
 21
8.125
  0
LINE
  5
EC
100
AcDbEntity
  8
Drawing_Border
  6
ByLayer
 62
  256
370
   -1
100
AcDbLine
 10
0.625
 20
8.125
 11
0.625
 21
0.375
  0
LINE
  5
ED
100
AcDbEntity
  8
Drawing_Border
  6
ByLayer
 62
  256
370
   -1
100
AcDbLine
 10
0.625
 20
0.375
 11
10.625
 21
0.375
  0
LINE
  5
EE
100
AcDbEntity
  8
Drawing_Border
  6
ByLayer
 62
  256
370
   70
100
AcDbLine
 10
10.75
 20
8.25
 11
0.5
 21
8.25
  0
LINE
  5
EF
100
AcDbEntity
  8
Drawing_Border
  6
ByLayer
 62
  256
370
   70
100
AcDbLine
 10
10.75
 20
0.25
 11
10.75
 21
8.25
  0
LINE
  5
F0
100
AcDbEntity
  8
Drawing_Border
  6
ByLayer
 62
  256
370
   70
100
AcDbLine
 10
0.5
 20
8.25
 11
0.5
 21
0.25
  0
LINE
  5
F1
100
AcDbEntity
  8
Drawing_Border
  6
ByLayer
 62
  256
370
   70
100
AcDbLine
 10
0.5
 20
0.25
 11
10.75
 21
0.25
  0
LINE
  5
F2
100
AcDbEntity
  8
Drawing_Border
  6
ByLayer
 62
  256
370
   -1
100
AcDbLine
 10
3.958333333333334
 20
8.125
 11
3.958333333333334
 21
8.25
  0
LINE
  5
F3
100
AcDbEntity
  8
Drawing_Border
  6
ByLayer
 62
  256
370
   -1
100
AcDbLine
 10
3.958333333333334
 20
8.125
 11
3.958333333333334
 21
8.25
  0
LINE
  5
F4
100
AcDbEntity
  8
Drawing_Border
  6
ByLayer
 62
  256
370
   -1
100
AcDbLine
 10
7.291666666666667
 20
8.125
 11
7.291666666666667
 21
8.25
  0
LINE
  5
F5
100
AcDbEntity
  8
Drawing_Border
  6
ByLayer
 62
  256
370
   -1
100
AcDbLine
 10
0.625
 20
4.25
 11
0.5
 21
4.25
  0
MTEXT
  5
F6
100
AcDbEntity
  8
Paper_Format
  6
ByLayer
 62
  256
370
   -1
100
AcDbMText
 10
0.625
 20
4.25
 30
0
 40
0.0625
 41
0.01488097222222222
 71
    5
 72
    1
  1
1
  7
romans
210
0
220
0
230
1
 50
0
 73
    2
 44
1
  0
MTEXT
  5
F7
100
AcDbEntity
  8
Drawing_Border
  6
ByLayer
 62
  256
370
   -1
100
AcDbMText
 10
2.291666666666667
 20
8.1875
 30
0
 40
0.0625
 41
0.04761902777777778
 71
    5
 72
    1
  1
A
  7
romans
210
0
220
0
230
1
 50
0
 73
    2
 44
1
  0
MTEXT
  5
F8
100
AcDbEntity
  8
Drawing_Border
  6
ByLayer
 62
  256
370
   -1
100
AcDbMText
 10
5.625
 20
8.1875
 30
0
 40
0.0625
 41
0.04166666666666667
 71
    5
 72
    1
  1
B
  7
romans
210
0
220
0
230
1
 50
0
 73
    2
 44
1
  0
MTEXT
  5
F9
100
AcDbEntity
  8
Drawing_Border
  6
ByLayer
 62
  256
370
   -1
100
AcDbMText
 10
8.958333333333334
 20
8.1875
 30
0
 40
0.0625
 41
0.04464284722222221
 71
    5
 72
    1
  1
C
  7
romans
210
0
220
0
230
1
 50
0
 73
    2
 44
1
  0
MTEXT
  5
FA
100
AcDbEntity
  8
Drawing_Border
  6
ByLayer
 62
  256
370
   -1
100
AcDbMText
 10
0.5625
 20
6.1875
 30
0
 40
0.0625
 41
0.01488097222222222
 71
    5
 72
    1
  1
1
  7
romans
210
0
220
0
230
1
 50
0
 73
    2
 44
1
  0
MTEXT
  5
FB
100
AcDbEntity
  8
Drawing_Border
  6
ByLayer
 62
  256
370
   -1
100
AcDbMText
 10
0.5625
 20
2.3125
 30
0
 40
0.0625
 41
0.04166666666666667
 71
    5
 72
    1
  1
2
  7
romans
210
0
220
0
230
1
 50
0
 73
    2
 44
1
  0
LWPOLYLINE
  5
FC
100
AcDbEntity
  8
Drawing_Border
  6
ByLayer
 62
  256
370
   -1
100
AcDbPolyline
 90
    4
 70
    1
 43
0
 10
10.625
 20
1.25
 10
10.6875
 20
1.25
 10
10.6875
 20
7.25
 10
10.625
 20
7.25
  0
LINE
  5
FD
100
AcDbEntity
  8
Title_Block
  6
ByLayer
 62
  256
370
   -1
100
AcDbLine
 10
0.625
 20
0.375
 11
0.875
 21
0.375
  0
LINE
  5
FE
100
AcDbEntity
  8
Title_Block
  6
ByLayer
 62
  256
370
   -1
100
AcDbLine
 10
0.875
 20
0.75
 11
0.625
 21
0.75
  0
LINE
  5
FF
100
AcDbEntity
  8
Title_Block
  6
ByLayer
 62
  256
370
   -1
100
AcDbLine
 10
0.625
 20
0.75
 11
0.625
 21
0.375
  0
LINE
  5
100
100
AcDbEntity
  8
Title_Block
  6
ByLayer
 62
  256
370
   -1
100
AcDbLine
 10
0.875
 20
0.375
 11
1.125
 21
0.375
  0
LINE
  5
101
100
AcDbEntity
  8
Title_Block
  6
ByLayer
 62
  256
370
   -1
100
AcDbLine
 10
1.125
 20
0.75
 11
0.875
 21
0.75
  0
LINE
  5
102
100
AcDbEntity
  8
Title_Block
  6
ByLayer
 62
  256
370
   -1
100
AcDbLine
 10
1.125
 20
0.375
 11
1.375
 21
0.375
  0
LINE
  5
103
100
AcDbEntity
  8
Title_Block
  6
ByLayer
 62
  256
370
   -1
100
AcDbLine
 10
1.375
 20
0.75
 11
1.125
 21
0.75
  0
LINE
  5
104
100
AcDbEntity
  8
Title_Block
  6
ByLayer
 62
  256
370
   -1
100
AcDbLine
 10
1.375
 20
0.375
 11
1.625
 21
0.375
  0
LINE
  5
105
100
AcDbEntity
  8
Title_Block
  6
ByLayer
 62
  256
370
   -1
100
AcDbLine
 10
1.625
 20
0.75
 11
1.375
 21
0.75
  0
LINE
  5
106
100
AcDbEntity
  8
Title_Block
  6
ByLayer
 62
  256
370
   -1
100
AcDbLine
 10
1.625
 20
0.375
 11
1.875
 21
0.375
  0
LINE
  5
107
100
AcDbEntity
  8
Title_Block
  6
ByLayer
 62
  256
370
   -1
100
AcDbLine
 10
1.875
 20
0.375
 11
1.875
 21
0.75
  0
LINE
  5
108
100
AcDbEntity
  8
Title_Block
  6
ByLayer
 62
  256
370
   -1
100
AcDbLine
 10
1.875
 20
0.75
 11
1.625
 21
0.75
  0
LINE
  5
109
100
AcDbEntity
  8
Title_Block
  6
ByLayer
 62
  256
370
   -1
100
AcDbLine
 10
1.875
 20
0.375
 11
2.125
 21
0.375
  0
LINE
  5
10A
100
AcDbEntity
  8
Title_Block
  6
ByLayer
 62
  256
370
   -1
100
AcDbLine
 10
2.125
 20
0.75
 11
1.875
 21
0.75
  0
LINE
  5
10B
100
AcDbEntity
  8
Title_Block
  6
ByLayer
 62
  256
370
   -1
100
AcDbLine
 10
1.875
 20
0.75
 11
1.875
 21
0.375
  0
LINE
  5
10C
100
AcDbEntity
  8
Title_Block
  6
ByLayer
 62
  256
370
   -1
100
AcDbLine
 10
2.125
 20
0.375
 11
2.375
 21
0.375
  0
LINE
  5
10D
100
AcDbEntity
  8
Title_Block
  6
ByLayer
 62
  256
370
   -1
100
AcDbLine
 10
2.375
 20
0.75
 11
2.125
 21
0.75
  0
LINE
  5
10E
100
AcDbEntity
  8
Title_Block
  6
ByLayer
 62
  256
370
   -1
100
AcDbLine
 10
2.375
 20
0.375
 11
2.625
 21
0.375
  0
LINE
  5
10F
100
AcDbEntity
  8
Title_Block
  6
ByLayer
 62
  256
370
   -1
100
AcDbLine
 10
2.625
 20
0.75
 11
2.375
 21
0.75
  0
LINE
  5
110
100
AcDbEntity
  8
Title_Block
  6
ByLayer
 62
  256
370
   -1
100
AcDbLine
 10
2.625
 20
0.375
 11
2.875
 21
0.375
  0
LINE
  5
111
100
AcDbEntity
  8
Title_Block
  6
ByLayer
 62
  256
370
   -1
100
AcDbLine
 10
2.875
 20
0.75
 11
2.625
 21
0.75
  0
LINE
  5
112
100
AcDbEntity
  8
Title_Block
  6
ByLayer
 62
  256
370
   -1
100
AcDbLine
 10
2.875
 20
0.375
 11
3.125
 21
0.375
  0
LINE
  5
113
100
AcDbEntity
  8
Title_Block
  6
ByLayer
 62
  256
370
   -1
100
AcDbLine
 10
3.125
 20
0.75
 11
2.875
 21
0.75
  0
LINE
  5
114
100
AcDbEntity
  8
Title_Block
  6
ByLayer
 62
  256
370
   -1
100
AcDbLine
 10
3.125
 20
0.375
 11
3.375
 21
0.375
  0
LINE
  5
115
100
AcDbEntity
  8
Title_Block
  6
ByLayer
 62
  256
370
   -1
100
AcDbLine
 10
3.375
 20
0.375
 11
3.375
 21
0.75
  0
LINE
  5
116
100
AcDbEntity
  8
Title_Block
  6
ByLayer
 62
  256
370
   -1
100
AcDbLine
 10
3.375
 20
0.75
 11
3.125
 21
0.75
  0
LINE
  5
117
100
AcDbEntity
  8
Title_Block
  6
ByLayer
 62
  256
370
   -1
100
AcDbLine
 10
3.375
 20
0.375
 11
3.625
 21
0.375
  0
LINE
  5
118
100
AcDbEntity
  8
Title_Block
  6
ByLayer
 62
  256
370
   -1
100
AcDbLine
 10
3.625
 20
0.75
 11
3.375
 21
0.75
  0
LINE
  5
119
100
AcDbEntity
  8
Title_Block
  6
ByLayer
 62
  256
370
   -1
100
AcDbLine
 10
3.375
 20
0.75
 11
3.375
 21
0.375
  0
LINE
  5
11A
100
AcDbEntity
  8
Title_Block
  6
ByLayer
 62
  256
370
   -1
100
AcDbLine
 10
3.625
 20
0.375
 11
3.875
 21
0.375
  0
LINE
  5
11B
100
AcDbEntity
  8
Title_Block
  6
ByLayer
 62
  256
370
   -1
100
AcDbLine
 10
3.875
 20
0.75
 11
3.625
 21
0.75
  0
LINE
  5
11C
100
AcDbEntity
  8
Title_Block
  6
ByLayer
 62
  256
370
   -1
100
AcDbLine
 10
3.875
 20
0.375
 11
4.125
 21
0.375
  0
LINE
  5
11D
100
AcDbEntity
  8
Title_Block
  6
ByLayer
 62
  256
370
   -1
100
AcDbLine
 10
4.125
 20
0.75
 11
3.875
 21
0.75
  0
LINE
  5
11E
100
AcDbEntity
  8
Title_Block
  6
ByLayer
 62
  256
370
   -1
100
AcDbLine
 10
4.125
 20
0.375
 11
4.375
 21
0.375
  0
LINE
  5
11F
100
AcDbEntity
  8
Title_Block
  6
ByLayer
 62
  256
370
   -1
100
AcDbLine
 10
4.375
 20
0.75
 11
4.125
 21
0.75
  0
LINE
  5
120
100
AcDbEntity
  8
Title_Block
  6
ByLayer
 62
  256
370
   -1
100
AcDbLine
 10
4.375
 20
0.375
 11
4.625
 21
0.375
  0
LINE
  5
121
100
AcDbEntity
  8
Title_Block
  6
ByLayer
 62
  256
370
   -1
100
AcDbLine
 10
4.625
 20
0.75
 11
4.375
 21
0.75
  0
LINE
  5
122
100
AcDbEntity
  8
Title_Block
  6
ByLayer
 62
  256
370
   -1
100
AcDbLine
 10
4.625
 20
0.375
 11
4.875
 21
0.375
  0
LINE
  5
123
100
AcDbEntity
  8
Title_Block
  6
ByLayer
 62
  256
370
   -1
100
AcDbLine
 10
4.875
 20
0.75
 11
4.625
 21
0.75
  0
LINE
  5
124
100
AcDbEntity
  8
Title_Block
  6
ByLayer
 62
  256
370
   -1
100
AcDbLine
 10
4.875
 20
0.375
 11
5.125
 21
0.375
  0
LINE
  5
125
100
AcDbEntity
  8
Title_Block
  6
ByLayer
 62
  256
370
   -1
100
AcDbLine
 10
5.125
 20
0.75
 11
4.875
 21
0.75
  0
LINE
  5
126
100
AcDbEntity
  8
Title_Block
  6
ByLayer
 62
  256
370
   -1
100
AcDbLine
 10
5.125
 20
0.375
 11
5.375
 21
0.375
  0
LINE
  5
127
100
AcDbEntity
  8
Title_Block
  6
ByLayer
 62
  256
370
   -1
100
AcDbLine
 10
5.375
 20
0.75
 11
5.125
 21
0.75
  0
LINE
  5
128
100
AcDbEntity
  8
Title_Block
  6
ByLayer
 62
  256
370
   -1
100
AcDbLine
 10
5.375
 20
0.375
 11
5.625
 21
0.375
  0
LINE
  5
129
100
AcDbEntity
  8
Title_Block
  6
ByLayer
 62
  256
370
   -1
100
AcDbLine
 10
5.625
 20
0.75
 11
5.375
 21
0.75
  0
LINE
  5
12A
100
AcDbEntity
  8
Title_Block
  6
ByLayer
 62
  256
370
   -1
100
AcDbLine
 10
5.625
 20
0.375
 11
5.875
 21
0.375
  0
LINE
  5
12B
100
AcDbEntity
  8
Title_Block
  6
ByLayer
 62
  256
370
   -1
100
AcDbLine
 10
5.875
 20
0.75
 11
5.625
 21
0.75
  0
LINE
  5
12C
100
AcDbEntity
  8
Title_Block
  6
ByLayer
 62
  256
370
   -1
100
AcDbLine
 10
5.875
 20
0.375
 11
6.125
 21
0.375
  0
LINE
  5
12D
100
AcDbEntity
  8
Title_Block
  6
ByLayer
 62
  256
370
   -1
100
AcDbLine
 10
6.125
 20
0.75
 11
5.875
 21
0.75
  0
LINE
  5
12E
100
AcDbEntity
  8
Title_Block
  6
ByLayer
 62
  256
370
   -1
100
AcDbLine
 10
6.125
 20
0.375
 11
6.375
 21
0.375
  0
LINE
  5
12F
100
AcDbEntity
  8
Title_Block
  6
ByLayer
 62
  256
370
   -1
100
AcDbLine
 10
6.375
 20
0.75
 11
6.125
 21
0.75
  0
LINE
  5
130
100
AcDbEntity
  8
Title_Block
  6
ByLayer
 62
  256
370
   -1
100
AcDbLine
 10
6.375
 20
0.375
 11
6.625
 21
0.375
  0
LINE
  5
131
100
AcDbEntity
  8
Title_Block
  6
ByLayer
 62
  256
370
   -1
100
AcDbLine
 10
6.625
 20
0.75
 11
6.375
 21
0.75
  0
LINE
  5
132
100
AcDbEntity
  8
Title_Block
  6
ByLayer
 62
  256
370
   -1
100
AcDbLine
 10
6.625
 20
0.375
 11
6.875
 21
0.375
  0
LINE
  5
133
100
AcDbEntity
  8
Title_Block
  6
ByLayer
 62
  256
370
   -1
100
AcDbLine
 10
6.875
 20
0.75
 11
6.625
 21
0.75
  0
LINE
  5
134
100
AcDbEntity
  8
Title_Block
  6
ByLayer
 62
  256
370
   -1
100
AcDbLine
 10
6.875
 20
0.375
 11
7.125
 21
0.375
  0
LINE
  5
135
100
AcDbEntity
  8
Title_Block
  6
ByLayer
 62
  256
370
   -1
100
AcDbLine
 10
7.125
 20
0.75
 11
6.875
 21
0.75
  0
LINE
  5
136
100
AcDbEntity
  8
Title_Block
  6
ByLayer
 62
  256
370
   -1
100
AcDbLine
 10
7.125
 20
0.375
 11
7.375
 21
0.375
  0
LINE
  5
137
100
AcDbEntity
  8
Title_Block
  6
ByLayer
 62
  256
370
   -1
100
AcDbLine
 10
7.375
 20
0.75
 11
7.125
 21
0.75
  0
LINE
  5
138
100
AcDbEntity
  8
Title_Block
  6
ByLayer
 62
  256
370
   -1
100
AcDbLine
 10
7.375
 20
0.375
 11
7.625
 21
0.375
  0
LINE
  5
139
100
AcDbEntity
  8
Title_Block
  6
ByLayer
 62
  256
370
   -1
100
AcDbLine
 10
7.625
 20
0.75
 11
7.375
 21
0.75
  0
LINE
  5
13A
100
AcDbEntity
  8
Title_Block
  6
ByLayer
 62
  256
370
   -1
100
AcDbLine
 10
7.625
 20
0.375
 11
7.875
 21
0.375
  0
LINE
  5
13B
100
AcDbEntity
  8
Title_Block
  6
ByLayer
 62
  256
370
   -1
100
AcDbLine
 10
7.875
 20
0.75
 11
7.625
 21
0.75
  0
LINE
  5
13C
100
AcDbEntity
  8
Title_Block
  6
ByLayer
 62
  256
370
   -1
100
AcDbLine
 10
7.875
 20
0.375
 11
8.125
 21
0.375
  0
LINE
  5
13D
100
AcDbEntity
  8
Title_Block
  6
ByLayer
 62
  256
370
   -1
100
AcDbLine
 10
8.125
 20
0.75
 11
7.875
 21
0.75
  0
LINE
  5
13E
100
AcDbEntity
  8
Title_Block
  6
ByLayer
 62
  256
370
   -1
100
AcDbLine
 10
8.125
 20
0.375
 11
8.375
 21
0.375
  0
LINE
  5
13F
100
AcDbEntity
  8
Title_Block
  6
ByLayer
 62
  256
370
   -1
100
AcDbLine
 10
8.375
 20
0.75
 11
8.125
 21
0.75
  0
LINE
  5
140
100
AcDbEntity
  8
Title_Block
  6
ByLayer
 62
  256
370
   -1
100
AcDbLine
 10
8.375
 20
0.375
 11
8.625
 21
0.375
  0
LINE
  5
141
100
AcDbEntity
  8
Title_Block
  6
ByLayer
 62
  256
370
   -1
100
AcDbLine
 10
8.625
 20
0.75
 11
8.375
 21
0.75
  0
LINE
  5
142
100
AcDbEntity
  8
Title_Block
  6
ByLayer
 62
  256
370
   -1
100
AcDbLine
 10
8.625
 20
0.375
 11
8.875
 21
0.375
  0
LINE
  5
143
100
AcDbEntity
  8
Title_Block
  6
ByLayer
 62
  256
370
   -1
100
AcDbLine
 10
8.875
 20
0.75
 11
8.625
 21
0.75
  0
LINE
  5
144
100
AcDbEntity
  8
Title_Block
  6
ByLayer
 62
  256
370
   -1
100
AcDbLine
 10
8.875
 20
0.375
 11
9.125
 21
0.375
  0
LINE
  5
145
100
AcDbEntity
  8
Title_Block
  6
ByLayer
 62
  256
370
   -1
100
AcDbLine
 10
9.125
 20
0.375
 11
9.125
 21
0.75
  0
LINE
  5
146
100
AcDbEntity
  8
Title_Block
  6
ByLayer
 62
  256
370
   -1
100
AcDbLine
 10
9.125
 20
0.75
 11
8.875
 21
0.75
  0
LINE
  5
147
100
AcDbEntity
  8
Title_Block
  6
ByLayer
 62
  256
370
   -1
100
AcDbLine
 10
9.125
 20
0.375
 11
9.375
 21
0.375
  0
LINE
  5
148
100
AcDbEntity
  8
Title_Block
  6
ByLayer
 62
  256
370
   -1
100
AcDbLine
 10
9.375
 20
0.75
 11
9.125
 21
0.75
  0
LINE
  5
149
100
AcDbEntity
  8
Title_Block
  6
ByLayer
 62
  256
370
   -1
100
AcDbLine
 10
9.125
 20
0.75
 11
9.125
 21
0.375
  0
LINE
  5
14A
100
AcDbEntity
  8
Title_Block
  6
ByLayer
 62
  256
370
   -1
100
AcDbLine
 10
9.375
 20
0.375
 11
9.625
 21
0.375
  0
LINE
  5
14B
100
AcDbEntity
  8
Title_Block
  6
ByLayer
 62
  256
370
   -1
100
AcDbLine
 10
9.625
 20
0.375
 11
9.625
 21
0.75
  0
LINE
  5
14C
100
AcDbEntity
  8
Title_Block
  6
ByLayer
 62
  256
370
   -1
100
AcDbLine
 10
9.625
 20
0.75
 11
9.375
 21
0.75
  0
LINE
  5
14D
100
AcDbEntity
  8
Title_Block
  6
ByLayer
 62
  256
370
   -1
100
AcDbLine
 10
9.625
 20
0.375
 11
9.875
 21
0.375
  0
LINE
  5
14E
100
AcDbEntity
  8
Title_Block
  6
ByLayer
 62
  256
370
   -1
100
AcDbLine
 10
9.875
 20
0.75
 11
9.625
 21
0.75
  0
LINE
  5
14F
100
AcDbEntity
  8
Title_Block
  6
ByLayer
 62
  256
370
   -1
100
AcDbLine
 10
9.625
 20
0.75
 11
9.625
 21
0.375
  0
LINE
  5
150
100
AcDbEntity
  8
Title_Block
  6
ByLayer
 62
  256
370
   -1
100
AcDbLine
 10
9.875
 20
0.375
 11
10.125
 21
0.375
  0
LINE
  5
151
100
AcDbEntity
  8
Title_Block
  6
ByLayer
 62
  256
370
   -1
100
AcDbLine
 10
10.125
 20
0.375
 11
10.125
 21
0.75
  0
LINE
  5
152
100
AcDbEntity
  8
Title_Block
  6
ByLayer
 62
  256
370
   -1
100
AcDbLine
 10
10.125
 20
0.75
 11
9.875
 21
0.75
  0
LINE
  5
153
100
AcDbEntity
  8
Title_Block
  6
ByLayer
 62
  256
370
   -1
100
AcDbLine
 10
10.125
 20
0.375
 11
10.375
 21
0.375
  0
LINE
  5
154
100
AcDbEntity
  8
Title_Block
  6
ByLayer
 62
  256
370
   -1
100
AcDbLine
 10
10.375
 20
0.75
 11
10.125
 21
0.75
  0
LINE
  5
155
100
AcDbEntity
  8
Title_Block
  6
ByLayer
 62
  256
370
   -1
100
AcDbLine
 10
10.125
 20
0.75
 11
10.125
 21
0.375
  0
LINE
  5
156
100
AcDbEntity
  8
Title_Block
  6
ByLayer
 62
  256
370
   -1
100
AcDbLine
 10
10.375
 20
0.375
 11
10.625
 21
0.375
  0
LINE
  5
157
100
AcDbEntity
  8
Title_Block
  6
ByLayer
 62
  256
370
   -1
100
AcDbLine
 10
10.625
 20
0.375
 11
10.625
 21
0.75
  0
LINE
  5
158
100
AcDbEntity
  8
Title_Block
  6
ByLayer
 62
  256
370
   -1
100
AcDbLine
 10
10.625
 20
0.75
 11
10.375
 21
0.75
  0
MTEXT
  5
159
100
AcDbEntity
  8
Title_Block
  6
ByLayer
 62
  256
370
   -1
100
AcDbMText
 10
0.65
 20
0.38
 30
0
 40
0.0625
 41
0.4605655069444444
 71
    7
 72
    1
  1
Drawn By:
  7
romans
210
0
220
0
230
1
 50
0
 73
    2
 44
1
  0
MTEXT
  5
15A
100
AcDbEntity
  8
Title_Block
  6
ByLayer
 62
  256
370
   -1
100
AcDbMText
 10
1.9
 20
0.4
 30
0
 40
0.0625
 41
0.2261905069444444
 71
    7
 72
    1
  1
Date:
  7
romans
210
0
220
0
230
1
 50
0
 73
    2
 44
1
  0
MTEXT
  5
15B
100
AcDbEntity
  8
Title_Block
  6
ByLayer
 62
  256
370
   -1
100
AcDbMText
 10
10.15
 20
0.4
 30
0
 40
0.0625
 41
0.2589286319444444
 71
    7
 72
    1
  1
Scale:
  7
romans
210
0
220
0
230
1
 50
0
 73
    2
 44
1
  0
MTEXT
  5
15C
100
AcDbEntity
  8
Title_Block
  6
ByLayer
 62
  256
370
   -1
100
AcDbMText
 10
9.65
 20
0.4
 30
0
 40
0.0625
 41
0.2797619652777777
 71
    7
 72
    1
  1
Sheet:
  7
romans
210
0
220
0
230
1
 50
0
 73
    2
 44
1
  0
MTEXT
  5
15D
100
AcDbEntity
  8
Title_Block
  6
ByLayer
 62
  256
370
   -1
100
AcDbMText
 10
9.150000000000002
 20
0.4
 30
0
 40
0.0625
 41
0.1815476597222222
 71
    7
 72
    1
  1
Rev:
  7
romans
210
0
220
0
230
1
 50
0
 73
    2
 44
1
  0
MTEXT
  5
15E
100
AcDbEntity
  8
Title_Block
  6
ByLayer
 62
  256
370
   -1
100
AcDbMText
 10
3.4
 20
0.4
 30
0
 40
0.0625
 41
0.2172619166666667
 71
    7
 72
    1
  1
Title:
  7
romans
210
0
220
0
230
1
 50
0
 73
    2
 44
1
  0
MTEXT
  5
15F
100
AcDbEntity
  8
Title_Block
  6
ByLayer
 62
  256
370
   -1
100
AcDbMText
 10
0.7153356414867768
 20
0.520244102899474
 30
0
 40
0.125
 41
0.9345240277777777
 71
    7
 72
    1
  1
wrcsubers
  7
romans
210
0
220
0
230
1
 50
0
 73
    2
 44
1
  0
MTEXT
  5
160
100
AcDbEntity
  8
Title_Block
  6
ByLayer
 62
  256
370
   -1
100
AcDbMText
 10
1.950430959998094
 20
0.5050377265840577
 30
0
 40
0.125
 41
1.148809722222222
 71
    7
 72
    1
  1
02/12/2021
  7
romans
210
0
220
0
230
1
 50
0
 73
    2
 44
1
  0
MTEXT
  5
161
100
AcDbEntity
  8
Title_Block
  6
ByLayer
 62
  256
370
   -1
100
AcDbMText
 10
3.558255747031964
 20
0.591695205479452
 30
0
 40
0.15
 41
3.069643366666667
 71
    4
 72
    1
  1
Kid's Bed - Rear Side Rail
  7
romans
210
0
220
0
230
1
 50
0
 73
    2
 44
1
  0
ENDBLK
  5
88
330
86
100
AcDbEntity
  8
0
100
AcDbBlockEnd
  0
BLOCK
  5
8A
330
89
100
AcDbEntity
  8
0
100
AcDbBlockBegin
  2
BorderTemplate - Letter_Landscape-0
 70
    0
 10
0
 20
0
  3
BorderTemplate - Letter_Landscape-0
  1

  0
LINE
  5
162
100
AcDbEntity
  8
Paper_Format
  6
ByLayer
 62
  256
370
   -1
100
AcDbLine
 10
-5.5
 20
-2.75
 11
115.5
 21
-2.75
  0
LINE
  5
163
100
AcDbEntity
  8
Paper_Format
  6
ByLayer
 62
  256
370
   -1
100
AcDbLine
 10
115.5
 20
-2.75
 11
115.5
 21
90.75
  0
LINE
  5
164
100
AcDbEntity
  8
Paper_Format
  6
ByLayer
 62
  256
370
   -1
100
AcDbLine
 10
115.5
 20
90.75
 11
-5.5
 21
90.75
  0
LINE
  5
165
100
AcDbEntity
  8
Paper_Format
  6
ByLayer
 62
  256
370
   -1
100
AcDbLine
 10
-5.5
 20
90.75
 11
-5.5
 21
-2.75
  0
LINE
  5
166
100
AcDbEntity
  8
Drawing_Border
  6
ByLayer
 62
  256
370
   -1
100
AcDbLine
 10
111.375
 20
86.625
 11
1.375
 21
86.625
  0
LINE
  5
167
100
AcDbEntity
  8
Drawing_Border
  6
ByLayer
 62
  256
370
   -1
100
AcDbLine
 10
111.375
 20
1.375
 11
111.375
 21
86.625
  0
LINE
  5
168
100
AcDbEntity
  8
Drawing_Border
  6
ByLayer
 62
  256
370
   -1
100
AcDbLine
 10
1.375
 20
86.625
 11
1.375
 21
1.375
  0
LINE
  5
169
100
AcDbEntity
  8
Drawing_Border
  6
ByLayer
 62
  256
370
   -1
100
AcDbLine
 10
1.375
 20
1.375
 11
111.375
 21
1.375
  0
LINE
  5
16A
100
AcDbEntity
  8
Drawing_Border
  6
ByLayer
 62
  256
370
   70
100
AcDbLine
 10
112.75
 20
88
 11
0
 21
88
  0
LINE
  5
16B
100
AcDbEntity
  8
Drawing_Border
  6
ByLayer
 62
  256
370
   70
100
AcDbLine
 10
112.75
 20
0
 11
112.75
 21
88
  0
LINE
  5
16C
100
AcDbEntity
  8
Drawing_Border
  6
ByLayer
 62
  256
370
   70
100
AcDbLine
 10
0
 20
88
 11
0
 21
0
  0
LINE
  5
16D
100
AcDbEntity
  8
Drawing_Border
  6
ByLayer
 62
  256
370
   70
100
AcDbLine
 10
0
 20
0
 11
112.75
 21
0
  0
LINE
  5
16E
100
AcDbEntity
  8
Drawing_Border
  6
ByLayer
 62
  256
370
   -1
100
AcDbLine
 10
38.04166666666667
 20
86.625
 11
38.04166666666667
 21
88
  0
LINE
  5
16F
100
AcDbEntity
  8
Drawing_Border
  6
ByLayer
 62
  256
370
   -1
100
AcDbLine
 10
38.04166666666667
 20
86.625
 11
38.04166666666667
 21
88
  0
LINE
  5
170
100
AcDbEntity
  8
Drawing_Border
  6
ByLayer
 62
  256
370
   -1
100
AcDbLine
 10
74.70833333333334
 20
86.625
 11
74.70833333333334
 21
88
  0
LINE
  5
171
100
AcDbEntity
  8
Drawing_Border
  6
ByLayer
 62
  256
370
   -1
100
AcDbLine
 10
1.375
 20
44
 11
0
 21
44
  0
MTEXT
  5
172
100
AcDbEntity
  8
Paper_Format
  6
ByLayer
 62
  256
370
   -1
100
AcDbMText
 10
1.375
 20
44
 30
0
 40
0.6875
 41
0.1636906944444445
 71
    5
 72
    1
  1
1
  7
romans
210
0
220
0
230
1
 50
0
 73
    2
 44
1
  0
MTEXT
  5
173
100
AcDbEntity
  8
Drawing_Border
  6
ByLayer
 62
  256
370
   -1
100
AcDbMText
 10
19.70833333333334
 20
87.3125
 30
0
 40
0.6875
 41
0.5238093055555556
 71
    5
 72
    1
  1
A
  7
romans
210
0
220
0
230
1
 50
0
 73
    2
 44
1
  0
MTEXT
  5
174
100
AcDbEntity
  8
Drawing_Border
  6
ByLayer
 62
  256
370
   -1
100
AcDbMText
 10
56.375
 20
87.3125
 30
0
 40
0.6875
 41
0.4583333333333334
 71
    5
 72
    1
  1
B
  7
romans
210
0
220
0
230
1
 50
0
 73
    2
 44
1
  0
MTEXT
  5
175
100
AcDbEntity
  8
Drawing_Border
  6
ByLayer
 62
  256
370
   -1
100
AcDbMText
 10
93.04166666666667
 20
87.3125
 30
0
 40
0.6875
 41
0.4910713194444445
 71
    5
 72
    1
  1
C
  7
romans
210
0
220
0
230
1
 50
0
 73
    2
 44
1
  0
MTEXT
  5
176
100
AcDbEntity
  8
Drawing_Border
  6
ByLayer
 62
  256
370
   -1
100
AcDbMText
 10
0.6875
 20
65.3125
 30
0
 40
0.6875
 41
0.1636906944444445
 71
    5
 72
    1
  1
1
  7
romans
210
0
220
0
230
1
 50
0
 73
    2
 44
1
  0
MTEXT
  5
177
100
AcDbEntity
  8
Drawing_Border
  6
ByLayer
 62
  256
370
   -1
100
AcDbMText
 10
0.6875
 20
22.6875
 30
0
 40
0.6875
 41
0.4583333333333334
 71
    5
 72
    1
  1
2
  7
romans
210
0
220
0
230
1
 50
0
 73
    2
 44
1
  0
LWPOLYLINE
  5
178
100
AcDbEntity
  8
Drawing_Border
  6
ByLayer
 62
  256
370
   -1
100
AcDbPolyline
 90
    4
 70
    1
 43
0
 10
111.375
 20
11
 10
112.0625
 20
11
 10
112.0625
 20
77
 10
111.375
 20
77
  0
LINE
  5
179
100
AcDbEntity
  8
Title_Block
  6
ByLayer
 62
  256
370
   -1
100
AcDbLine
 10
1.375
 20
1.375
 11
4.125
 21
1.375
  0
LINE
  5
17A
100
AcDbEntity
  8
Title_Block
  6
ByLayer
 62
  256
370
   -1
100
AcDbLine
 10
4.125
 20
5.5
 11
1.375
 21
5.5
  0
LINE
  5
17B
100
AcDbEntity
  8
Title_Block
  6
ByLayer
 62
  256
370
   -1
100
AcDbLine
 10
1.375
 20
5.5
 11
1.375
 21
1.375
  0
LINE
  5
17C
100
AcDbEntity
  8
Title_Block
  6
ByLayer
 62
  256
370
   -1
100
AcDbLine
 10
4.125
 20
1.375
 11
6.875
 21
1.375
  0
LINE
  5
17D
100
AcDbEntity
  8
Title_Block
  6
ByLayer
 62
  256
370
   -1
100
AcDbLine
 10
6.875
 20
5.5
 11
4.125
 21
5.5
  0
LINE
  5
17E
100
AcDbEntity
  8
Title_Block
  6
ByLayer
 62
  256
370
   -1
100
AcDbLine
 10
6.875
 20
1.375
 11
9.625
 21
1.375
  0
LINE
  5
17F
100
AcDbEntity
  8
Title_Block
  6
ByLayer
 62
  256
370
   -1
100
AcDbLine
 10
9.625
 20
5.5
 11
6.875
 21
5.5
  0
LINE
  5
180
100
AcDbEntity
  8
Title_Block
  6
ByLayer
 62
  256
370
   -1
100
AcDbLine
 10
9.625
 20
1.375
 11
12.375
 21
1.375
  0
LINE
  5
181
100
AcDbEntity
  8
Title_Block
  6
ByLayer
 62
  256
370
   -1
100
AcDbLine
 10
12.375
 20
5.5
 11
9.625
 21
5.5
  0
LINE
  5
182
100
AcDbEntity
  8
Title_Block
  6
ByLayer
 62
  256
370
   -1
100
AcDbLine
 10
12.375
 20
1.375
 11
15.125
 21
1.375
  0
LINE
  5
183
100
AcDbEntity
  8
Title_Block
  6
ByLayer
 62
  256
370
   -1
100
AcDbLine
 10
15.125
 20
1.375
 11
15.125
 21
5.5
  0
LINE
  5
184
100
AcDbEntity
  8
Title_Block
  6
ByLayer
 62
  256
370
   -1
100
AcDbLine
 10
15.125
 20
5.5
 11
12.375
 21
5.5
  0
LINE
  5
185
100
AcDbEntity
  8
Title_Block
  6
ByLayer
 62
  256
370
   -1
100
AcDbLine
 10
15.125
 20
1.375
 11
17.875
 21
1.375
  0
LINE
  5
186
100
AcDbEntity
  8
Title_Block
  6
ByLayer
 62
  256
370
   -1
100
AcDbLine
 10
17.875
 20
5.5
 11
15.125
 21
5.5
  0
LINE
  5
187
100
AcDbEntity
  8
Title_Block
  6
ByLayer
 62
  256
370
   -1
100
AcDbLine
 10
15.125
 20
5.5
 11
15.125
 21
1.375
  0
LINE
  5
188
100
AcDbEntity
  8
Title_Block
  6
ByLayer
 62
  256
370
   -1
100
AcDbLine
 10
17.875
 20
1.375
 11
20.625
 21
1.375
  0
LINE
  5
189
100
AcDbEntity
  8
Title_Block
  6
ByLayer
 62
  256
370
   -1
100
AcDbLine
 10
20.625
 20
5.5
 11
17.875
 21
5.5
  0
LINE
  5
18A
100
AcDbEntity
  8
Title_Block
  6
ByLayer
 62
  256
370
   -1
100
AcDbLine
 10
20.625
 20
1.375
 11
23.375
 21
1.375
  0
LINE
  5
18B
100
AcDbEntity
  8
Title_Block
  6
ByLayer
 62
  256
370
   -1
100
AcDbLine
 10
23.375
 20
5.5
 11
20.625
 21
5.5
  0
LINE
  5
18C
100
AcDbEntity
  8
Title_Block
  6
ByLayer
 62
  256
370
   -1
100
AcDbLine
 10
23.375
 20
1.375
 11
26.125
 21
1.375
  0
LINE
  5
18D
100
AcDbEntity
  8
Title_Block
  6
ByLayer
 62
  256
370
   -1
100
AcDbLine
 10
26.125
 20
5.5
 11
23.375
 21
5.5
  0
LINE
  5
18E
100
AcDbEntity
  8
Title_Block
  6
ByLayer
 62
  256
370
   -1
100
AcDbLine
 10
26.125
 20
1.375
 11
28.875
 21
1.375
  0
LINE
  5
18F
100
AcDbEntity
  8
Title_Block
  6
ByLayer
 62
  256
370
   -1
100
AcDbLine
 10
28.875
 20
5.5
 11
26.125
 21
5.5
  0
LINE
  5
190
100
AcDbEntity
  8
Title_Block
  6
ByLayer
 62
  256
370
   -1
100
AcDbLine
 10
28.875
 20
1.375
 11
31.625
 21
1.375
  0
LINE
  5
191
100
AcDbEntity
  8
Title_Block
  6
ByLayer
 62
  256
370
   -1
100
AcDbLine
 10
31.625
 20
1.375
 11
31.625
 21
5.5
  0
LINE
  5
192
100
AcDbEntity
  8
Title_Block
  6
ByLayer
 62
  256
370
   -1
100
AcDbLine
 10
31.625
 20
5.5
 11
28.875
 21
5.5
  0
LINE
  5
193
100
AcDbEntity
  8
Title_Block
  6
ByLayer
 62
  256
370
   -1
100
AcDbLine
 10
31.625
 20
1.375
 11
34.375
 21
1.375
  0
LINE
  5
194
100
AcDbEntity
  8
Title_Block
  6
ByLayer
 62
  256
370
   -1
100
AcDbLine
 10
34.375
 20
5.5
 11
31.625
 21
5.5
  0
LINE
  5
195
100
AcDbEntity
  8
Title_Block
  6
ByLayer
 62
  256
370
   -1
100
AcDbLine
 10
31.625
 20
5.5
 11
31.625
 21
1.375
  0
LINE
  5
196
100
AcDbEntity
  8
Title_Block
  6
ByLayer
 62
  256
370
   -1
100
AcDbLine
 10
34.375
 20
1.375
 11
37.125
 21
1.375
  0
LINE
  5
197
100
AcDbEntity
  8
Title_Block
  6
ByLayer
 62
  256
370
   -1
100
AcDbLine
 10
37.125
 20
5.5
 11
34.375
 21
5.5
  0
LINE
  5
198
100
AcDbEntity
  8
Title_Block
  6
ByLayer
 62
  256
370
   -1
100
AcDbLine
 10
37.125
 20
1.375
 11
39.875
 21
1.375
  0
LINE
  5
199
100
AcDbEntity
  8
Title_Block
  6
ByLayer
 62
  256
370
   -1
100
AcDbLine
 10
39.875
 20
5.5
 11
37.125
 21
5.5
  0
LINE
  5
19A
100
AcDbEntity
  8
Title_Block
  6
ByLayer
 62
  256
370
   -1
100
AcDbLine
 10
39.875
 20
1.375
 11
42.625
 21
1.375
  0
LINE
  5
19B
100
AcDbEntity
  8
Title_Block
  6
ByLayer
 62
  256
370
   -1
100
AcDbLine
 10
42.625
 20
5.5
 11
39.875
 21
5.5
  0
LINE
  5
19C
100
AcDbEntity
  8
Title_Block
  6
ByLayer
 62
  256
370
   -1
100
AcDbLine
 10
42.625
 20
1.375
 11
45.375
 21
1.375
  0
LINE
  5
19D
100
AcDbEntity
  8
Title_Block
  6
ByLayer
 62
  256
370
   -1
100
AcDbLine
 10
45.375
 20
5.5
 11
42.625
 21
5.5
  0
LINE
  5
19E
100
AcDbEntity
  8
Title_Block
  6
ByLayer
 62
  256
370
   -1
100
AcDbLine
 10
45.375
 20
1.375
 11
48.125
 21
1.375
  0
LINE
  5
19F
100
AcDbEntity
  8
Title_Block
  6
ByLayer
 62
  256
370
   -1
100
AcDbLine
 10
48.125
 20
5.5
 11
45.375
 21
5.5
  0
LINE
  5
1A0
100
AcDbEntity
  8
Title_Block
  6
ByLayer
 62
  256
370
   -1
100
AcDbLine
 10
48.125
 20
1.375
 11
50.875
 21
1.375
  0
LINE
  5
1A1
100
AcDbEntity
  8
Title_Block
  6
ByLayer
 62
  256
370
   -1
100
AcDbLine
 10
50.875
 20
5.5
 11
48.125
 21
5.5
  0
LINE
  5
1A2
100
AcDbEntity
  8
Title_Block
  6
ByLayer
 62
  256
370
   -1
100
AcDbLine
 10
50.875
 20
1.375
 11
53.625
 21
1.375
  0
LINE
  5
1A3
100
AcDbEntity
  8
Title_Block
  6
ByLayer
 62
  256
370
   -1
100
AcDbLine
 10
53.625
 20
5.5
 11
50.875
 21
5.5
  0
LINE
  5
1A4
100
AcDbEntity
  8
Title_Block
  6
ByLayer
 62
  256
370
   -1
100
AcDbLine
 10
53.625
 20
1.375
 11
56.375
 21
1.375
  0
LINE
  5
1A5
100
AcDbEntity
  8
Title_Block
  6
ByLayer
 62
  256
370
   -1
100
AcDbLine
 10
56.375
 20
5.5
 11
53.625
 21
5.5
  0
LINE
  5
1A6
100
AcDbEntity
  8
Title_Block
  6
ByLayer
 62
  256
370
   -1
100
AcDbLine
 10
56.375
 20
1.375
 11
59.125
 21
1.375
  0
LINE
  5
1A7
100
AcDbEntity
  8
Title_Block
  6
ByLayer
 62
  256
370
   -1
100
AcDbLine
 10
59.125
 20
5.5
 11
56.375
 21
5.5
  0
LINE
  5
1A8
100
AcDbEntity
  8
Title_Block
  6
ByLayer
 62
  256
370
   -1
100
AcDbLine
 10
59.125
 20
1.375
 11
61.875
 21
1.375
  0
LINE
  5
1A9
100
AcDbEntity
  8
Title_Block
  6
ByLayer
 62
  256
370
   -1
100
AcDbLine
 10
61.875
 20
5.5
 11
59.125
 21
5.5
  0
LINE
  5
1AA
100
AcDbEntity
  8
Title_Block
  6
ByLayer
 62
  256
370
   -1
100
AcDbLine
 10
61.875
 20
1.375
 11
64.625
 21
1.375
  0
LINE
  5
1AB
100
AcDbEntity
  8
Title_Block
  6
ByLayer
 62
  256
370
   -1
100
AcDbLine
 10
64.625
 20
5.5
 11
61.875
 21
5.5
  0
LINE
  5
1AC
100
AcDbEntity
  8
Title_Block
  6
ByLayer
 62
  256
370
   -1
100
AcDbLine
 10
64.625
 20
1.375
 11
67.375
 21
1.375
  0
LINE
  5
1AD
100
AcDbEntity
  8
Title_Block
  6
ByLayer
 62
  256
370
   -1
100
AcDbLine
 10
67.375
 20
5.5
 11
64.625
 21
5.5
  0
LINE
  5
1AE
100
AcDbEntity
  8
Title_Block
  6
ByLayer
 62
  256
370
   -1
100
AcDbLine
 10
67.375
 20
1.375
 11
70.125
 21
1.375
  0
LINE
  5
1AF
100
AcDbEntity
  8
Title_Block
  6
ByLayer
 62
  256
370
   -1
100
AcDbLine
 10
70.125
 20
5.5
 11
67.375
 21
5.5
  0
LINE
  5
1B0
100
AcDbEntity
  8
Title_Block
  6
ByLayer
 62
  256
370
   -1
100
AcDbLine
 10
70.125
 20
1.375
 11
72.875
 21
1.375
  0
LINE
  5
1B1
100
AcDbEntity
  8
Title_Block
  6
ByLayer
 62
  256
370
   -1
100
AcDbLine
 10
72.875
 20
5.5
 11
70.125
 21
5.5
  0
LINE
  5
1B2
100
AcDbEntity
  8
Title_Block
  6
ByLayer
 62
  256
370
   -1
100
AcDbLine
 10
72.875
 20
1.375
 11
75.625
 21
1.375
  0
LINE
  5
1B3
100
AcDbEntity
  8
Title_Block
  6
ByLayer
 62
  256
370
   -1
100
AcDbLine
 10
75.625
 20
5.5
 11
72.875
 21
5.5
  0
LINE
  5
1B4
100
AcDbEntity
  8
Title_Block
  6
ByLayer
 62
  256
370
   -1
100
AcDbLine
 10
75.625
 20
1.375
 11
78.375
 21
1.375
  0
LINE
  5
1B5
100
AcDbEntity
  8
Title_Block
  6
ByLayer
 62
  256
370
   -1
100
AcDbLine
 10
78.375
 20
5.5
 11
75.625
 21
5.5
  0
LINE
  5
1B6
100
AcDbEntity
  8
Title_Block
  6
ByLayer
 62
  256
370
   -1
100
AcDbLine
 10
78.375
 20
1.375
 11
81.125
 21
1.375
  0
LINE
  5
1B7
100
AcDbEntity
  8
Title_Block
  6
ByLayer
 62
  256
370
   -1
100
AcDbLine
 10
81.125
 20
5.5
 11
78.375
 21
5.5
  0
LINE
  5
1B8
100
AcDbEntity
  8
Title_Block
  6
ByLayer
 62
  256
370
   -1
100
AcDbLine
 10
81.125
 20
1.375
 11
83.875
 21
1.375
  0
LINE
  5
1B9
100
AcDbEntity
  8
Title_Block
  6
ByLayer
 62
  256
370
   -1
100
AcDbLine
 10
83.875
 20
5.5
 11
81.125
 21
5.5
  0
LINE
  5
1BA
100
AcDbEntity
  8
Title_Block
  6
ByLayer
 62
  256
370
   -1
100
AcDbLine
 10
83.875
 20
1.375
 11
86.625
 21
1.375
  0
LINE
  5
1BB
100
AcDbEntity
  8
Title_Block
  6
ByLayer
 62
  256
370
   -1
100
AcDbLine
 10
86.625
 20
5.5
 11
83.875
 21
5.5
  0
LINE
  5
1BC
100
AcDbEntity
  8
Title_Block
  6
ByLayer
 62
  256
370
   -1
100
AcDbLine
 10
86.625
 20
1.375
 11
89.375
 21
1.375
  0
LINE
  5
1BD
100
AcDbEntity
  8
Title_Block
  6
ByLayer
 62
  256
370
   -1
100
AcDbLine
 10
89.375
 20
5.5
 11
86.625
 21
5.5
  0
LINE
  5
1BE
100
AcDbEntity
  8
Title_Block
  6
ByLayer
 62
  256
370
   -1
100
AcDbLine
 10
89.375
 20
1.375
 11
92.125
 21
1.375
  0
LINE
  5
1BF
100
AcDbEntity
  8
Title_Block
  6
ByLayer
 62
  256
370
   -1
100
AcDbLine
 10
92.125
 20
5.5
 11
89.375
 21
5.5
  0
LINE
  5
1C0
100
AcDbEntity
  8
Title_Block
  6
ByLayer
 62
  256
370
   -1
100
AcDbLine
 10
92.125
 20
1.375
 11
94.875
 21
1.375
  0
LINE
  5
1C1
100
AcDbEntity
  8
Title_Block
  6
ByLayer
 62
  256
370
   -1
100
AcDbLine
 10
94.875
 20
1.375
 11
94.875
 21
5.5
  0
LINE
  5
1C2
100
AcDbEntity
  8
Title_Block
  6
ByLayer
 62
  256
370
   -1
100
AcDbLine
 10
94.875
 20
5.5
 11
92.125
 21
5.5
  0
LINE
  5
1C3
100
AcDbEntity
  8
Title_Block
  6
ByLayer
 62
  256
370
   -1
100
AcDbLine
 10
94.875
 20
1.375
 11
97.625
 21
1.375
  0
LINE
  5
1C4
100
AcDbEntity
  8
Title_Block
  6
ByLayer
 62
  256
370
   -1
100
AcDbLine
 10
97.625
 20
5.5
 11
94.875
 21
5.5
  0
LINE
  5
1C5
100
AcDbEntity
  8
Title_Block
  6
ByLayer
 62
  256
370
   -1
100
AcDbLine
 10
94.875
 20
5.5
 11
94.875
 21
1.375
  0
LINE
  5
1C6
100
AcDbEntity
  8
Title_Block
  6
ByLayer
 62
  256
370
   -1
100
AcDbLine
 10
97.625
 20
1.375
 11
100.375
 21
1.375
  0
LINE
  5
1C7
100
AcDbEntity
  8
Title_Block
  6
ByLayer
 62
  256
370
   -1
100
AcDbLine
 10
100.375
 20
1.375
 11
100.375
 21
5.5
  0
LINE
  5
1C8
100
AcDbEntity
  8
Title_Block
  6
ByLayer
 62
  256
370
   -1
100
AcDbLine
 10
100.375
 20
5.5
 11
97.625
 21
5.5
  0
LINE
  5
1C9
100
AcDbEntity
  8
Title_Block
  6
ByLayer
 62
  256
370
   -1
100
AcDbLine
 10
100.375
 20
1.375
 11
103.125
 21
1.375
  0
LINE
  5
1CA
100
AcDbEntity
  8
Title_Block
  6
ByLayer
 62
  256
370
   -1
100
AcDbLine
 10
103.125
 20
5.5
 11
100.375
 21
5.5
  0
LINE
  5
1CB
100
AcDbEntity
  8
Title_Block
  6
ByLayer
 62
  256
370
   -1
100
AcDbLine
 10
100.375
 20
5.5
 11
100.375
 21
1.375
  0
LINE
  5
1CC
100
AcDbEntity
  8
Title_Block
  6
ByLayer
 62
  256
370
   -1
100
AcDbLine
 10
103.125
 20
1.375
 11
105.875
 21
1.375
  0
LINE
  5
1CD
100
AcDbEntity
  8
Title_Block
  6
ByLayer
 62
  256
370
   -1
100
AcDbLine
 10
105.875
 20
1.375
 11
105.875
 21
5.5
  0
LINE
  5
1CE
100
AcDbEntity
  8
Title_Block
  6
ByLayer
 62
  256
370
   -1
100
AcDbLine
 10
105.875
 20
5.5
 11
103.125
 21
5.5
  0
LINE
  5
1CF
100
AcDbEntity
  8
Title_Block
  6
ByLayer
 62
  256
370
   -1
100
AcDbLine
 10
105.875
 20
1.375
 11
108.625
 21
1.375
  0
LINE
  5
1D0
100
AcDbEntity
  8
Title_Block
  6
ByLayer
 62
  256
370
   -1
100
AcDbLine
 10
108.625
 20
5.5
 11
105.875
 21
5.5
  0
LINE
  5
1D1
100
AcDbEntity
  8
Title_Block
  6
ByLayer
 62
  256
370
   -1
100
AcDbLine
 10
105.875
 20
5.5
 11
105.875
 21
1.375
  0
LINE
  5
1D2
100
AcDbEntity
  8
Title_Block
  6
ByLayer
 62
  256
370
   -1
100
AcDbLine
 10
108.625
 20
1.375
 11
111.375
 21
1.375
  0
LINE
  5
1D3
100
AcDbEntity
  8
Title_Block
  6
ByLayer
 62
  256
370
   -1
100
AcDbLine
 10
111.375
 20
1.375
 11
111.375
 21
5.5
  0
LINE
  5
1D4
100
AcDbEntity
  8
Title_Block
  6
ByLayer
 62
  256
370
   -1
100
AcDbLine
 10
111.375
 20
5.5
 11
108.625
 21
5.5
  0
MTEXT
  5
1D5
100
AcDbEntity
  8
Title_Block
  6
ByLayer
 62
  256
370
   -1
100
AcDbMText
 10
1.650000000000004
 20
1.429999999999999
 30
0
 40
0.6875
 41
5.06622057638889
 71
    7
 72
    1
  1
Drawn By:
  7
romans
210
0
220
0
230
1
 50
0
 73
    2
 44
1
  0
MTEXT
  5
1D6
100
AcDbEntity
  8
Title_Block
  6
ByLayer
 62
  256
370
   -1
100
AcDbMText
 10
15.4
 20
1.649999999999999
 30
0
 40
0.6875
 41
2.488095576388889
 71
    7
 72
    1
  1
Date:
  7
romans
210
0
220
0
230
1
 50
0
 73
    2
 44
1
  0
MTEXT
  5
1D7
100
AcDbEntity
  8
Title_Block
  6
ByLayer
 62
  256
370
   -1
100
AcDbMText
 10
106.15
 20
1.649999999999999
 30
0
 40
0.6875
 41
2.848214951388889
 71
    7
 72
    1
  1
Scale:
  7
romans
210
0
220
0
230
1
 50
0
 73
    2
 44
1
  0
MTEXT
  5
1D8
100
AcDbEntity
  8
Title_Block
  6
ByLayer
 62
  256
370
   -1
100
AcDbMText
 10
100.65
 20
1.649999999999999
 30
0
 40
0.6875
 41
3.077381618055556
 71
    7
 72
    1
  1
Sheet:
  7
romans
210
0
220
0
230
1
 50
0
 73
    2
 44
1
  0
MTEXT
  5
1D9
100
AcDbEntity
  8
Title_Block
  6
ByLayer
 62
  256
370
   -1
100
AcDbMText
 10
95.15000000000002
 20
1.649999999999999
 30
0
 40
0.6875
 41
1.997024256944445
 71
    7
 72
    1
  1
Rev:
  7
romans
210
0
220
0
230
1
 50
0
 73
    2
 44
1
  0
MTEXT
  5
1DA
100
AcDbEntity
  8
Title_Block
  6
ByLayer
 62
  256
370
   -1
100
AcDbMText
 10
31.9
 20
1.649999999999999
 30
0
 40
0.6875
 41
2.389881083333333
 71
    7
 72
    1
  1
Title:
  7
romans
210
0
220
0
230
1
 50
0
 73
    2
 44
1
  0
MTEXT
  5
1DB
100
AcDbEntity
  8
Title_Block
  6
ByLayer
 62
  256
370
   -1
100
AcDbMText
 10
2.368692056354548
 20
2.972685131894211
 30
0
 40
1.375
 41
10.27976430555556
 71
    7
 72
    1
  1
wrcsubers
  7
romans
210
0
220
0
230
1
 50
0
 73
    2
 44
1
  0
MTEXT
  5
1DC
100
AcDbEntity
  8
Title_Block
  6
ByLayer
 62
  256
370
   -1
100
AcDbMText
 10
15.95474055997904
 20
2.805414992424633
 30
0
 40
1.375
 41
12.63690694444445
 71
    7
 72
    1
  1
02/12/2021
  7
romans
210
0
220
0
230
1
 50
0
 73
    2
 44
1
  0
MTEXT
  5
1DD
100
AcDbEntity
  8
Title_Block
  6
ByLayer
 62
  256
370
   -1
100
AcDbMText
 10
33.6408132173516
 20
3.758647260273969
 30
0
 40
1.65
 41
33.76607703333334
 71
    4
 72
    1
  1
Kid's Bed - Rear Side Rail
  7
romans
210
0
220
0
230
1
 50
0
 73
    2
 44
1
  0
ENDBLK
  5
8B
330
89
100
AcDbEntity
  8
0
100
AcDbBlockEnd
  0
ENDSEC
  0
SECTION
  2
ENTITIES
  0
LINE
  5
1DE
100
AcDbEntity
  8
Drawing
  6
ByLayer
 62
    7
370
   -1
100
AcDbLine
 10
12
 20
27.25
 11
11.5
 21
27.75
  0
LINE
  5
1DF
100
AcDbEntity
  8
Drawing
  6
ByLayer
 62
    7
370
   -1
100
AcDbLine
 10
12
 20
27.25
 11
14.5
 21
27.25
  0
LINE
  5
1E0
100
AcDbEntity
  8
Drawing
  6
ByLayer
 62
    7
370
   -1
100
AcDbLine
 10
14.5
 20
27.25
 11
15
 21
27.75
  0
LINE
  5
1E1
100
AcDbEntity
  8
Drawing
  6
ByLayer
 62
    7
370
   -1
100
AcDbLine
 10
15
 20
27.75
 11
15
 21
58.75
  0
LINE
  5
1E2
100
AcDbEntity
  8
Drawing
  6
ByLayer
 62
    7
370
   -1
100
AcDbLine
 10
15
 20
58.75
 11
14.5
 21
59.25
  0
LINE
  5
1E3
100
AcDbEntity
  8
Drawing
  6
ByLayer
 62
    7
370
   -1
100
AcDbLine
 10
14.5
 20
59.25
 11
12
 21
59.25
  0
LINE
  5
1E4
100
AcDbEntity
  8
Drawing
  6
ByLayer
 62
    7
370
   -1
100
AcDbLine
 10
12
 20
59.25
 11
11.5
 21
58.75
  0
LINE
  5
1E5
100
AcDbEntity
  8
Drawing
  6
ByLayer
 62
    7
370
   -1
100
AcDbLine
 10
11.5
 20
58.75
 11
11.5
 21
27.75
  0
LINE
  5
1E6
100
AcDbEntity
  8
Drawing
  6
ByLayer
 62
    7
370
   -1
100
AcDbLine
 10
16.5
 20
44.75
 11
15
 21
44.75
  0
LINE
  5
1E7
100
AcDbEntity
  8
Drawing
  6
ByLayer
 62
    7
370
   -1
100
AcDbLine
 10
15
 20
39.25
 11
16.5
 21
39.25
  0
LINE
  5
1E8
100
AcDbEntity
  8
Drawing
  6
ByLayer
 62
    7
370
   -1
100
AcDbLine
 10
16.5
 20
44.75
 11
16.5
 21
57.25
  0
DIMENSION
  5
1E9
100
AcDbEntity
  8
Dimensions
  6
ByLayer
 62
  256
370
   -1
100
AcDbDimension
  2
*D1
 10
94.00000000000001
 20
24.31735360288203
 30
0
 11
52.75000000000001
 21
25.87985360288203
 31
0
 70
   32
 71
    5
 72
    0
  3
Standard
 53
0
210
0
220
0
230
1
100
AcDbAlignedDimension
 13
11.5
 23
27.75
 33
0
 14
94.00000000000001
 24
27.75
 34
0
100
AcDbRotatedDimension
  0
DIMENSION
  5
1EA
100
AcDbEntity
  8
Dimensions
  6
ByLayer
 62
  256
370
   -1
100
AcDbDimension
  2
*D2
 10
90.50000000000001
 20
67.48683711085349
 30
0
 11
52.75000000000001
 21
69.04933711085349
 31
0
 70
   32
 71
    5
 72
    0
  3
Standard
 53
0
210
0
220
0
230
1
100
AcDbAlignedDimension
 13
15
 23
57.25
 33
0
 14
90.50000000000001
 24
57.25
 34
0
100
AcDbRotatedDimension
  0
LINE
  5
1EB
100
AcDbEntity
  8
Drawing
  6
ByLayer
 62
    7
370
   -1
100
AcDbLine
 10
15
 20
57.25
 11
16.5
 21
57.25
  0
LINE
  5
1EC
100
AcDbEntity
  8
Drawing
  6
ByLayer
 62
  256
370
   -1
100
AcDbLine
 10
16.5
 20
44.75
 11
52
 21
44.75
  0
LINE
  5
1ED
100
AcDbEntity
  8
Drawing
  6
ByLayer
 62
  256
370
   -1
100
AcDbLine
 10
52
 20
39.25
 11
16.5
 21
39.25
  0
LINE
  5
1EE
100
AcDbEntity
  8
Drawing
  6
ByLayer
 62
  256
370
   -1
100
AcDbLine
 10
16.5
 20
55.75
 11
33.5
 21
55.75
  0
LINE
  5
1EF
100
AcDbEntity
  8
Drawing
  6
ByLayer
 62
  256
370
   -1
100
AcDbLine
 10
16.5
 20
51
 11
33.5
 21
51
  0
LINE
  5
1F0
100
AcDbEntity
  8
Drawing
  6
ByLayer
 62
  256
370
   -1
100
AcDbLine
 10
16.5
 20
49.5
 11
33.5
 21
49.5
  0
LINE
  5
1F1
100
AcDbEntity
  8
Drawing
  6
ByLayer
 62
  256
370
   -1
100
AcDbLine
 10
16.5
 20
57.25
 11
52
 21
57.25
  0
LINE
  5
1F2
100
AcDbEntity
  8
Drawing
  6
ByLayer
 62
  256
370
   -1
100
AcDbLine
 10
35
 20
55.75
 11
52
 21
55.75
  0
LINE
  5
1F3
100
AcDbEntity
  8
Drawing
  6
ByLayer
 62
  256
370
   -1
100
AcDbLine
 10
35
 20
51
 11
52
 21
51
  0
LINE
  5
1F4
100
AcDbEntity
  8
Drawing
  6
ByLayer
 62
  256
370
   -1
100
AcDbLine
 10
35
 20
49.5
 11
52
 21
49.5
  0
LINE
  5
1F5
100
AcDbEntity
  8
Drawing
  6
ByLayer
 62
  256
370
   -1
100
AcDbLine
 10
52
 20
44.75
 11
52
 21
57.25
  0
LINE
  5
1F6
100
AcDbEntity
  8
Drawing
  6
ByLayer
 62
  256
370
   -1
100
AcDbLine
 10
35
 20
44.75
 11
35
 21
57.25
  0
LINE
  5
1F7
100
AcDbEntity
  8
Drawing
  6
ByLayer
 62
  256
370
   -1
100
AcDbLine
 10
33.5
 20
44.75
 11
33.5
 21
57.25
  0
LINE
  5
1F8
100
AcDbEntity
  8
Drawing
  6
DOTTINY
 62
    7
370
   -1
100
AcDbLine
 10
16.5
 20
51
 11
15
 21
51
  0
LINE
  5
1F9
100
AcDbEntity
  8
Drawing
  6
DOTTINY
 62
    7
370
   -1
100
AcDbLine
 10
16.5
 20
49.5
 11
15
 21
49.5
  0
LINE
  5
1FA
100
AcDbEntity
  8
Drawing
  6
DOTTINY
 62
    7
370
   -1
100
AcDbLine
 10
16.5
 20
39.25
 11
16.5
 21
44.75
  0
LINE
  5
1FB
100
AcDbEntity
  8
Drawing
  6
DOTTINY
 62
  256
370
   -1
100
AcDbLine
 10
15
 20
55.75
 11
16.5
 21
55.75
  0
LINE
  5
1FC
100
AcDbEntity
  8
Drawing
  6
DOTTINY
 62
  256
370
   -1
100
AcDbLine
 10
33.5
 20
55.75
 11
35
 21
55.75
  0
LINE
  5
1FD
100
AcDbEntity
  8
Drawing
  6
DOTTINY
 62
  256
370
   -1
100
AcDbLine
 10
33.5
 20
51
 11
35
 21
51
  0
LINE
  5
1FE
100
AcDbEntity
  8
Drawing
  6
DOTTINY
 62
  256
370
   -1
100
AcDbLine
 10
33.5
 20
49.5
 11
35
 21
49.5
  0
LINE
  5
1FF
100
AcDbEntity
  8
Drawing
  6
DOTTINY
 62
  256
370
   -1
100
AcDbLine
 10
52
 20
39.25
 11
52
 21
44.75
  0
LINE
  5
200
100
AcDbEntity
  8
Drawing
  6
DOTTINY
 62
  256
370
   -1
100
AcDbLine
 10
35
 20
39.25
 11
35
 21
44.75
  0
LINE
  5
201
100
AcDbEntity
  8
Drawing
  6
DOTTINY
 62
  256
370
   -1
100
AcDbLine
 10
33.5
 20
39.25
 11
33.5
 21
44.75
  0
LINE
  5
202
100
AcDbEntity
  8
Drawing
  6
ByLayer
 62
    7
370
   -1
100
AcDbLine
 10
93.50000000000003
 20
27.25000000000003
 11
94.00000000000003
 21
27.75000000000003
  0
LINE
  5
203
100
AcDbEntity
  8
Drawing
  6
ByLayer
 62
    7
370
   -1
100
AcDbLine
 10
93.50000000000003
 20
27.25000000000003
 11
91.00000000000003
 21
27.25000000000003
  0
LINE
  5
204
100
AcDbEntity
  8
Drawing
  6
ByLayer
 62
    7
370
   -1
100
AcDbLine
 10
91.00000000000003
 20
27.25000000000003
 11
90.50000000000003
 21
27.75000000000003
  0
LINE
  5
205
100
AcDbEntity
  8
Drawing
  6
ByLayer
 62
    7
370
   -1
100
AcDbLine
 10
90.50000000000003
 20
27.75000000000003
 11
90.5
 21
58.75000000000003
  0
LINE
  5
206
100
AcDbEntity
  8
Drawing
  6
ByLayer
 62
    7
370
   -1
100
AcDbLine
 10
90.5
 20
58.75000000000003
 11
91
 21
59.25000000000003
  0
LINE
  5
207
100
AcDbEntity
  8
Drawing
  6
ByLayer
 62
    7
370
   -1
100
AcDbLine
 10
91
 20
59.25000000000003
 11
93.5
 21
59.25000000000004
  0
LINE
  5
208
100
AcDbEntity
  8
Drawing
  6
ByLayer
 62
    7
370
   -1
100
AcDbLine
 10
93.5
 20
59.25000000000004
 11
94
 21
58.75000000000004
  0
LINE
  5
209
100
AcDbEntity
  8
Drawing
  6
ByLayer
 62
    7
370
   -1
100
AcDbLine
 10
94
 20
58.75000000000004
 11
94.00000000000003
 21
27.75000000000003
  0
LINE
  5
20A
100
AcDbEntity
  8
Drawing
  6
ByLayer
 62
    7
370
   -1
100
AcDbLine
 10
89.00000000000001
 20
44.75000000000003
 11
90.50000000000001
 21
44.75000000000003
  0
LINE
  5
20B
100
AcDbEntity
  8
Drawing
  6
ByLayer
 62
    7
370
   -1
100
AcDbLine
 10
90.50000000000001
 20
39.25000000000003
 11
89.00000000000001
 21
39.25000000000003
  0
LINE
  5
20C
100
AcDbEntity
  8
Drawing
  6
ByLayer
 62
    7
370
   -1
100
AcDbLine
 10
89.00000000000001
 20
44.75000000000003
 11
89
 21
57.25000000000003
  0
LINE
  5
20D
100
AcDbEntity
  8
Drawing
  6
ByLayer
 62
    7
370
   -1
100
AcDbLine
 10
90.5
 20
57.25000000000003
 11
89
 21
57.25000000000003
  0
LINE
  5
20E
100
AcDbEntity
  8
Drawing
  6
ByLayer
 62
  256
370
   -1
100
AcDbLine
 10
89.00000000000001
 20
44.75000000000003
 11
53.50000000000001
 21
44.75
  0
LINE
  5
20F
100
AcDbEntity
  8
Drawing
  6
ByLayer
 62
  256
370
   -1
100
AcDbLine
 10
53.50000000000001
 20
39.25
 11
89.00000000000001
 21
39.25000000000003
  0
LINE
  5
210
100
AcDbEntity
  8
Drawing
  6
ByLayer
 62
  256
370
   -1
100
AcDbLine
 10
89
 20
55.75000000000003
 11
72
 21
55.75000000000001
  0
LINE
  5
211
100
AcDbEntity
  8
Drawing
  6
ByLayer
 62
  256
370
   -1
100
AcDbLine
 10
89
 20
51.00000000000003
 11
72
 21
51.00000000000001
  0
LINE
  5
212
100
AcDbEntity
  8
Drawing
  6
ByLayer
 62
  256
370
   -1
100
AcDbLine
 10
89
 20
49.50000000000003
 11
72
 21
49.50000000000001
  0
LINE
  5
213
100
AcDbEntity
  8
Drawing
  6
ByLayer
 62
  256
370
   -1
100
AcDbLine
 10
89
 20
57.25000000000003
 11
53.5
 21
57.25
  0
LINE
  5
214
100
AcDbEntity
  8
Drawing
  6
ByLayer
 62
  256
370
   -1
100
AcDbLine
 10
70.5
 20
55.75000000000001
 11
53.5
 21
55.75
  0
LINE
  5
215
100
AcDbEntity
  8
Drawing
  6
ByLayer
 62
  256
370
   -1
100
AcDbLine
 10
70.5
 20
51.00000000000001
 11
53.50000000000001
 21
51
  0
LINE
  5
216
100
AcDbEntity
  8
Drawing
  6
ByLayer
 62
  256
370
   -1
100
AcDbLine
 10
70.5
 20
49.50000000000001
 11
53.50000000000001
 21
49.5
  0
LINE
  5
217
100
AcDbEntity
  8
Drawing
  6
ByLayer
 62
  256
370
   -1
100
AcDbLine
 10
53.50000000000001
 20
44.75
 11
53.5
 21
57.25
  0
LINE
  5
218
100
AcDbEntity
  8
Drawing
  6
ByLayer
 62
  256
370
   -1
100
AcDbLine
 10
70.5
 20
44.75000000000001
 11
70.5
 21
57.25000000000001
  0
LINE
  5
219
100
AcDbEntity
  8
Drawing
  6
ByLayer
 62
  256
370
   -1
100
AcDbLine
 10
72
 20
44.75000000000001
 11
72
 21
57.25000000000001
  0
LINE
  5
21A
100
AcDbEntity
  8
Drawing
  6
DOTTINY
 62
    7
370
   -1
100
AcDbLine
 10
89
 20
51.00000000000003
 11
90.5
 21
51.00000000000003
  0
LINE
  5
21B
100
AcDbEntity
  8
Drawing
  6
DOTTINY
 62
    7
370
   -1
100
AcDbLine
 10
89
 20
49.50000000000003
 11
90.5
 21
49.50000000000003
  0
LINE
  5
21C
100
AcDbEntity
  8
Drawing
  6
DOTTINY
 62
    7
370
   -1
100
AcDbLine
 10
89.00000000000001
 20
39.25000000000003
 11
89.00000000000001
 21
44.75000000000003
  0
LINE
  5
21D
100
AcDbEntity
  8
Drawing
  6
DOTTINY
 62
  256
370
   -1
100
AcDbLine
 10
90.5
 20
55.75000000000003
 11
89
 21
55.75000000000003
  0
LINE
  5
21E
100
AcDbEntity
  8
Drawing
  6
DOTTINY
 62
  256
370
   -1
100
AcDbLine
 10
72
 20
55.75000000000001
 11
70.5
 21
55.75000000000001
  0
LINE
  5
21F
100
AcDbEntity
  8
Drawing
  6
DOTTINY
 62
  256
370
   -1
100
AcDbLine
 10
72
 20
51.00000000000001
 11
70.5
 21
51.00000000000001
  0
LINE
  5
220
100
AcDbEntity
  8
Drawing
  6
DOTTINY
 62
  256
370
   -1
100
AcDbLine
 10
72
 20
49.50000000000001
 11
70.5
 21
49.50000000000001
  0
LINE
  5
221
100
AcDbEntity
  8
Drawing
  6
DOTTINY
 62
  256
370
   -1
100
AcDbLine
 10
53.50000000000001
 20
39.25
 11
53.50000000000001
 21
44.75
  0
LINE
  5
222
100
AcDbEntity
  8
Drawing
  6
DOTTINY
 62
  256
370
   -1
100
AcDbLine
 10
70.5
 20
39.25000000000001
 11
70.5
 21
44.75000000000001
  0
LINE
  5
223
100
AcDbEntity
  8
Drawing
  6
DOTTINY
 62
  256
370
   -1
100
AcDbLine
 10
72
 20
39.25000000000002
 11
72
 21
44.75000000000001
  0
LINE
  5
224
100
AcDbEntity
  8
Drawing
  6
ByLayer
 62
  256
370
   -1
100
AcDbLine
 10
52
 20
57.25
 11
53.5
 21
57.25
  0
LINE
  5
225
100
AcDbEntity
  8
Drawing
  6
ByLayer
 62
  256
370
   -1
100
AcDbLine
 10
52
 20
44.75
 11
53.5
 21
44.75
  0
LINE
  5
226
100
AcDbEntity
  8
Drawing
  6
ByLayer
 62
  256
370
   -1
100
AcDbLine
 10
52
 20
39.25
 11
53.5
 21
39.25
  0
LINE
  5
227
100
AcDbEntity
  8
Drawing
  6
DOTTINY
 62
  256
370
   -1
100
AcDbLine
 10
52
 20
55.75
 11
53.5
 21
55.75
  0
LINE
  5
228
100
AcDbEntity
  8
Drawing
  6
DOTTINY
 62
  256
370
   -1
100
AcDbLine
 10
52
 20
51
 11
53.5
 21
51
  0
LINE
  5
229
100
AcDbEntity
  8
Drawing
  6
DOTTINY
 62
  256
370
   -1
100
AcDbLine
 10
52
 20
49.5
 11
53.5
 21
49.5
  0
DIMENSION
  5
22A
100
AcDbEntity
  8
Dimensions
  6
ByLayer
 62
  256
370
   -1
100
AcDbDimension
  2
*D3
 10
33.5
 20
61.05479565146016
 30
0
 11
25
 21
62.61729565146016
 31
0
 70
   32
 71
    5
 72
    0
  3
Standard
 53
0
210
0
220
0
230
1
100
AcDbAlignedDimension
 13
16.5
 23
57.25
 33
0
 14
33.5
 24
57.25
 34
0
100
AcDbRotatedDimension
  0
DIMENSION
  5
22B
100
AcDbEntity
  8
Dimensions
  6
ByLayer
 62
  256
370
   -1
100
AcDbDimension
  2
*D4
 10
52
 20
61.05479565146016
 30
0
 11
43.5
 21
62.61729565146016
 31
0
 70
   32
 71
    5
 72
    0
  3
Standard
 53
0
210
0
220
0
230
1
100
AcDbAlignedDimension
 13
35
 23
57.25
 33
0
 14
52
 24
57.25
 34
0
100
AcDbRotatedDimension
  0
DIMENSION
  5
22C
100
AcDbEntity
  8
Dimensions
  6
ByLayer
 62
  256
370
   -1
100
AcDbDimension
  2
*D5
 10
70.5
 20
61.05479565146016
 30
0
 11
62
 21
62.61729565146016
 31
0
 70
   32
 71
    5
 72
    0
  3
Standard
 53
0
210
0
220
0
230
1
100
AcDbAlignedDimension
 13
53.5
 23
57.25
 33
0
 14
70.5
 24
57.25000000000001
 34
0
100
AcDbRotatedDimension
  0
DIMENSION
  5
22D
100
AcDbEntity
  8
Dimensions
  6
ByLayer
 62
  256
370
   -1
100
AcDbDimension
  2
*D6
 10
89
 20
61.05479565146016
 30
0
 11
80.5
 21
62.61729565146016
 31
0
 70
   32
 71
    5
 72
    0
  3
Standard
 53
0
210
0
220
0
230
1
100
AcDbAlignedDimension
 13
72
 23
57.25000000000002
 33
0
 14
89
 24
57.25000000000003
 34
0
100
AcDbRotatedDimension
  0
LEADER
  5
22E
100
AcDbEntity
  8
Dimensions
  6
ByLayer
 62
  256
370
   -1
100
AcDbLeader
  3
Standard
 71
    1
 72
    0
 73
    3
 74
    0
 75
    0
 40
1
 41
10
 76
3
 76
3
 10
13.5
 20
32.25
 30
0
 10
17.5
 20
29.25
 30
0
 10
20.5
 20
29.25
 30
0
  0
DIMENSION
  5
22F
100
AcDbEntity
  8
Dimensions
  6
ByLayer
 62
  256
370
   -1
100
AcDbDimension
  2
*D8
 10
104.335092157157
 20
27.25000000000003
 30
0
 11
102.772592157157
 21
43.25000000000004
 31
0
 70
   32
 71
    5
 72
    0
  3
Standard
 53
0
210
0
220
0
230
1
100
AcDbAlignedDimension
 13
93.5
 23
59.25000000000004
 33
0
 14
93.50000000000003
 24
27.25000000000003
 34
0
 50
90
100
AcDbRotatedDimension
  0
LEADER
  5
230
100
AcDbEntity
  8
Dimensions
  6
ByLayer
 62
  256
370
   -1
100
AcDbLeader
  3
Standard
 71
    1
 72
    0
 73
    3
 74
    0
 75
    0
 40
1
 41
10
 76
4
 76
4
 10
83.54895916572157
 20
50.31986377227538
 30
0
 10
76.59250793592776
 20
45.98982780270985
 30
0
 10
76.59250793592776
 20
37.2587716673564
 30
0
 10
72.12050357391746
 20
35.12924578068482
 30
0
  0
LEADER
  5
231
100
AcDbEntity
  8
Dimensions
  6
ByLayer
 62
  256
370
   -1
100
AcDbLeader
  3
Standard
 71
    1
 72
    0
 73
    3
 74
    0
 75
    0
 40
1
 41
10
 76
2
 76
2
 10
71.19770902302645
 20
48.90017984782766
 30
0
 10
76.59708445975649
 20
45.90597719311481
 30
0
  0
INSERT
  5
232
100
AcDbEntity
  8
0
  6
ByLayer
 62
  256
370
   -1
100
AcDbBlockReference
  2
BorderTemplate - Letter_Landscape-0
 10
0
 20
0
 30
0
 41
1
 42
1
 43
0
 50
0
 70
    1
 71
    1
 44
0
 45
0
  0
LINE
  5
233
100
AcDbEntity
  8
Drawing
  6
ByLayer
 62
  256
370
   -1
100
AcDbLine
 10
17.5
 20
40.75
 11
13
 21
40.75
  0
LINE
  5
234
100
AcDbEntity
  8
Drawing
  6
ByLayer
 62
  256
370
   -1
100
AcDbLine
 10
13
 20
40.4375
 11
13
 21
41.0625
  0
LINE
  5
235
100
AcDbEntity
  8
Drawing
  6
ByLayer
 62
  256
370
   -1
100
AcDbLine
 10
17.5
 20
43.25
 11
13
 21
43.25
  0
LINE
  5
236
100
AcDbEntity
  8
Drawing
  6
ByLayer
 62
  256
370
   -1
100
AcDbLine
 10
13
 20
42.9375
 11
13
 21
43.5625
  0
LINE
  5
237
100
AcDbEntity
  8
Drawing
  6
ByLayer
 62
  256
370
   -1
100
AcDbLine
 10
88.00000000000001
 20
40.75
 11
92.50000000000001
 21
40.75
  0
LINE
  5
238
100
AcDbEntity
  8
Drawing
  6
ByLayer
 62
  256
370
   -1
100
AcDbLine
 10
92.50000000000001
 20
40.4375
 11
92.50000000000001
 21
41.0625
  0
LINE
  5
239
100
AcDbEntity
  8
Drawing
  6
ByLayer
 62
  256
370
   -1
100
AcDbLine
 10
88.00000000000001
 20
43.25
 11
92.50000000000001
 21
43.25
  0
LINE
  5
23A
100
AcDbEntity
  8
Drawing
  6
ByLayer
 62
  256
370
   -1
100
AcDbLine
 10
92.50000000000001
 20
42.9375
 11
92.50000000000001
 21
43.5625
  0
DIMENSION
  5
23B
100
AcDbEntity
  8
Dimensions
  6
ByLayer
 62
  256
370
   -1
100
AcDbDimension
  2
*D11
 10
9.407846587498438
 20
40.75
 30
0
 11
7.845346587498438
 21
34
 31
0
 70
   32
 71
    5
 72
    0
  3
Standard
 53
0
210
0
220
0
230
1
100
AcDbAlignedDimension
 13
12.83412681376911
 23
27.25
 33
0
 14
13.95600617989314
 24
40.75
 34
0
 50
90
100
AcDbRotatedDimension
  0
DIMENSION
  5
23C
100
AcDbEntity
  8
Dimensions
  6
ByLayer
 62
  256
370
   -1
100
AcDbDimension
  2
*D12
 10
9.529130843295633
 20
59.25
 30
0
 11
7.966630843295633
 21
51.25
 31
0
 70
   32
 71
    5
 72
    0
  3
Standard
 53
0
210
0
220
0
230
1
100
AcDbAlignedDimension
 13
13.86504298804524
 23
43.25
 33
0
 14
13.68311660434945
 24
59.25
 34
0
 50
90
100
AcDbRotatedDimension
  0
MTEXT
  5
23D
100
AcDbEntity
  8
Dimensions
  6
CONTINUOUS
 62
  256
370
   -1
100
AcDbMText
 10
15.84982300936387
 20
37.69996237781469
 30
0
 40
0.75
 41
37.04464908333333
 71
    4
 72
    1
  1
See Headboard/Footboard drawing for corner post joint detail
  7
romans
210
0
220
0
230
1
 50
0
 73
    2
 44
1
  0
LEADER
  5
23E
100
AcDbEntity
  8
Dimensions
  6
ByLayer
 62
  256
370
   -1
100
AcDbLeader
  3
Standard
 71
    1
 72
    0
 73
    3
 74
    0
 75
    0
 40
1
 41
10
 76
3
 76
3
 10
62.62308574456534
 20
41.04140861516317
 30
0
 10
58.62308574456534
 20
35.04140861516317
 30
0
 10
55.62308574456534
 20
35.04140861516317
 30
0
  0
MTEXT
  5
23F
100
AcDbEntity
  8
Dimensions
  6
CONTINUOUS
 62
  256
370
   -1
100
AcDbMText
 10
21.5
 20
29.25
 30
0
 40
1
 41
5.547618888888889
 71
    4
 72
    1
  1
4" x 4"
  7
romans
210
0
220
0
230
1
 50
0
 73
    2
 44
1
  0
MTEXT
  5
240
100
AcDbEntity
  8
Dimensions
  6
CONTINUOUS
 62
  256
370
   -1
100
AcDbMText
 10
65.5
 20
35.25
 30
0
 40
1
 41
5.452381111111111
 71
    4
 72
    1
  1
2" x 2"
  7
romans
210
0
220
0
230
1
 50
0
 73
    2
 44
1
  0
MTEXT
  5
241
100
AcDbEntity
  8
Dimensions
  6
CONTINUOUS
 62
  256
370
   -1
100
AcDbMText
 10
49.62308574456534
 20
35.04140861516317
 30
0
 40
1
 41
5.404762222222222
 71
    4
 72
    1
  1
2" x 6"
  7
romans
210
0
220
0
230
1
 50
0
 73
    2
 44
1
  0
MTEXT
  5
242
100
AcDbEntity
  8
Dimensions
  6
CONTINUOUS
 62
  256
370
   -1
100
AcDbMText
 10
2.600708768168801
 20
7.024102728554499
 30
0
 40
0.9
 41
62.38929449999998
 71
    4
 72
    1
  1
Fasteners: SPAX 0.25" x 4.5" Powerlag Hex Drive Washer Head Lag Screw or Equivalent\P
  7
romans
210
0
220
0
230
1
 50
0
 73
    2
 44
1
  0
LWPOLYLINE
  5
243
100
AcDbEntity
  8
Drawing
  6
DOTTINY
 62
  256
370
   -1
100
AcDbPolyline
 90
    5
 70
    1
 43
0
 10
12.5
 20
57.25
 10
14
 20
57.25
 10
14
 20
53.75
 10
12.5
 20
53.75
 10
12.5
 20
53.75
  0
LWPOLYLINE
  5
244
100
AcDbEntity
  8
Drawing
  6
DOTTINY
 62
  256
370
   -1
100
AcDbPolyline
 90
    5
 70
    1
 43
0
 10
12.5
 20
35.75
 10
14
 20
35.75
 10
14
 20
41.25
 10
12.5
 20
41.25
 10
12.5
 20
41.25
  0
CIRCLE
  5
245
100
AcDbEntity
  8
Drawing
  6
DOTTINY
 62
  256
370
   -1
100
AcDbCircle
 10
13.25
 20
55.5
 40
0.25
  0
CIRCLE
  5
246
100
AcDbEntity
  8
Drawing
  6
DOTTINY
 62
  256
370
   -1
100
AcDbCircle
 10
13.25
 20
37.25
 40
0.25
  0
CIRCLE
  5
247
100
AcDbEntity
  8
Drawing
  6
DOTTINY
 62
  256
370
   -1
100
AcDbCircle
 10
13.25
 20
39.5
 40
0.25
  0
LWPOLYLINE
  5
248
100
AcDbEntity
  8
Drawing
  6
DOTTINY
 62
  256
370
   -1
100
AcDbPolyline
 90
    5
 70
    1
 43
0
 10
93.00000000000001
 20
57.25
 10
91.50000000000001
 20
57.25
 10
91.50000000000001
 20
53.75
 10
93.00000000000001
 20
53.75
 10
93.00000000000001
 20
53.75
  0
LWPOLYLINE
  5
249
100
AcDbEntity
  8
Drawing
  6
DOTTINY
 62
  256
370
   -1
100
AcDbPolyline
 90
    5
 70
    1
 43
0
 10
93.00000000000001
 20
35.75
 10
91.50000000000001
 20
35.75
 10
91.50000000000001
 20
41.25
 10
93.00000000000001
 20
41.25
 10
93.00000000000001
 20
41.25
  0
CIRCLE
  5
24A
100
AcDbEntity
  8
Drawing
  6
DOTTINY
 62
  256
370
   -1
100
AcDbCircle
 10
92.25000000000001
 20
55.5
 40
0.25
  0
CIRCLE
  5
24B
100
AcDbEntity
  8
Drawing
  6
DOTTINY
 62
  256
370
   -1
100
AcDbCircle
 10
92.25000000000001
 20
37.25
 40
0.25
  0
CIRCLE
  5
24C
100
AcDbEntity
  8
Drawing
  6
DOTTINY
 62
  256
370
   -1
100
AcDbCircle
 10
92.25000000000001
 20
39.5
 40
0.25
  0
DIMENSION
  5
24D
100
AcDbEntity
  8
Dimensions
  6
ByLayer
 62
  256
370
   -1
100
AcDbDimension
  2
*D14
 10
97.85174365482902
 20
39.25000000000003
 30
0
 11
96.28924365482902
 21
33.25000000000003
 31
0
 70
   32
 71
    5
 72
    0
  3
Standard
 53
0
210
0
220
0
230
1
100
AcDbAlignedDimension
 13
93.50000000000003
 23
27.25000000000003
 33
0
 14
89.00000000000001
 24
39.25000000000003
 34
0
 50
90
100
AcDbRotatedDimension
  0
DIMENSION
  5
24E
100
AcDbEntity
  8
Dimensions
  6
ByLayer
 62
  256
370
   -1
100
AcDbDimension
  2
*D15
 10
97.80106952554117
 20
57.25000000000003
 30
0
 11
96.23856952554117
 21
48.25000000000003
 31
0
 70
   32
 71
    5
 72
    0
  3
Standard
 53
0
210
0
220
0
230
1
100
AcDbAlignedDimension
 13
90.50000000000001
 23
39.25000000000003
 33
0
 14
90.5
 24
57.25000000000003
 34
0
 50
90
100
AcDbRotatedDimension
  0
DIMENSION
  5
24F
100
AcDbEntity
  8
Dimensions
  6
ByLayer
 62
  256
370
   -1
100
AcDbDimension
  2
*D16
 10
97.79009806690939
 20
59.25000000000004
 30
0
 11
96.22759806690939
 21
58.25000000000003
 31
0
 70
   32
 71
    5
 72
    0
  3
Standard
 53
0
210
0
220
0
230
1
100
AcDbAlignedDimension
 13
89.94982295600911
 23
57.25000000000003
 33
0
 14
91.73655231801699
 24
59.25000000000004
 34
0
 50
90
100
AcDbRotatedDimension
  0
DIMENSION
  5
250
100
AcDbEntity
  8
Dimensions
  6
ByLayer
 62
  256
370
   -1
100
AcDbDimension
  2
*D17
 10
9.438167651447737
 20
43.25
 30
0
 11
4.847735814953559
 21
37.20964787694083
 31
0
 70
   32
 71
    5
 72
    0
  3
Standard
 53
0
210
0
220
0
230
1
100
AcDbAlignedDimension
 13
14.13793256358893
 23
40.75
 33
0
 14
14.01664830779173
 24
43.25
 34
0
 50
90
100
AcDbRotatedDimension
  0
ENDSEC
  0
SECTION
  2
OBJECTS
  0
DICTIONARY
  5
C
330
0
100
AcDbDictionary
281
    1
  3
ACAD_GROUP
350
D
  0
DICTIONARY
  5
D
330
C
100
AcDbDictionary
281
    1
  0
PLOTSETTINGS
  5
251
100
AcDbPlotSettings
  6
1x1
 40
0
 41
0
 42
0
 43
0
  0
ENDSEC
  0
EOF
