999
dxfrw 0.6.3
  0
SECTION
  2
HEADER
  9
$ACADVER
  1
AC1021
  9
$DWGCODEPAGE
  3
ANSI_1252
  9
$INSBASE
 10
0
 20
0
 30
0
  9
$EXTMIN
 10
0
 20
0
 30
0
  9
$EXTMAX
 10
92.25
 20
72
 30
0
  9
$LIMMIN
 10
0
 20
0
  9
$LIMMAX
 10
420
 20
297
  9
$ORTHOMODE
 70
    0
  9
$REGENMODE
 70
    1
  9
$FILLMODE
 70
    1
  9
$QTEXTMODE
 70
    0
  9
$MIRRTEXT
 70
    0
  9
$LTSCALE
 40
1
  9
$ATTMODE
 70
    0
  9
$TEXTSIZE
 40
2.5
  9
$TRACEWID
 40
15.68
  9
$TEXTSTYLE
  7
STANDARD
  9
$CLAYER
  8
0
  9
$CELTYPE
  6
BYLAYER
  9
$CECOLOR
 62
  256
  9
$CELTSCALE
 40
1
  9
$DISPSILH
 70
    0
  9
$DIMSCALE
 40
2.5
  9
$DIMASZ
 40
0.5
  9
$DIMEXO
 40
0.625
  9
$DIMDLI
 40
3.75
  9
$DIMRND
 40
0
  9
$DIMDLE
 40
0
  9
$DIMEXE
 40
1.25
  9
$DIMTP
 40
0
  9
$DIMTM
 40
0
  9
$DIMTXT
 40
0.75
  9
$DIMCEN
 40
2.5
  9
$DIMTSZ
 40
0
  9
$DIMTOL
 70
    0
  9
$DIMLIM
 70
    0
  9
$DIMTIH
 70
    0
  9
$DIMTOH
 70
    0
  9
$DIMSE1
 70
    0
  9
$DIMSE2
 70
    0
  9
$DIMTAD
 70
    1
  9
$DIMZIN
 70
    1
  9
$DIMBLK
  1

  9
$DIMASO
 70
    1
  9
$DIMSHO
 70
    1
  9
$DIMPOST
  1

  9
$DIMAPOST
  1

  9
$DIMALT
 70
    0
  9
$DIMALTD
 70
    3
  9
$DIMALTF
 40
0.03937
  9
$DIMLFAC
 40
1
  9
$DIMTOFL
 70
    1
  9
$DIMTVP
 40
0
  9
$DIMTIX
 70
    0
  9
$DIMSOXD
 70
    0
  9
$DIMSAH
 70
    0
  9
$DIMBLK1
  1

  9
$DIMBLK2
  1

  9
$DIMSTYLE
  2
STANDARD
  9
$DIMCLRD
 70
  256
  9
$DIMCLRE
 70
  256
  9
$DIMCLRT
 70
  256
  9
$DIMTFAC
 40
1
  9
$DIMGAP
 40
0.25
  9
$DIMJUST
 70
    0
  9
$DIMSD1
 70
    0
  9
$DIMSD2
 70
    0
  9
$DIMTOLJ
 70
    0
  9
$DIMTZIN
 70
    8
  9
$DIMALTZ
 70
    0
  9
$DIMALTTZ
 70
    0
  9
$DIMUPT
 70
    0
  9
$DIMDEC
 70
    2
  9
$DIMTDEC
 70
    2
  9
$DIMALTU
 70
    2
  9
$DIMALTTD
 70
    3
  9
$DIMTXSTY
  7
romans
  9
$DIMAUNIT
 70
    0
  9
$DIMADEC
 70
    2
  9
$DIMALTRND
 40
0
  9
$DIMAZIN
 70
    0
  9
$DIMDSEP
 70
    0
  9
$DIMATFIT
 70
    3
  9
$DIMFRAC
 70
    0
  9
$DIMLDRBLK
  1
STANDARD
  9
$DIMLUNIT
 70
    2
  9
$DIMLWD
 70
   -1
  9
$DIMLWE
 70
   -1
  9
$DIMTMOVE
 70
    0
  9
$DIMFXL
 40
0.0394
  9
$DIMFXLON
 70
    0
  9
$DIMJOGANG
 40
0.7854
  9
$DIMTFILL
 70
    0
  9
$DIMTFILLCLR
 70
    0
  9
$DIMARCSYM
 70
    0
  9
$DIMLTYPE
  6

  9
$DIMLTEX1
  6

  9
$DIMLTEX2
  6

  9
$LUNITS
 70
    2
  9
$LUPREC
 70
    4
  9
$SKETCHINC
 40
1
  9
$FILLETRAD
 40
0
  9
$AUNITS
 70
    0
  9
$AUPREC
 70
    2
  9
$MENU
  1
.
  9
$ELEVATION
 40
0
  9
$PELEVATION
 40
0
  9
$THICKNESS
 40
0
  9
$LIMCHECK
 70
    0
  9
$CHAMFERA
 40
0
  9
$CHAMFERB
 40
0
  9
$CHAMFERC
 40
0
  9
$CHAMFERD
 40
0
  9
$SKPOLY
 70
    0
  9
$USRTIMER
 70
    1
  9
$ANGBASE
 50
0
  9
$ANGDIR
 70
    0
  9
$PDMODE
 70
   34
  9
$PDSIZE
 40
0
  9
$PLINEWID
 40
0
  9
$SPLFRAME
 70
    0
  9
$SPLINETYPE
 70
    2
  9
$SPLINESEGS
 70
    8
  9
$HANDSEED
  5
20000
  9
$SURFTAB1
 70
    6
  9
$SURFTAB2
 70
    6
  9
$SURFTYPE
 70
    6
  9
$SURFU
 70
    6
  9
$SURFV
 70
    6
  9
$UCSBASE
  2

  9
$UCSNAME
  2

  9
$UCSORG
 10
0
 20
0
 30
0
  9
$UCSXDIR
 10
1
 20
0
 30
0
  9
$UCSYDIR
 10
0
 20
1
 30
0
  9
$UCSORTHOREF
  2

  9
$UCSORTHOVIEW
 70
    0
  9
$UCSORGTOP
 10
0
 20
0
 30
0
  9
$UCSORGBOTTOM
 10
0
 20
0
 30
0
  9
$UCSORGLEFT
 10
0
 20
0
 30
0
  9
$UCSORGRIGHT
 10
0
 20
0
 30
0
  9
$UCSORGFRONT
 10
0
 20
0
 30
0
  9
$UCSORGBACK
 10
0
 20
0
 30
0
  9
$PUCSBASE
  2

  9
$PUCSNAME
  2

  9
$PUCSORG
 10
0
 20
0
 30
0
  9
$PUCSXDIR
 10
1
 20
0
 30
0
  9
$PUCSYDIR
 10
0
 20
1
 30
0
  9
$PUCSORTHOREF
  2

  9
$PUCSORTHOVIEW
 70
    0
  9
$PUCSORGTOP
 10
0
 20
0
 30
0
  9
$PUCSORGBOTTOM
 10
0
 20
0
 30
0
  9
$PUCSORGLEFT
 10
0
 20
0
 30
0
  9
$PUCSORGRIGHT
 10
0
 20
0
 30
0
  9
$PUCSORGFRONT
 10
0
 20
0
 30
0
  9
$PUCSORGBACK
 10
0
 20
0
 30
0
  9
$USERI1
 70
    0
  9
$USERI2
 70
    0
  9
$USERI3
 70
    0
  9
$USERI4
 70
    0
  9
$USERI5
 70
    0
  9
$USERR1
 40
0
  9
$USERR2
 40
0
  9
$USERR3
 40
0
  9
$USERR4
 40
0
  9
$USERR5
 40
0
  9
$WORLDVIEW
 70
    1
  9
$SHADEDGE
 70
    3
  9
$SHADEDIF
 70
   70
  9
$TILEMODE
 70
    1
  9
$MAXACTVP
 70
   64
  9
$PINSBASE
 10
0.3744545578607159
 20
0.2577681915010461
 30
0
  9
$PLIMCHECK
 70
    0
  9
$PEXTMIN
 10
0
 20
0
 30
0
  9
$PEXTMAX
 10
0
 20
0
 30
0
  9
$GRIDMODE
 70
    1
  9
$SNAPSTYLE
 70
    0
  9
$GRIDUNIT
 10
0
 20
0
  9
$PLIMMIN
 10
0
 20
0
  9
$PLIMMAX
 10
10.98425196850394
 20
8.503937007874017
  9
$UNITMODE
 70
    0
  9
$VISRETAIN
 70
    1
  9
$PLINEGEN
 70
    0
  9
$PSLTSCALE
 70
    1
  9
$TREEDEPTH
 70
 3020
  9
$CMLSTYLE
  2
Standard
  9
$CMLJUST
 70
    0
  9
$CMLSCALE
 40
20
  9
$PROXYGRAPHICS
 70
    1
  9
$MEASUREMENT
 70
    1
  9
$CELWEIGHT
370
   -1
  9
$ENDCAPS
280
    0
  9
$JOINSTYLE
280
    0
  9
$LWDISPLAY
290
    0
  9
$INSUNITS
 70
    1
  9
$HYPERLINKBASE
  1

  9
$STYLESHEET
  1

  9
$XEDIT
290
    1
  9
$CEPSNTYPE
380
    0
  9
$PSTYLEMODE
290
    1
  9
$EXTNAMES
290
    1
  9
$PSVPSCALE
 40
0.1109494946805265
  9
$OLESTARTUP
290
    0
  9
$SORTENTS
280
  127
  9
$INDEXCTL
280
    0
  9
$HIDETEXT
280
    1
  9
$XCLIPFRAME
290
    0
  9
$HALOGAP
280
    0
  9
$OBSCOLOR
 70
  257
  9
$OBSLTYPE
280
    0
  9
$INTERSECTIONDISPLAY
280
    0
  9
$INTERSECTIONCOLOR
 70
  257
  9
$DIMASSOC
280
    1
  9
$PROJECTNAME
  1

  9
$CAMERADISPLAY
290
    0
  9
$LENSLENGTH
 40
50
  9
$CAMERAHEIGHT
 40
0
  9
$STEPSPERSEC
 40
2
  9
$STEPSIZE
 40
50
  9
$3DDWFPREC
 40
2
  9
$PSOLWIDTH
 40
5
  9
$PSOLHEIGHT
 40
80
  9
$LOFTANG1
 40
1.570796326794897
  9
$LOFTANG2
 40
1.570796326794897
  9
$LOFTMAG1
 40
0
  9
$LOFTMAG2
 40
0
  9
$LOFTPARAM
 70
    7
  9
$LOFTNORMALS
280
    1
  9
$LATITUDE
 40
1
  9
$LONGITUDE
 40
1
  9
$NORTHDIRECTION
 40
0
  9
$TIMEZONE
 70
-8000
  9
$LIGHTGLYPHDISPLAY
280
    1
  9
$TILEMODELIGHTSYNCH
280
    1
  9
$SOLIDHIST
280
    1
  9
$SHOWHIST
280
    1
  9
$DWFFRAME
280
    2
  9
$DGNFRAME
280
    0
  9
$REALWORLDSCALE
290
    1
  9
$INTERFERECOLOR
 62
    1
  9
$CSHADOW
280
    0
  9
$SHADOWPLANELOCATION
 40
0
  0
ENDSEC
  0
SECTION
  2
CLASSES
  0
ENDSEC
  0
SECTION
  2
TABLES
  0
TABLE
  2
VPORT
  5
8
330
0
100
AcDbSymbolTable
 70
    1
  0
VPORT
  5
31
330
2
100
AcDbSymbolTableRecord
100
AcDbViewportTableRecord
  2
*ACTIVE
 70
    0
 10
0
 20
0
 11
1
 21
1
 12
92.62902120372843
 22
40.1308293498442
 13
0
 23
0
 14
10
 24
10
 15
10
 25
10
 16
0
 26
0
 36
1
 17
0
 27
0
 37
0
 40
99.94848064489497
 41
2.602693602693603
 42
50
 43
0
 44
0
 50
0
 51
0
 71
    0
 72
  100
 73
    1
 74
    3
 75
    0
 76
    1
 77
    0
 78
    0
281
    0
 65
    1
110
0
120
0
130
0
111
1
121
0
131
0
112
0
122
1
132
0
 79
    0
146
0
348
10020
 60
    7
 61
    5
292
1
282
    1
141
0
142
0
 63
  250
421
3358443
  0
ENDTAB
  0
TABLE
  2
LTYPE
  5
5
330
0
100
AcDbSymbolTable
 70
    4
  0
LTYPE
  5
14
330
5
100
AcDbSymbolTableRecord
100
AcDbLinetypeTableRecord
  2
ByBlock
 70
    0
  3

 72
   65
 73
    0
 40
0
  0
LTYPE
  5
15
330
5
100
AcDbSymbolTableRecord
100
AcDbLinetypeTableRecord
  2
ByLayer
 70
    0
  3

 72
   65
 73
    0
 40
0
  0
LTYPE
  5
16
330
5
100
AcDbSymbolTableRecord
100
AcDbLinetypeTableRecord
  2
Continuous
 70
    0
  3
Solid line
 72
   65
 73
    0
 40
0
  0
LTYPE
  5
32
330
5
100
AcDbSymbolTableRecord
100
AcDbLinetypeTableRecord
  2
DOT
 70
    0
  3
Dot . . . . . . . . . . . . . . . . . . . . . .
 72
   65
 73
    2
 40
6.35
 49
0
 74
    0
 49
-6.35
 74
    0
  0
LTYPE
  5
33
330
5
100
AcDbSymbolTableRecord
100
AcDbLinetypeTableRecord
  2
DOTTINY
 70
    0
  3
Dot (.15x) .....................................
 72
   65
 73
    2
 40
0.9525
 49
0
 74
    0
 49
-0.9525
 74
    0
  0
LTYPE
  5
34
330
5
100
AcDbSymbolTableRecord
100
AcDbLinetypeTableRecord
  2
DOT2
 70
    0
  3
Dot (.5x) .....................................
 72
   65
 73
    2
 40
3.175
 49
0
 74
    0
 49
-3.175
 74
    0
  0
LTYPE
  5
35
330
5
100
AcDbSymbolTableRecord
100
AcDbLinetypeTableRecord
  2
DOTX2
 70
    0
  3
Dot (2x) .  .  .  .  .  .  .  .  .  .  .  .  .
 72
   65
 73
    2
 40
12.7
 49
0
 74
    0
 49
-12.7
 74
    0
  0
LTYPE
  5
36
330
5
100
AcDbSymbolTableRecord
100
AcDbLinetypeTableRecord
  2
DASHED
 70
    0
  3
Dashed _ _ _ _ _ _ _ _ _ _ _ _ _ _ _ _ _
 72
   65
 73
    2
 40
19.05
 49
12.7
 74
    0
 49
-6.35
 74
    0
  0
LTYPE
  5
37
330
5
100
AcDbSymbolTableRecord
100
AcDbLinetypeTableRecord
  2
DASHEDTINY
 70
    0
  3
Dashed (.15x) _ _ _ _ _ _ _ _ _ _ _ _ _ _ _ _ _
 72
   65
 73
    2
 40
2.8575
 49
1.905
 74
    0
 49
-0.9525
 74
    0
  0
LTYPE
  5
38
330
5
100
AcDbSymbolTableRecord
100
AcDbLinetypeTableRecord
  2
DASHED2
 70
    0
  3
Dashed (.5x) _ _ _ _ _ _ _ _ _ _ _ _ _ _ _ _ _
 72
   65
 73
    2
 40
9.524999999999999
 49
6.35
 74
    0
 49
-3.175
 74
    0
  0
LTYPE
  5
39
330
5
100
AcDbSymbolTableRecord
100
AcDbLinetypeTableRecord
  2
DASHEDX2
 70
    0
  3
Dashed (2x) ____  ____  ____  ____  ____  ___
 72
   65
 73
    2
 40
38.09999999999999
 49
25.4
 74
    0
 49
-12.7
 74
    0
  0
LTYPE
  5
3A
330
5
100
AcDbSymbolTableRecord
100
AcDbLinetypeTableRecord
  2
DASHDOT
 70
    0
  3
Dash dot __ . __ . __ . __ . __ . __ . __ . __
 72
   65
 73
    4
 40
25.4
 49
12.7
 74
    0
 49
-6.35
 74
    0
 49
0
 74
    0
 49
-6.35
 74
    0
  0
LTYPE
  5
3B
330
5
100
AcDbSymbolTableRecord
100
AcDbLinetypeTableRecord
  2
DASHDOTTINY
 70
    0
  3
Dash dot (.15x) _._._._._._._._._._._._._._._.
 72
   65
 73
    4
 40
3.81
 49
1.905
 74
    0
 49
-0.9525
 74
    0
 49
0
 74
    0
 49
-0.9525
 74
    0
  0
LTYPE
  5
3C
330
5
100
AcDbSymbolTableRecord
100
AcDbLinetypeTableRecord
  2
DASHDOT2
 70
    0
  3
Dash dot (.5x) _._._._._._._._._._._._._._._.
 72
   65
 73
    4
 40
12.7
 49
6.35
 74
    0
 49
-3.175
 74
    0
 49
0
 74
    0
 49
-3.175
 74
    0
  0
LTYPE
  5
3D
330
5
100
AcDbSymbolTableRecord
100
AcDbLinetypeTableRecord
  2
DASHDOTX2
 70
    0
  3
Dash dot (2x) ____  .  ____  .  ____  .  ___
 72
   65
 73
    4
 40
50.8
 49
25.4
 74
    0
 49
-12.7
 74
    0
 49
0
 74
    0
 49
-12.7
 74
    0
  0
LTYPE
  5
3E
330
5
100
AcDbSymbolTableRecord
100
AcDbLinetypeTableRecord
  2
DIVIDE
 70
    0
  3
Divide ____ . . ____ . . ____ . . ____ . . ____
 72
   65
 73
    6
 40
31.75
 49
12.7
 74
    0
 49
-6.35
 74
    0
 49
0
 74
    0
 49
-6.35
 74
    0
 49
0
 74
    0
 49
-6.35
 74
    0
  0
LTYPE
  5
3F
330
5
100
AcDbSymbolTableRecord
100
AcDbLinetypeTableRecord
  2
DIVIDETINY
 70
    0
  3
Divide (.15x) __..__..__..__..__..__..__..__.._
 72
   65
 73
    6
 40
4.7625
 49
1.905
 74
    0
 49
-0.9525
 74
    0
 49
0
 74
    0
 49
-0.9525
 74
    0
 49
0
 74
    0
 49
-0.9525
 74
    0
  0
LTYPE
  5
40
330
5
100
AcDbSymbolTableRecord
100
AcDbLinetypeTableRecord
  2
DIVIDE2
 70
    0
  3
Divide (.5x) __..__..__..__..__..__..__..__.._
 72
   65
 73
    6
 40
15.875
 49
6.35
 74
    0
 49
-3.175
 74
    0
 49
0
 74
    0
 49
-3.175
 74
    0
 49
0
 74
    0
 49
-3.175
 74
    0
  0
LTYPE
  5
41
330
5
100
AcDbSymbolTableRecord
100
AcDbLinetypeTableRecord
  2
DIVIDEX2
 70
    0
  3
Divide (2x) ________  .  .  ________  .  .  _
 72
   65
 73
    6
 40
63.5
 49
25.4
 74
    0
 49
-12.7
 74
    0
 49
0
 74
    0
 49
-12.7
 74
    0
 49
0
 74
    0
 49
-12.7
 74
    0
  0
LTYPE
  5
42
330
5
100
AcDbSymbolTableRecord
100
AcDbLinetypeTableRecord
  2
BORDER
 70
    0
  3
Border __ __ . __ __ . __ __ . __ __ . __ __ .
 72
   65
 73
    6
 40
44.45
 49
12.7
 74
    0
 49
-6.35
 74
    0
 49
12.7
 74
    0
 49
-6.35
 74
    0
 49
0
 74
    0
 49
-6.35
 74
    0
  0
LTYPE
  5
43
330
5
100
AcDbSymbolTableRecord
100
AcDbLinetypeTableRecord
  2
BORDERTINY
 70
    0
  3
Border (.15x) __.__.__.__.__.__.__.__.__.__.__.
 72
   65
 73
    6
 40
6.6675
 49
1.905
 74
    0
 49
-0.9525
 74
    0
 49
1.905
 74
    0
 49
-0.9525
 74
    0
 49
0
 74
    0
 49
-0.9525
 74
    0
  0
LTYPE
  5
44
330
5
100
AcDbSymbolTableRecord
100
AcDbLinetypeTableRecord
  2
BORDER2
 70
    0
  3
Border (.5x) __.__.__.__.__.__.__.__.__.__.__.
 72
   65
 73
    6
 40
22.225
 49
6.35
 74
    0
 49
-3.175
 74
    0
 49
6.35
 74
    0
 49
-3.175
 74
    0
 49
0
 74
    0
 49
-3.175
 74
    0
  0
LTYPE
  5
45
330
5
100
AcDbSymbolTableRecord
100
AcDbLinetypeTableRecord
  2
BORDERX2
 70
    0
  3
Border (2x) ____  ____  .  ____  ____  .  ___
 72
   65
 73
    6
 40
88.89999999999999
 49
25.4
 74
    0
 49
-12.7
 74
    0
 49
25.4
 74
    0
 49
-12.7
 74
    0
 49
0
 74
    0
 49
-12.7
 74
    0
  0
LTYPE
  5
46
330
5
100
AcDbSymbolTableRecord
100
AcDbLinetypeTableRecord
  2
CENTER
 70
    0
  3
Center ____ _ ____ _ ____ _ ____ _ ____ _ ____
 72
   65
 73
    4
 40
50.8
 49
31.75
 74
    0
 49
-6.35
 74
    0
 49
6.35
 74
    0
 49
-6.35
 74
    0
  0
LTYPE
  5
47
330
5
100
AcDbSymbolTableRecord
100
AcDbLinetypeTableRecord
  2
CENTERTINY
 70
    0
  3
Center (.15x) ___ _ ___ _ ___ _ ___ _ ___ _ ___
 72
   65
 73
    4
 40
7.62
 49
4.7625
 74
    0
 49
-0.9525
 74
    0
 49
0.9525
 74
    0
 49
-0.9525
 74
    0
  0
LTYPE
  5
48
330
5
100
AcDbSymbolTableRecord
100
AcDbLinetypeTableRecord
  2
CENTER2
 70
    0
  3
Center (.5x) ___ _ ___ _ ___ _ ___ _ ___ _ ___
 72
   65
 73
    4
 40
28.575
 49
19.05
 74
    0
 49
-3.175
 74
    0
 49
3.175
 74
    0
 49
-3.175
 74
    0
  0
LTYPE
  5
49
330
5
100
AcDbSymbolTableRecord
100
AcDbLinetypeTableRecord
  2
CENTERX2
 70
    0
  3
Center (2x) ________  __  ________  __  _____
 72
   65
 73
    4
 40
101.6
 49
63.5
 74
    0
 49
-12.7
 74
    0
 49
12.7
 74
    0
 49
-12.7
 74
    0
  0
ENDTAB
  0
TABLE
  2
LAYER
  5
2
330
0
100
AcDbSymbolTable
 70
    1
  0
LAYER
  5
10
330
2
100
AcDbSymbolTableRecord
100
AcDbLayerTableRecord
  2
0
 70
    0
 62
    7
  6
CONTINUOUS
370
    0
390
F
  0
LAYER
  5
4A
330
2
100
AcDbSymbolTableRecord
100
AcDbLayerTableRecord
  2
Dimensions
 70
    0
 62
    1
  6
DASHEDTINY
370
   50
390
F
  0
LAYER
  5
4B
330
2
100
AcDbSymbolTableRecord
100
AcDbLayerTableRecord
  2
Drawing
 70
    0
 62
    7
  6
CONTINUOUS
370
  211
390
F
  0
LAYER
  5
4C
330
2
100
AcDbSymbolTableRecord
100
AcDbLayerTableRecord
  2
Drawing_Border
 70
    0
 62
    7
  6
CONTINUOUS
370
   35
390
F
  0
LAYER
  5
4D
330
2
100
AcDbSymbolTableRecord
100
AcDbLayerTableRecord
  2
Paper_Format
 70
    1
 62
    6
  6
CONTINUOUS
290
0
370
   35
390
F
  0
LAYER
  5
4E
330
2
100
AcDbSymbolTableRecord
100
AcDbLayerTableRecord
  2
Title_Block
 70
    0
 62
    7
  6
CONTINUOUS
370
   35
390
F
  0
ENDTAB
  0
TABLE
  2
STYLE
  5
3
330
0
100
AcDbSymbolTable
 70
    3
  0
STYLE
  5
4F
330
2
100
AcDbSymbolTableRecord
100
AcDbTextStyleTableRecord
  2
romans
 70
    0
 40
0
 41
1
 50
0
 71
    0
 42
1
  3
romans
  4

  0
STYLE
  5
50
330
2
100
AcDbSymbolTableRecord
100
AcDbTextStyleTableRecord
  2
Standard
 70
    0
 40
0
 41
1
 50
0
 71
    0
 42
1
  3
txt
  4

  0
ENDTAB
  0
TABLE
  2
VIEW
  5
6
330
0
100
AcDbSymbolTable
 70
    0
  0
ENDTAB
  0
TABLE
  2
UCS
  5
7
330
0
100
AcDbSymbolTable
 70
    0
  0
ENDTAB
  0
TABLE
  2
APPID
  5
9
330
0
100
AcDbSymbolTable
 70
    1
  0
APPID
  5
12
330
9
100
AcDbSymbolTableRecord
100
AcDbRegAppTableRecord
  2
ACAD
 70
    0
  0
APPID
  5
51
330
9
100
AcDbSymbolTableRecord
100
AcDbRegAppTableRecord
  2
LibreCad
 70
    0
  0
ENDTAB
  0
TABLE
  2
DIMSTYLE
  5
A
330
0
100
AcDbSymbolTable
 70
    1
100
AcDbDimStyleTable
 71
    1
  0
DIMSTYLE
105
52
330
A
100
AcDbSymbolTableRecord
100
AcDbDimStyleTableRecord
  2
Standard
 70
    0
 40
2.5
 41
0.5
 42
0.625
 43
0.38
 44
1.25
 45
0
 46
0
 47
0
 48
0
 49
0.0394
140
0.75
141
0.09
142
0
143
25.4
144
1
145
0
146
1
147
0.25
148
0
 71
    0
 72
    0
 73
    0
 74
    1
 75
    0
 76
    0
 77
    0
 78
    1
 79
    0
170
    0
171
    2
172
    0
173
    0
174
    0
175
    0
176
  256
177
  256
178
  256
179
    2
271
    2
272
    4
273
    2
274
    2
275
    0
276
    0
277
    2
278
    0
279
    0
280
    0
281
    0
282
    0
283
    1
284
    0
285
    0
286
    0
288
    0
289
    3
340
romans
341

371
   -1
372
   -1
  0
ENDTAB
  0
TABLE
  2
BLOCK_RECORD
  5
1
330
0
100
AcDbSymbolTable
 70
    2
  0
BLOCK_RECORD
  5
1F
330
1
100
AcDbSymbolTableRecord
100
AcDbBlockTableRecord
  2
*Model_Space
 70
    0
280
    1
281
    0
  0
BLOCK_RECORD
  5
1E
330
1
100
AcDbSymbolTableRecord
100
AcDbBlockTableRecord
  2
*Paper_Space
 70
    0
280
    1
281
    0
  0
BLOCK_RECORD
  5
53
330
1
100
AcDbSymbolTableRecord
100
AcDbBlockTableRecord
  2
*D8
 70
    0
280
    1
281
    0
  0
BLOCK_RECORD
  5
56
330
1
100
AcDbSymbolTableRecord
100
AcDbBlockTableRecord
  2
*D23
 70
    0
280
    1
281
    0
  0
BLOCK_RECORD
  5
59
330
1
100
AcDbSymbolTableRecord
100
AcDbBlockTableRecord
  2
*D28
 70
    0
280
    1
281
    0
  0
BLOCK_RECORD
  5
5C
330
1
100
AcDbSymbolTableRecord
100
AcDbBlockTableRecord
  2
*D4
 70
    0
280
    1
281
    0
  0
BLOCK_RECORD
  5
5F
330
1
100
AcDbSymbolTableRecord
100
AcDbBlockTableRecord
  2
*D19
 70
    0
280
    1
281
    0
  0
BLOCK_RECORD
  5
62
330
1
100
AcDbSymbolTableRecord
100
AcDbBlockTableRecord
  2
*D7
 70
    0
280
    1
281
    0
  0
BLOCK_RECORD
  5
65
330
1
100
AcDbSymbolTableRecord
100
AcDbBlockTableRecord
  2
*D9
 70
    0
280
    1
281
    0
  0
BLOCK_RECORD
  5
68
330
1
100
AcDbSymbolTableRecord
100
AcDbBlockTableRecord
  2
*D5
 70
    0
280
    1
281
    0
  0
BLOCK_RECORD
  5
6B
330
1
100
AcDbSymbolTableRecord
100
AcDbBlockTableRecord
  2
*D1
 70
    0
280
    1
281
    0
  0
BLOCK_RECORD
  5
6E
330
1
100
AcDbSymbolTableRecord
100
AcDbBlockTableRecord
  2
*D21
 70
    0
280
    1
281
    0
  0
BLOCK_RECORD
  5
71
330
1
100
AcDbSymbolTableRecord
100
AcDbBlockTableRecord
  2
*D17
 70
    0
280
    1
281
    0
  0
BLOCK_RECORD
  5
74
330
1
100
AcDbSymbolTableRecord
100
AcDbBlockTableRecord
  2
*D25
 70
    0
280
    1
281
    0
  0
BLOCK_RECORD
  5
77
330
1
100
AcDbSymbolTableRecord
100
AcDbBlockTableRecord
  2
*D26
 70
    0
280
    1
281
    0
  0
BLOCK_RECORD
  5
7A
330
1
100
AcDbSymbolTableRecord
100
AcDbBlockTableRecord
  2
*D22
 70
    0
280
    1
281
    0
  0
BLOCK_RECORD
  5
7D
330
1
100
AcDbSymbolTableRecord
100
AcDbBlockTableRecord
  2
*D11
 70
    0
280
    1
281
    0
  0
BLOCK_RECORD
  5
80
330
1
100
AcDbSymbolTableRecord
100
AcDbBlockTableRecord
  2
*D2
 70
    0
280
    1
281
    0
  0
BLOCK_RECORD
  5
83
330
1
100
AcDbSymbolTableRecord
100
AcDbBlockTableRecord
  2
*D13
 70
    0
280
    1
281
    0
  0
BLOCK_RECORD
  5
86
330
1
100
AcDbSymbolTableRecord
100
AcDbBlockTableRecord
  2
*D20
 70
    0
280
    1
281
    0
  0
BLOCK_RECORD
  5
89
330
1
100
AcDbSymbolTableRecord
100
AcDbBlockTableRecord
  2
*D10
 70
    0
280
    1
281
    0
  0
BLOCK_RECORD
  5
8C
330
1
100
AcDbSymbolTableRecord
100
AcDbBlockTableRecord
  2
*D15
 70
    0
280
    1
281
    0
  0
BLOCK_RECORD
  5
8F
330
1
100
AcDbSymbolTableRecord
100
AcDbBlockTableRecord
  2
*D14
 70
    0
280
    1
281
    0
  0
BLOCK_RECORD
  5
92
330
1
100
AcDbSymbolTableRecord
100
AcDbBlockTableRecord
  2
*D29
 70
    0
280
    1
281
    0
  0
BLOCK_RECORD
  5
95
330
1
100
AcDbSymbolTableRecord
100
AcDbBlockTableRecord
  2
*D16
 70
    0
280
    1
281
    0
  0
BLOCK_RECORD
  5
98
330
1
100
AcDbSymbolTableRecord
100
AcDbBlockTableRecord
  2
*D3
 70
    0
280
    1
281
    0
  0
BLOCK_RECORD
  5
9B
330
1
100
AcDbSymbolTableRecord
100
AcDbBlockTableRecord
  2
*D27
 70
    0
280
    1
281
    0
  0
BLOCK_RECORD
  5
9E
330
1
100
AcDbSymbolTableRecord
100
AcDbBlockTableRecord
  2
*D6
 70
    0
280
    1
281
    0
  0
BLOCK_RECORD
  5
A1
330
1
100
AcDbSymbolTableRecord
100
AcDbBlockTableRecord
  2
*D24
 70
    0
280
    1
281
    0
  0
BLOCK_RECORD
  5
A4
330
1
100
AcDbSymbolTableRecord
100
AcDbBlockTableRecord
  2
*D18
 70
    0
280
    1
281
    0
  0
BLOCK_RECORD
  5
A7
330
1
100
AcDbSymbolTableRecord
100
AcDbBlockTableRecord
  2
*D12
 70
    0
280
    1
281
    0
  0
BLOCK_RECORD
  5
AA
330
1
100
AcDbSymbolTableRecord
100
AcDbBlockTableRecord
  2
BorderTemplate - Letter_Landscape-4
 70
    0
280
    1
281
    0
  0
ENDTAB
  0
ENDSEC
  0
SECTION
  2
BLOCKS
  0
BLOCK
  5
20
330
1F
100
AcDbEntity
  8
0
100
AcDbBlockBegin
  2
*Model_Space
 70
    0
 10
0
 20
0
 30
0
  3
*Model_Space
  1

  0
ENDBLK
  5
21
330
1F
100
AcDbEntity
  8
0
100
AcDbBlockEnd
  0
BLOCK
  5
1C
330
1B
100
AcDbEntity
  8
0
100
AcDbBlockBegin
  2
*Paper_Space
 70
    0
 10
0
 20
0
 30
0
  3
*Paper_Space
  1

  0
ENDBLK
  5
1D
330
1F
100
AcDbEntity
  8
0
100
AcDbBlockEnd
  0
BLOCK
  5
54
330
53
100
AcDbEntity
  8
0
100
AcDbBlockBegin
  2
*D8
 70
    1
 10
0
 20
0
  3
*D8
  1

  0
LINE
  5
AD
100
AcDbEntity
  8
Dimensions
  6
ByBlock
 62
  256
370
   -1
100
AcDbLine
 10
59.06774587062567
 20
34.71232952772854
 11
59.06774587062567
 21
24.71232952772854
  0
MTEXT
  5
AE
100
AcDbEntity
  8
Dimensions
  6
CONTINUOUS
 62
  256
370
   -2
100
AcDbMText
 10
57.50524587062567
 20
29.71232952772854
 30
0
 40
1.875
 41
6.875000625
 71
    5
 72
    1
  1
10.00
  7
romans
210
0
220
0
230
1
 50
90
 73
    2
 44
1
  0
SOLID
  5
AF
100
AcDbEntity
  8
Dimensions
  6
ByBlock
 62
  256
370
   -1
100
AcDbTrace
 10
59.06774587062567
 20
34.71232952772854
 30
0
 11
59.27588819951209
 21
33.46232952772854
 31
0
 12
58.85960354173925
 22
33.46232952772854
 32
0
 13
58.85960354173925
 23
33.46232952772854
 33
0
  0
SOLID
  5
B0
100
AcDbEntity
  8
Dimensions
  6
ByBlock
 62
  256
370
   -1
100
AcDbTrace
 10
59.06774587062567
 20
24.71232952772854
 30
0
 11
58.85960354173925
 21
25.96232952772854
 31
0
 12
59.27588819951209
 22
25.96232952772854
 32
0
 13
59.27588819951209
 23
25.96232952772854
 33
0
  0
LINE
  5
B1
100
AcDbEntity
  8
Dimensions
  6
ByBlock
 62
  256
370
   -1
100
AcDbLine
 10
53.69467572116177
 20
34.71232952772854
 11
62.19274587062567
 21
34.71232952772854
  0
LINE
  5
B2
100
AcDbEntity
  8
Dimensions
  6
ByBlock
 62
  256
370
   -1
100
AcDbLine
 10
54.69467572116177
 20
24.71232952772854
 11
62.19274587062567
 21
24.71232952772854
  0
ENDBLK
  5
55
330
53
100
AcDbEntity
  8
0
100
AcDbBlockEnd
  0
BLOCK
  5
57
330
56
100
AcDbEntity
  8
0
100
AcDbBlockBegin
  2
*D23
 70
    1
 10
0
 20
0
  3
*D23
  1

  0
LINE
  5
B3
100
AcDbEntity
  8
Dimensions
  6
CONTINUOUS
 62
    7
370
    0
100
AcDbLine
 10
8.975607787991114
 20
37.21443939419813
 11
7.46741139738605
 21
37.21443939419813
  0
LINE
  5
B4
100
AcDbEntity
  8
Dimensions
  6
CONTINUOUS
 62
    7
370
    0
100
AcDbLine
 10
7.46741139738605
 20
37.21443939419813
 11
5.493268154398933
 21
35.37517550321634
  0
SOLID
  5
B5
100
AcDbEntity
  8
Dimensions
  6
CONTINUOUS
 62
    7
370
    0
100
AcDbTrace
 10
8.975607787991114
 20
37.21443939419813
 30
0
 11
7.725607787991114
 21
37.00629706531171
 31
0
 12
7.725607787991114
 22
37.42258172308455
 32
0
 13
7.725607787991114
 23
37.42258172308455
 33
0
  0
ENDBLK
  5
58
330
56
100
AcDbEntity
  8
0
100
AcDbBlockEnd
  0
BLOCK
  5
5A
330
59
100
AcDbEntity
  8
0
100
AcDbBlockBegin
  2
*D28
 70
    1
 10
0
 20
0
  3
*D28
  1

  0
LINE
  5
B6
100
AcDbEntity
  8
Dimensions
  6
ByBlock
 62
  256
370
   -1
100
AcDbLine
 10
75.46723068603431
 20
13.40497753914513
 11
82.96723068603431
 21
13.40497753914513
  0
MTEXT
  5
B7
100
AcDbEntity
  8
Dimensions
  6
CONTINUOUS
 62
  256
370
   -2
100
AcDbMText
 10
79.1399714058077
 20
17.74967381665461
 30
0
 40
1.875
 41
5.803571458333334
 71
    5
 72
    1
  1
2.50
  7
romans
210
0
220
0
230
1
 50
0
 73
    2
 44
1
  0
SOLID
  5
B8
100
AcDbEntity
  8
Dimensions
  6
ByBlock
 62
  256
370
   -1
100
AcDbTrace
 10
77.96723068603431
 20
13.40497753914513
 30
0
 11
76.71723068603431
 21
13.19683521025871
 31
0
 12
76.71723068603431
 22
13.61311986803155
 32
0
 13
76.71723068603431
 23
13.61311986803155
 33
0
  0
SOLID
  5
B9
100
AcDbEntity
  8
Dimensions
  6
ByBlock
 62
  256
370
   -1
100
AcDbTrace
 10
80.46723068603431
 20
13.40497753914513
 30
0
 11
81.71723068603431
 21
13.61311986803155
 31
0
 12
81.71723068603431
 22
13.19683521025871
 32
0
 13
81.71723068603431
 23
13.19683521025871
 33
0
  0
LINE
  5
BA
100
AcDbEntity
  8
Dimensions
  6
ByBlock
 62
  256
370
   -1
100
AcDbLine
 10
77.96723068603431
 20
13.73112439793394
 11
77.96723068603431
 21
16.52997753914513
  0
LINE
  5
BB
100
AcDbEntity
  8
Dimensions
  6
ByBlock
 62
  256
370
   -1
100
AcDbLine
 10
80.46723068603431
 20
13.73112439793394
 11
80.46723068603431
 21
16.52997753914513
  0
ENDBLK
  5
5B
330
59
100
AcDbEntity
  8
0
100
AcDbBlockEnd
  0
BLOCK
  5
5D
330
5C
100
AcDbEntity
  8
0
100
AcDbBlockBegin
  2
*D4
 70
    1
 10
0
 20
0
  3
*D4
  1

  0
LINE
  5
BC
100
AcDbEntity
  8
Dimensions
  6
ByBlock
 62
  256
370
   -1
100
AcDbLine
 10
17.21547572116178
 20
56.21232952772853
 11
12.13217572116178
 21
56.21232952772853
  0
MTEXT
  5
BD
100
AcDbEntity
  8
Dimensions
  6
CONTINUOUS
 62
  256
370
   -2
100
AcDbMText
 10
20.74226145032845
 20
57.77482952772853
 30
0
 40
1.875
 41
5.803571458333334
 71
    5
 72
    1
  1
5.08
  7
romans
210
0
220
0
230
1
 50
0
 73
    2
 44
1
  0
SOLID
  5
BE
100
AcDbEntity
  8
Dimensions
  6
ByBlock
 62
  256
370
   -1
100
AcDbTrace
 10
17.21547572116178
 20
56.21232952772853
 30
0
 11
15.96547572116178
 21
56.00418719884211
 31
0
 12
15.96547572116178
 22
56.42047185661495
 32
0
 13
15.96547572116178
 23
56.42047185661495
 33
0
  0
SOLID
  5
BF
100
AcDbEntity
  8
Dimensions
  6
ByBlock
 62
  256
370
   -1
100
AcDbTrace
 10
12.13217572116178
 20
56.21232952772853
 30
0
 11
13.38217572116178
 21
56.42047185661495
 31
0
 12
13.38217572116178
 22
56.00418719884211
 32
0
 13
13.38217572116178
 23
56.00418719884211
 33
0
  0
LINE
  5
C0
100
AcDbEntity
  8
Dimensions
  6
ByBlock
 62
  256
370
   -1
100
AcDbLine
 10
17.21547572116178
 20
52.77482952772854
 11
17.21547572116178
 21
59.33732952772853
  0
LINE
  5
C1
100
AcDbEntity
  8
Dimensions
  6
ByBlock
 62
  256
370
   -1
100
AcDbLine
 10
12.13217572116178
 20
56.27482952772853
 11
12.13217572116178
 21
59.33732952772853
  0
ENDBLK
  5
5E
330
5C
100
AcDbEntity
  8
0
100
AcDbBlockEnd
  0
BLOCK
  5
60
330
5F
100
AcDbEntity
  8
0
100
AcDbBlockBegin
  2
*D19
 70
    1
 10
0
 20
0
  3
*D19
  1

  0
LINE
  5
C2
100
AcDbEntity
  8
Dimensions
  6
CONTINUOUS
 62
    7
370
    0
100
AcDbLine
 10
85.47543865167916
 20
32.89195246136728
 11
87.6027788606233
 21
31.96465031900701
  0
SOLID
  5
C3
100
AcDbEntity
  8
Dimensions
  6
CONTINUOUS
 62
    7
370
    0
100
AcDbTrace
 10
85.47543865167916
 20
32.89195246136728
 30
0
 11
86.70447924757951
 21
32.58327391870007
 31
0
 12
86.53813796754986
 22
32.20166745274967
 32
0
 13
86.53813796754986
 23
32.20166745274967
 33
0
  0
ENDBLK
  5
61
330
5F
100
AcDbEntity
  8
0
100
AcDbBlockEnd
  0
BLOCK
  5
63
330
62
100
AcDbEntity
  8
0
100
AcDbBlockBegin
  2
*D7
 70
    1
 10
0
 20
0
  3
*D7
  1

  0
ENDBLK
  5
64
330
62
100
AcDbEntity
  8
0
100
AcDbBlockEnd
  0
BLOCK
  5
66
330
65
100
AcDbEntity
  8
0
100
AcDbBlockBegin
  2
*D9
 70
    1
 10
0
 20
0
  3
*D9
  1

  0
LINE
  5
C4
100
AcDbEntity
  8
Dimensions
  6
ByBlock
 62
  256
370
   -1
100
AcDbLine
 10
42.99709007478972
 20
24.71232952772854
 11
42.99709007478972
 21
33.21232952772854
  0
MTEXT
  5
C5
100
AcDbEntity
  8
Dimensions
  6
CONTINUOUS
 62
  256
370
   -2
100
AcDbMText
 10
41.43459007478972
 20
28.96232952772854
 30
0
 40
1.875
 41
5.803571458333334
 71
    5
 72
    1
  1
8.50
  7
romans
210
0
220
0
230
1
 50
90
 73
    2
 44
1
  0
SOLID
  5
C6
100
AcDbEntity
  8
Dimensions
  6
ByBlock
 62
  256
370
   -1
100
AcDbTrace
 10
42.99709007478972
 20
24.71232952772854
 30
0
 11
42.7889477459033
 21
25.96232952772854
 31
0
 12
43.20523240367613
 22
25.96232952772854
 32
0
 13
43.20523240367613
 23
25.96232952772854
 33
0
  0
SOLID
  5
C7
100
AcDbEntity
  8
Dimensions
  6
ByBlock
 62
  256
370
   -1
100
AcDbTrace
 10
42.99709007478972
 20
33.21232952772854
 30
0
 11
43.20523240367613
 21
31.96232952772854
 31
0
 12
42.7889477459033
 22
31.96232952772854
 32
0
 13
42.7889477459033
 23
31.96232952772854
 33
0
  0
LINE
  5
C8
100
AcDbEntity
  8
Dimensions
  6
ByBlock
 62
  256
370
   -1
100
AcDbLine
 10
49.06967572116178
 20
24.71232952772854
 11
39.87209007478972
 21
24.71232952772854
  0
LINE
  5
C9
100
AcDbEntity
  8
Dimensions
  6
ByBlock
 62
  256
370
   -1
100
AcDbLine
 10
48.56967572116178
 20
33.21232952772854
 11
39.87209007478972
 21
33.21232952772854
  0
ENDBLK
  5
67
330
65
100
AcDbEntity
  8
0
100
AcDbBlockEnd
  0
BLOCK
  5
69
330
68
100
AcDbEntity
  8
0
100
AcDbBlockBegin
  2
*D5
 70
    1
 10
0
 20
0
  3
*D5
  1

  0
LINE
  5
CA
100
AcDbEntity
  8
Dimensions
  6
ByBlock
 62
  256
370
   -1
100
AcDbLine
 10
12.13217572116178
 20
60.11589974319006
 11
23.79887572116178
 21
60.11589974319006
  0
MTEXT
  5
CB
100
AcDbEntity
  8
Dimensions
  6
CONTINUOUS
 62
  256
370
   -2
100
AcDbMText
 10
17.96552572116178
 20
61.67839974319006
 30
0
 40
1.875
 41
5.982144375000001
 71
    5
 72
    1
  1
11.67
  7
romans
210
0
220
0
230
1
 50
0
 73
    2
 44
1
  0
SOLID
  5
CC
100
AcDbEntity
  8
Dimensions
  6
ByBlock
 62
  256
370
   -1
100
AcDbTrace
 10
12.13217572116178
 20
60.11589974319006
 30
0
 11
13.38217572116178
 21
60.32404207207648
 31
0
 12
13.38217572116178
 22
59.90775741430365
 32
0
 13
13.38217572116178
 23
59.90775741430365
 33
0
  0
SOLID
  5
CD
100
AcDbEntity
  8
Dimensions
  6
ByBlock
 62
  256
370
   -1
100
AcDbTrace
 10
23.79887572116178
 20
60.11589974319006
 30
0
 11
22.54887572116178
 21
59.90775741430365
 31
0
 12
22.54887572116178
 22
60.32404207207648
 32
0
 13
22.54887572116178
 23
60.32404207207648
 33
0
  0
LINE
  5
CE
100
AcDbEntity
  8
Dimensions
  6
ByBlock
 62
  256
370
   -1
100
AcDbLine
 10
12.13217572116178
 20
56.27482952772853
 11
12.13217572116178
 21
63.24089974319006
  0
LINE
  5
CF
100
AcDbEntity
  8
Dimensions
  6
ByBlock
 62
  256
370
   -1
100
AcDbLine
 10
23.79887572116178
 20
56.27482952772853
 11
23.79887572116178
 21
63.24089974319006
  0
ENDBLK
  5
6A
330
68
100
AcDbEntity
  8
0
100
AcDbBlockEnd
  0
BLOCK
  5
6C
330
6B
100
AcDbEntity
  8
0
100
AcDbBlockBegin
  2
*D1
 70
    1
 10
0
 20
0
  3
*D1
  1

  0
LINE
  5
D0
100
AcDbEntity
  8
Dimensions
  6
CONTINUOUS
 62
    7
370
    0
100
AcDbLine
 10
10.82287004841902
 20
27.71232952772854
 11
14.82287004841902
 21
24.71232952772854
  0
LINE
  5
D1
100
AcDbEntity
  8
Dimensions
  6
CONTINUOUS
 62
    7
370
    0
100
AcDbLine
 10
14.82287004841902
 20
24.71232952772854
 11
17.82287004841902
 21
24.71232952772854
  0
SOLID
  5
D2
100
AcDbEntity
  8
Dimensions
  6
CONTINUOUS
 62
    7
370
    0
100
AcDbTrace
 10
10.82287004841902
 20
27.71232952772854
 30
0
 11
11.94775544575087
 21
27.12884339083767
 31
0
 12
11.69798465108717
 22
26.7958156646194
 32
0
 13
11.69798465108717
 23
26.7958156646194
 33
0
  0
ENDBLK
  5
6D
330
6B
100
AcDbEntity
  8
0
100
AcDbBlockEnd
  0
BLOCK
  5
6F
330
6E
100
AcDbEntity
  8
0
100
AcDbBlockBegin
  2
*D21
 70
    1
 10
0
 20
0
  3
*D21
  1

  0
LINE
  5
D3
100
AcDbEntity
  8
Dimensions
  6
CONTINUOUS
 62
    7
370
    0
100
AcDbLine
 10
10.51416719041192
 20
39.3853168370479
 11
14.55544317890901
 21
40.89223330733495
  0
LINE
  5
D4
100
AcDbEntity
  8
Dimensions
  6
CONTINUOUS
 62
    7
370
    0
100
AcDbLine
 10
14.55544317890901
 20
40.89223330733495
 11
14.55544317890901
 21
42.26215737123227
  0
SOLID
  5
D5
100
AcDbEntity
  8
Dimensions
  6
CONTINUOUS
 62
    7
370
    0
100
AcDbTrace
 10
10.51416719041192
 20
39.3853168370479
 30
0
 11
11.61267116973747
 21
40.01707014054555
 31
0
 12
11.75811372305216
 22
39.62701965665615
 32
0
 13
11.75811372305216
 23
39.62701965665615
 33
0
  0
ENDBLK
  5
70
330
6E
100
AcDbEntity
  8
0
100
AcDbBlockEnd
  0
BLOCK
  5
72
330
71
100
AcDbEntity
  8
0
100
AcDbBlockBegin
  2
*D17
 70
    1
 10
0
 20
0
  3
*D17
  1

  0
LINE
  5
D6
100
AcDbEntity
  8
Dimensions
  6
CONTINUOUS
 62
    7
370
    0
100
AcDbLine
 10
82.43544203089708
 20
33.34006259447681
 11
82.46078822004105
 21
38.5106851798493
  0
LINE
  5
D7
100
AcDbEntity
  8
Dimensions
  6
CONTINUOUS
 62
    7
370
    0
100
AcDbLine
 10
82.46078822004105
 20
38.5106851798493
 11
83.44928959665639
 21
38.5106851798493
  0
SOLID
  5
D8
100
AcDbEntity
  8
Dimensions
  6
CONTINUOUS
 62
    7
370
    0
100
AcDbTrace
 10
82.43544203089708
 20
33.34006259447681
 30
0
 11
82.23342958007723
 21
34.59106786976066
 31
0
 12
82.64970923644249
 22
34.58902728320985
 32
0
 13
82.64970923644249
 23
34.58902728320985
 33
0
  0
ENDBLK
  5
73
330
71
100
AcDbEntity
  8
0
100
AcDbBlockEnd
  0
BLOCK
  5
75
330
74
100
AcDbEntity
  8
0
100
AcDbBlockBegin
  2
*D25
 70
    1
 10
0
 20
0
  3
*D25
  1

  0
LINE
  5
D9
100
AcDbEntity
  8
Dimensions
  6
ByBlock
 62
  256
370
   -1
100
AcDbLine
 10
59.01105370664075
 20
32.21232952772854
 11
59.01105370664075
 21
39.71232952772854
  0
MTEXT
  5
DA
100
AcDbEntity
  8
Dimensions
  6
CONTINUOUS
 62
  256
370
   -2
100
AcDbMText
 10
63.56125375268712
 20
36.37242641880276
 30
0
 40
1.875
 41
5.803571458333334
 71
    5
 72
    1
  1
2.50
  7
romans
210
0
220
0
230
1
 50
90
 73
    2
 44
1
  0
SOLID
  5
DB
100
AcDbEntity
  8
Dimensions
  6
ByBlock
 62
  256
370
   -1
100
AcDbTrace
 10
59.01105370664075
 20
34.71232952772854
 30
0
 11
59.21919603552717
 21
33.46232952772854
 31
0
 12
58.80291137775433
 22
33.46232952772854
 32
0
 13
58.80291137775433
 23
33.46232952772854
 33
0
  0
SOLID
  5
DC
100
AcDbEntity
  8
Dimensions
  6
ByBlock
 62
  256
370
   -1
100
AcDbTrace
 10
59.01105370664075
 20
37.21232952772854
 30
0
 11
58.80291137775433
 21
38.46232952772854
 31
0
 12
59.21919603552717
 22
38.46232952772854
 32
0
 13
59.21919603552717
 23
38.46232952772854
 33
0
  0
LINE
  5
DD
100
AcDbEntity
  8
Dimensions
  6
ByBlock
 62
  256
370
   -1
100
AcDbLine
 10
53.69467572116177
 20
34.71232952772854
 11
62.13605370664075
 21
34.71232952772854
  0
LINE
  5
DE
100
AcDbEntity
  8
Dimensions
  6
ByBlock
 62
  256
370
   -1
100
AcDbLine
 10
53.69467572116177
 20
37.21232952772854
 11
62.13605370664075
 21
37.21232952772854
  0
ENDBLK
  5
76
330
74
100
AcDbEntity
  8
0
100
AcDbBlockEnd
  0
BLOCK
  5
78
330
77
100
AcDbEntity
  8
0
100
AcDbBlockBegin
  2
*D26
 70
    1
 10
0
 20
0
  3
*D26
  1

  0
LINE
  5
DF
100
AcDbEntity
  8
Dimensions
  6
ByBlock
 62
  256
370
   -1
100
AcDbLine
 10
59.0475979607443
 20
52.96232952772853
 11
59.0475979607443
 21
56.71232952772853
  0
MTEXT
  5
E0
100
AcDbEntity
  8
Dimensions
  6
CONTINUOUS
 62
  256
370
   -2
100
AcDbMText
 10
63.93122612610206
 20
55.3480561401839
 30
0
 40
1.875
 41
5.803571458333334
 71
    5
 72
    1
  1
3.75
  7
romans
210
0
220
0
230
1
 50
90
 73
    2
 44
1
  0
SOLID
  5
E1
100
AcDbEntity
  8
Dimensions
  6
ByBlock
 62
  256
370
   -1
100
AcDbTrace
 10
59.0475979607443
 20
52.96232952772853
 30
0
 11
58.83945563185788
 21
54.21232952772853
 31
0
 12
59.25574028963072
 22
54.21232952772853
 32
0
 13
59.25574028963072
 23
54.21232952772853
 33
0
  0
SOLID
  5
E2
100
AcDbEntity
  8
Dimensions
  6
ByBlock
 62
  256
370
   -1
100
AcDbTrace
 10
59.0475979607443
 20
56.71232952772853
 30
0
 11
59.25574028963072
 21
55.46232952772853
 31
0
 12
58.83945563185788
 22
55.46232952772853
 32
0
 13
58.83945563185788
 23
55.46232952772853
 33
0
  0
LINE
  5
E3
100
AcDbEntity
  8
Dimensions
  6
ByBlock
 62
  256
370
   -1
100
AcDbLine
 10
53.31424917442497
 20
52.96232952772853
 11
62.1725979607443
 21
52.96232952772853
  0
LINE
  5
E4
100
AcDbEntity
  8
Dimensions
  6
ByBlock
 62
  256
370
   -1
100
AcDbLine
 10
53.37244023171682
 20
56.71232952772853
 11
62.1725979607443
 21
56.71232952772853
  0
ENDBLK
  5
79
330
77
100
AcDbEntity
  8
0
100
AcDbBlockEnd
  0
BLOCK
  5
7B
330
7A
100
AcDbEntity
  8
0
100
AcDbBlockBegin
  2
*D22
 70
    1
 10
0
 20
0
  3
*D22
  1

  0
LINE
  5
E5
100
AcDbEntity
  8
Dimensions
  6
CONTINUOUS
 62
    7
370
    0
100
AcDbLine
 10
9.587250654252735
 20
52.97252554970689
 11
7.49509471845405
 21
52.97252554970689
  0
LINE
  5
E6
100
AcDbEntity
  8
Dimensions
  6
CONTINUOUS
 62
    7
370
    0
100
AcDbLine
 10
7.49509471845405
 20
52.97252554970689
 11
5.489213254234692
 21
51.0097813212772
  0
LINE
  5
E7
100
AcDbEntity
  8
Dimensions
  6
CONTINUOUS
 62
    7
370
    0
100
AcDbLine
 10
5.489213254234692
 20
51.0097813212772
 11
5.489213254234692
 21
8.009781321277202
  0
SOLID
  5
E8
100
AcDbEntity
  8
Dimensions
  6
CONTINUOUS
 62
    7
370
    0
100
AcDbTrace
 10
9.587250654252735
 20
52.97252554970689
 30
0
 11
8.337250654252735
 21
52.76438322082047
 31
0
 12
8.337250654252735
 22
53.1806678785933
 32
0
 13
8.337250654252735
 23
53.1806678785933
 33
0
  0
ENDBLK
  5
7C
330
7A
100
AcDbEntity
  8
0
100
AcDbBlockEnd
  0
BLOCK
  5
7E
330
7D
100
AcDbEntity
  8
0
100
AcDbBlockBegin
  2
*D11
 70
    1
 10
0
 20
0
  3
*D11
  1

  0
LINE
  5
E9
100
AcDbEntity
  8
Dimensions
  6
ByBlock
 62
  256
370
   -1
100
AcDbLine
 10
12.13217572116178
 20
20.95884965289671
 11
50.13217572116178
 21
20.95884965289671
  0
MTEXT
  5
EA
100
AcDbEntity
  8
Dimensions
  6
CONTINUOUS
 62
  256
370
   -2
100
AcDbMText
 10
31.13217572116178
 20
22.52134965289671
 30
0
 40
1.875
 41
7.678571458333334
 71
    5
 72
    1
  1
38.00
  7
romans
210
0
220
0
230
1
 50
0
 73
    2
 44
1
  0
SOLID
  5
EB
100
AcDbEntity
  8
Dimensions
  6
ByBlock
 62
  256
370
   -1
100
AcDbTrace
 10
12.13217572116178
 20
20.95884965289671
 30
0
 11
13.38217572116178
 21
21.16699198178313
 31
0
 12
13.38217572116178
 22
20.75070732401029
 32
0
 13
13.38217572116178
 23
20.75070732401029
 33
0
  0
SOLID
  5
EC
100
AcDbEntity
  8
Dimensions
  6
ByBlock
 62
  256
370
   -1
100
AcDbTrace
 10
50.13217572116178
 20
20.95884965289671
 30
0
 11
48.88217572116178
 21
20.75070732401029
 31
0
 12
48.88217572116178
 22
21.16699198178313
 32
0
 13
48.88217572116178
 23
21.16699198178313
 33
0
  0
LINE
  5
ED
100
AcDbEntity
  8
Dimensions
  6
ByBlock
 62
  256
370
   -1
100
AcDbLine
 10
12.13217572116178
 20
24.32035669804649
 11
12.13217572116178
 21
17.83384965289671
  0
LINE
  5
EE
100
AcDbEntity
  8
Dimensions
  6
ByBlock
 62
  256
370
   -1
100
AcDbLine
 10
50.13217572116178
 20
24.67151484914188
 11
50.13217572116178
 21
17.83384965289671
  0
ENDBLK
  5
7F
330
7D
100
AcDbEntity
  8
0
100
AcDbBlockEnd
  0
BLOCK
  5
81
330
80
100
AcDbEntity
  8
0
100
AcDbBlockBegin
  2
*D2
 70
    1
 10
0
 20
0
  3
*D2
  1

  0
LINE
  5
EF
100
AcDbEntity
  8
Dimensions
  6
CONTINUOUS
 62
    7
370
    0
100
AcDbLine
 10
19.52184695444679
 20
33.92249922752183
 11
22.01401052027321
 21
30.02172147231526
  0
LINE
  5
F0
100
AcDbEntity
  8
Dimensions
  6
CONTINUOUS
 62
    7
370
    0
100
AcDbLine
 10
22.01401052027321
 20
30.02172147231526
 11
23.42262470965336
 21
30.02172147231526
  0
SOLID
  5
F1
100
AcDbEntity
  8
Dimensions
  6
CONTINUOUS
 62
    7
370
    0
100
AcDbTrace
 10
19.52184695444679
 20
33.92249922752183
 30
0
 11
20.37023431288571
 21
32.98119050074018
 31
0
 12
20.01943278876336
 22
32.75706730477313
 32
0
 13
20.01943278876336
 23
32.75706730477313
 33
0
  0
ENDBLK
  5
82
330
80
100
AcDbEntity
  8
0
100
AcDbBlockEnd
  0
BLOCK
  5
84
330
83
100
AcDbEntity
  8
0
100
AcDbBlockBegin
  2
*D13
 70
    1
 10
0
 20
0
  3
*D13
  1

  0
LINE
  5
F2
100
AcDbEntity
  8
Dimensions
  6
ByBlock
 62
  256
370
   -1
100
AcDbLine
 10
11.13217572116178
 20
47.06005843394763
 11
51.13217572116178
 21
47.06005843394763
  0
MTEXT
  5
F3
100
AcDbEntity
  8
Dimensions
  6
CONTINUOUS
 62
  256
370
   -2
100
AcDbMText
 10
31.13217572116178
 20
48.62255843394763
 30
0
 40
1.875
 41
7.767856875000001
 71
    5
 72
    1
  1
40.00
  7
romans
210
0
220
0
230
1
 50
0
 73
    2
 44
1
  0
SOLID
  5
F4
100
AcDbEntity
  8
Dimensions
  6
ByBlock
 62
  256
370
   -1
100
AcDbTrace
 10
11.13217572116178
 20
47.06005843394763
 30
0
 11
12.38217572116178
 21
47.26820076283405
 31
0
 12
12.38217572116178
 22
46.85191610506121
 32
0
 13
12.38217572116178
 23
46.85191610506121
 33
0
  0
SOLID
  5
F5
100
AcDbEntity
  8
Dimensions
  6
ByBlock
 62
  256
370
   -1
100
AcDbTrace
 10
51.13217572116178
 20
47.06005843394763
 30
0
 11
49.88217572116178
 21
46.85191610506121
 31
0
 12
49.88217572116178
 22
47.26820076283405
 32
0
 13
49.88217572116178
 23
47.26820076283405
 33
0
  0
LINE
  5
F6
100
AcDbEntity
  8
Dimensions
  6
ByBlock
 62
  256
370
   -1
100
AcDbLine
 10
11.13217572116178
 20
43.77482952772854
 11
11.13217572116178
 21
50.18505843394763
  0
LINE
  5
F7
100
AcDbEntity
  8
Dimensions
  6
ByBlock
 62
  256
370
   -1
100
AcDbLine
 10
51.13217572116178
 20
43.77482952772854
 11
51.13217572116178
 21
50.18505843394763
  0
ENDBLK
  5
85
330
83
100
AcDbEntity
  8
0
100
AcDbBlockEnd
  0
BLOCK
  5
87
330
86
100
AcDbEntity
  8
0
100
AcDbBlockBegin
  2
*D20
 70
    1
 10
0
 20
0
  3
*D20
  1

  0
ENDBLK
  5
88
330
86
100
AcDbEntity
  8
0
100
AcDbBlockEnd
  0
BLOCK
  5
8A
330
89
100
AcDbEntity
  8
0
100
AcDbBlockBegin
  2
*D10
 70
    1
 10
0
 20
0
  3
*D10
  1

  0
LINE
  5
F8
100
AcDbEntity
  8
Dimensions
  6
ByBlock
 62
  256
370
   -1
100
AcDbLine
 10
42.97271006756438
 20
52.21232952772853
 11
42.97271006756438
 21
59.21232952772853
  0
MTEXT
  5
F9
100
AcDbEntity
  8
Dimensions
  6
CONTINUOUS
 62
  256
370
   -2
100
AcDbMText
 10
41.41021006756438
 20
60.2391152568952
 30
0
 40
1.875
 41
5.803571458333334
 71
    5
 72
    1
  1
2.00
  7
romans
210
0
220
0
230
1
 50
90
 73
    2
 44
1
  0
SOLID
  5
FA
100
AcDbEntity
  8
Dimensions
  6
ByBlock
 62
  256
370
   -1
100
AcDbTrace
 10
42.97271006756438
 20
54.71232952772853
 30
0
 11
43.1808523964508
 21
53.46232952772853
 31
0
 12
42.76456773867796
 22
53.46232952772853
 32
0
 13
42.76456773867796
 23
53.46232952772853
 33
0
  0
SOLID
  5
FB
100
AcDbEntity
  8
Dimensions
  6
ByBlock
 62
  256
370
   -1
100
AcDbTrace
 10
42.97271006756438
 20
56.71232952772853
 30
0
 11
42.76456773867796
 21
57.96232952772853
 31
0
 12
43.1808523964508
 22
57.96232952772853
 32
0
 13
43.1808523964508
 23
57.96232952772853
 33
0
  0
LINE
  5
FC
100
AcDbEntity
  8
Dimensions
  6
ByBlock
 62
  256
370
   -1
100
AcDbLine
 10
48.56967572116178
 20
54.71232952772853
 11
39.84771006756438
 21
54.71232952772853
  0
LINE
  5
FD
100
AcDbEntity
  8
Dimensions
  6
ByBlock
 62
  256
370
   -1
100
AcDbLine
 10
49.06967572116178
 20
56.71232952772853
 11
39.84771006756438
 21
56.71232952772853
  0
ENDBLK
  5
8B
330
89
100
AcDbEntity
  8
0
100
AcDbBlockEnd
  0
BLOCK
  5
8D
330
8C
100
AcDbEntity
  8
0
100
AcDbBlockBegin
  2
*D15
 70
    1
 10
0
 20
0
  3
*D15
  1

  0
LINE
  5
FE
100
AcDbEntity
  8
Dimensions
  6
CONTINUOUS
 62
    7
370
    0
100
AcDbLine
 10
14.29350989910762
 20
53.80709829536092
 11
5.969759523353758
 21
56.38088952996901
  0
LINE
  5
FF
100
AcDbEntity
  8
Dimensions
  6
CONTINUOUS
 62
    7
370
    0
100
AcDbLine
 10
5.969759523353758
 20
56.38088952996901
 11
5.914998007723799
 21
58.24278106138765
  0
SOLID
  5
100
100
AcDbEntity
  8
Dimensions
  6
CONTINUOUS
 62
    7
370
    0
100
AcDbTrace
 10
14.29350989910762
 20
53.80709829536092
 30
0
 11
13.03780946121091
 21
53.97750850438688
 31
0
 12
13.16078435427237
 22
54.37521454152181
 32
0
 13
13.16078435427237
 23
54.37521454152181
 33
0
  0
ENDBLK
  5
8E
330
8C
100
AcDbEntity
  8
0
100
AcDbBlockEnd
  0
BLOCK
  5
90
330
8F
100
AcDbEntity
  8
0
100
AcDbBlockBegin
  2
*D14
 70
    1
 10
0
 20
0
  3
*D14
  1

  0
LINE
  5
101
100
AcDbEntity
  8
Dimensions
  6
ByBlock
 62
  256
370
   -1
100
AcDbLine
 10
42.97271006756438
 20
33.21232952772854
 11
42.97271006756438
 21
54.71232952772853
  0
MTEXT
  5
102
100
AcDbEntity
  8
Dimensions
  6
CONTINUOUS
 62
  256
370
   -2
100
AcDbMText
 10
41.41021006756438
 20
43.96232952772854
 30
0
 40
1.875
 41
6.875000625
 71
    5
 72
    1
  1
21.50
  7
romans
210
0
220
0
230
1
 50
90
 73
    2
 44
1
  0
SOLID
  5
103
100
AcDbEntity
  8
Dimensions
  6
ByBlock
 62
  256
370
   -1
100
AcDbTrace
 10
42.97271006756438
 20
33.21232952772854
 30
0
 11
42.76456773867796
 21
34.46232952772854
 31
0
 12
43.1808523964508
 22
34.46232952772854
 32
0
 13
43.1808523964508
 23
34.46232952772854
 33
0
  0
SOLID
  5
104
100
AcDbEntity
  8
Dimensions
  6
ByBlock
 62
  256
370
   -1
100
AcDbTrace
 10
42.97271006756438
 20
54.71232952772853
 30
0
 11
43.1808523964508
 21
53.46232952772853
 31
0
 12
42.76456773867796
 22
53.46232952772853
 32
0
 13
42.76456773867796
 23
53.46232952772853
 33
0
  0
LINE
  5
105
100
AcDbEntity
  8
Dimensions
  6
ByBlock
 62
  256
370
   -1
100
AcDbLine
 10
48.56967572116178
 20
33.21232952772854
 11
39.84771006756438
 21
33.21232952772854
  0
LINE
  5
106
100
AcDbEntity
  8
Dimensions
  6
ByBlock
 62
  256
370
   -1
100
AcDbLine
 10
48.56967572116178
 20
54.71232952772853
 11
39.84771006756438
 21
54.71232952772853
  0
ENDBLK
  5
91
330
8F
100
AcDbEntity
  8
0
100
AcDbBlockEnd
  0
BLOCK
  5
93
330
92
100
AcDbEntity
  8
0
100
AcDbBlockBegin
  2
*D29
 70
    1
 10
0
 20
0
  3
*D29
  1

  0
LINE
  5
107
100
AcDbEntity
  8
Dimensions
  6
ByBlock
 62
  256
370
   -1
100
AcDbLine
 10
82.5720850316383
 20
10.06377005232996
 11
87.27272488406579
 21
5.363130199902454
  0
LINE
  5
108
100
AcDbEntity
  8
Dimensions
  6
ByBlock
 62
  256
370
   -1
100
AcDbLine
 10
82.02973068603431
 20
12.16862439793394
 11
90.09165287954185
 21
12.16862439793394
  0
ARC
  5
109
100
AcDbEntity
  8
Dimensions
  6
ByBlock
 62
  256
370
   -1
100
AcDbCircle
 10
80.46723068603431
 20
12.16862439793394
 40
6.499422193507535
100
AcDbArc
 50
315
 51
0
  0
SOLID
  5
10A
100
AcDbEntity
  8
Dimensions
  6
ByBlock
 62
  256
370
   -1
100
AcDbTrace
 10
85.06301619285783
 20
7.572838891110415
 30
0
 11
85.69732052772895
 21
8.669871816704708
 31
0
 12
86.01858082378797
 22
8.405136593371813
 32
0
 13
86.01858082378797
 23
8.405136593371813
 33
0
  0
SOLID
  5
10B
100
AcDbEntity
  8
Dimensions
  6
ByBlock
 62
  256
370
   -1
100
AcDbTrace
 10
86.96665287954185
 20
12.16862439793394
 30
0
 11
87.05381576069955
 21
10.9044148183062
 31
0
 12
86.6394543551926
 22
10.94438408053791
 32
0
 13
86.6394543551926
 23
10.94438408053791
 33
0
  0
MTEXT
  5
10C
100
AcDbEntity
  8
Dimensions
  6
CONTINUOUS
 62
  256
370
   -2
100
AcDbMText
 10
85.89448911594597
 20
9.920580349760817
 30
0
 40
1.875
 41
9.117856875000001
 71
    8
 72
    1
  1
45.00%%D
  7
romans
210
0
220
0
230
1
 50
67.5
 73
    2
 44
1
  0
ENDBLK
  5
94
330
92
100
AcDbEntity
  8
0
100
AcDbBlockEnd
  0
BLOCK
  5
96
330
95
100
AcDbEntity
  8
0
100
AcDbBlockBegin
  2
*D16
 70
    1
 10
0
 20
0
  3
*D16
  1

  0
LINE
  5
10D
100
AcDbEntity
  8
Dimensions
  6
CONTINUOUS
 62
    7
370
    0
100
AcDbLine
 10
79.52063027933904
 20
33.11194689218097
 11
74.55277720711842
 21
36.71110575062652
  0
SOLID
  5
10E
100
AcDbEntity
  8
Dimensions
  6
CONTINUOUS
 62
    7
370
    0
100
AcDbTrace
 10
79.52063027933904
 20
33.11194689218097
 30
0
 11
78.38625543112484
 21
33.67676273191393
 31
0
 12
78.63048827468727
 22
34.01387285401419
 32
0
 13
78.63048827468727
 23
34.01387285401419
 33
0
  0
ENDBLK
  5
97
330
95
100
AcDbEntity
  8
0
100
AcDbBlockEnd
  0
BLOCK
  5
99
330
98
100
AcDbEntity
  8
0
100
AcDbBlockBegin
  2
*D3
 70
    1
 10
0
 20
0
  3
*D3
  1

  0
LINE
  5
10F
100
AcDbEntity
  8
Dimensions
  6
CONTINUOUS
 62
    7
370
    0
100
AcDbLine
 10
31.11467937477883
 20
40.19093796215025
 11
32.93569213176962
 21
37.94969149200774
  0
LINE
  5
110
100
AcDbEntity
  8
Dimensions
  6
CONTINUOUS
 62
    7
370
    0
100
AcDbLine
 10
32.93569213176962
 20
37.94969149200774
 11
32.86565317957767
 21
28.42439399390206
  0
SOLID
  5
111
100
AcDbEntity
  8
Dimensions
  6
CONTINUOUS
 62
    7
370
    0
100
AcDbTrace
 10
31.11467937477883
 20
40.19093796215025
 30
0
 11
32.06446233161247
 21
39.35204847957068
 31
0
 12
31.74137798068136
 22
39.08954244443915
 32
0
 13
31.74137798068136
 23
39.08954244443915
 33
0
  0
ENDBLK
  5
9A
330
98
100
AcDbEntity
  8
0
100
AcDbBlockEnd
  0
BLOCK
  5
9C
330
9B
100
AcDbEntity
  8
0
100
AcDbBlockBegin
  2
*D27
 70
    1
 10
0
 20
0
  3
*D27
  1

  0
LINE
  5
112
100
AcDbEntity
  8
Dimensions
  6
ByBlock
 62
  256
370
   -1
100
AcDbLine
 10
77.04826728213136
 20
12.16862439793394
 11
77.04826728213136
 21
8.668624397933939
  0
MTEXT
  5
113
100
AcDbEntity
  8
Dimensions
  6
CONTINUOUS
 62
  256
370
   -2
100
AcDbMText
 10
72.50874214355773
 20
10.23079916754639
 30
0
 40
1.875
 41
5.803571458333334
 71
    5
 72
    1
  1
3.50
  7
romans
210
0
220
0
230
1
 50
90
 73
    2
 44
1
  0
SOLID
  5
114
100
AcDbEntity
  8
Dimensions
  6
ByBlock
 62
  256
370
   -1
100
AcDbTrace
 10
77.04826728213136
 20
12.16862439793394
 30
0
 11
77.25640961101779
 21
10.91862439793394
 31
0
 12
76.84012495324494
 22
10.91862439793394
 32
0
 13
76.84012495324494
 23
10.91862439793394
 33
0
  0
SOLID
  5
115
100
AcDbEntity
  8
Dimensions
  6
ByBlock
 62
  256
370
   -1
100
AcDbTrace
 10
77.04826728213136
 20
8.668624397933939
 30
0
 11
76.84012495324494
 21
9.918624397933939
 31
0
 12
77.25640961101779
 22
9.918624397933939
 32
0
 13
77.25640961101779
 23
9.918624397933939
 33
0
  0
LINE
  5
116
100
AcDbEntity
  8
Dimensions
  6
ByBlock
 62
  256
370
   -1
100
AcDbLine
 10
76.40473068603431
 20
12.16862439793394
 11
73.92326728213136
 21
12.16862439793394
  0
LINE
  5
117
100
AcDbEntity
  8
Dimensions
  6
ByBlock
 62
  256
370
   -1
100
AcDbLine
 10
76.40473068603431
 20
8.668624397933939
 11
73.92326728213136
 21
8.668624397933939
  0
ENDBLK
  5
9D
330
9B
100
AcDbEntity
  8
0
100
AcDbBlockEnd
  0
BLOCK
  5
9F
330
9E
100
AcDbEntity
  8
0
100
AcDbBlockBegin
  2
*D6
 70
    1
 10
0
 20
0
  3
*D6
  1

  0
LINE
  5
118
100
AcDbEntity
  8
Dimensions
  6
ByBlock
 62
  256
370
   -1
100
AcDbLine
 10
12.13217572116178
 20
64.40435373967931
 11
30.38217572116178
 21
64.40435373967931
  0
MTEXT
  5
119
100
AcDbEntity
  8
Dimensions
  6
CONTINUOUS
 62
  256
370
   -2
100
AcDbMText
 10
21.25717572116178
 20
65.96685373967931
 30
0
 40
1.875
 41
6.875000625
 71
    5
 72
    1
  1
18.25
  7
romans
210
0
220
0
230
1
 50
0
 73
    2
 44
1
  0
SOLID
  5
11A
100
AcDbEntity
  8
Dimensions
  6
ByBlock
 62
  256
370
   -1
100
AcDbTrace
 10
12.13217572116178
 20
64.40435373967931
 30
0
 11
13.38217572116178
 21
64.61249606856573
 31
0
 12
13.38217572116178
 22
64.19621141079288
 32
0
 13
13.38217572116178
 23
64.19621141079288
 33
0
  0
SOLID
  5
11B
100
AcDbEntity
  8
Dimensions
  6
ByBlock
 62
  256
370
   -1
100
AcDbTrace
 10
30.38217572116178
 20
64.40435373967931
 30
0
 11
29.13217572116178
 21
64.19621141079288
 31
0
 12
29.13217572116178
 22
64.61249606856573
 32
0
 13
29.13217572116178
 23
64.61249606856573
 33
0
  0
LINE
  5
11C
100
AcDbEntity
  8
Dimensions
  6
ByBlock
 62
  256
370
   -1
100
AcDbLine
 10
12.13217572116178
 20
56.27482952772853
 11
12.13217572116177
 21
67.52935373967931
  0
LINE
  5
11D
100
AcDbEntity
  8
Dimensions
  6
ByBlock
 62
  256
370
   -1
100
AcDbLine
 10
30.38217572116178
 20
56.27482952772853
 11
30.38217572116178
 21
67.52935373967931
  0
ENDBLK
  5
A0
330
9E
100
AcDbEntity
  8
0
100
AcDbBlockEnd
  0
BLOCK
  5
A2
330
A1
100
AcDbEntity
  8
0
100
AcDbBlockBegin
  2
*D24
 70
    1
 10
0
 20
0
  3
*D24
  1

  0
LINE
  5
11E
100
AcDbEntity
  8
Dimensions
  6
CONTINUOUS
 62
    7
370
    0
100
AcDbLine
 10
8.975644106505509
 20
34.71022862842559
 11
7.480065620056397
 21
34.71022862842559
  0
LINE
  5
11F
100
AcDbEntity
  8
Dimensions
  6
CONTINUOUS
 62
    7
370
    0
100
AcDbLine
 10
7.480065620056397
 20
34.71022862842559
 11
5.49063049746363
 21
32.47458365136216
  0
SOLID
  5
120
100
AcDbEntity
  8
Dimensions
  6
CONTINUOUS
 62
    7
370
    0
100
AcDbTrace
 10
8.975644106505509
 20
34.71022862842559
 30
0
 11
7.725644106505509
 21
34.50208629953917
 31
0
 12
7.725644106505509
 22
34.91837095731201
 32
0
 13
7.725644106505509
 23
34.91837095731201
 33
0
  0
ENDBLK
  5
A3
330
A1
100
AcDbEntity
  8
0
100
AcDbBlockEnd
  0
BLOCK
  5
A5
330
A4
100
AcDbEntity
  8
0
100
AcDbBlockBegin
  2
*D18
 70
    1
 10
0
 20
0
  3
*D18
  1

  0
LINE
  5
121
100
AcDbEntity
  8
Dimensions
  6
ByBlock
 62
  256
370
   -1
100
AcDbLine
 10
59.05324777599476
 20
52.96232952772853
 11
59.05324777599476
 21
37.21232952772854
  0
MTEXT
  5
122
100
AcDbEntity
  8
Dimensions
  6
CONTINUOUS
 62
  256
370
   -2
100
AcDbMText
 10
57.49074777599476
 20
45.08732952772854
 30
0
 40
1.875
 41
6.875000625
 71
    5
 72
    1
  1
15.75
  7
romans
210
0
220
0
230
1
 50
90
 73
    2
 44
1
  0
SOLID
  5
123
100
AcDbEntity
  8
Dimensions
  6
ByBlock
 62
  256
370
   -1
100
AcDbTrace
 10
59.05324777599476
 20
52.96232952772853
 30
0
 11
59.26139010488118
 21
51.71232952772853
 31
0
 12
58.84510544710835
 22
51.71232952772853
 32
0
 13
58.84510544710835
 23
51.71232952772853
 33
0
  0
SOLID
  5
124
100
AcDbEntity
  8
Dimensions
  6
ByBlock
 62
  256
370
   -1
100
AcDbTrace
 10
59.05324777599476
 20
37.21232952772854
 30
0
 11
58.84510544710835
 21
38.46232952772854
 31
0
 12
59.26139010488118
 22
38.46232952772854
 32
0
 13
59.26139010488118
 23
38.46232952772854
 33
0
  0
LINE
  5
125
100
AcDbEntity
  8
Dimensions
  6
ByBlock
 62
  256
370
   -1
100
AcDbLine
 10
53.69467572116177
 20
52.96232952772853
 11
62.17824777599476
 21
52.96232952772853
  0
LINE
  5
126
100
AcDbEntity
  8
Dimensions
  6
ByBlock
 62
  256
370
   -1
100
AcDbLine
 10
53.69467572116177
 20
37.21232952772854
 11
62.17824777599476
 21
37.21232952772854
  0
ENDBLK
  5
A6
330
A4
100
AcDbEntity
  8
0
100
AcDbBlockEnd
  0
BLOCK
  5
A8
330
A7
100
AcDbEntity
  8
0
100
AcDbBlockBegin
  2
*D12
 70
    1
 10
0
 20
0
  3
*D12
  1

  0
LINE
  5
127
100
AcDbEntity
  8
Dimensions
  6
ByBlock
 62
  256
370
   -1
100
AcDbLine
 10
8.632175721161772
 20
16.52596712120616
 11
53.63217572116177
 21
16.52596712120616
  0
MTEXT
  5
128
100
AcDbEntity
  8
Dimensions
  6
CONTINUOUS
 62
  256
370
   -2
100
AcDbMText
 10
31.13217572116177
 20
18.08846712120616
 30
0
 40
1.875
 41
7.767856875000001
 71
    5
 72
    1
  1
45.00
  7
romans
210
0
220
0
230
1
 50
0
 73
    2
 44
1
  0
SOLID
  5
129
100
AcDbEntity
  8
Dimensions
  6
ByBlock
 62
  256
370
   -1
100
AcDbTrace
 10
8.632175721161772
 20
16.52596712120616
 30
0
 11
9.882175721161772
 21
16.73410945009258
 31
0
 12
9.882175721161772
 22
16.31782479231974
 32
0
 13
9.882175721161772
 23
16.31782479231974
 33
0
  0
SOLID
  5
12A
100
AcDbEntity
  8
Dimensions
  6
ByBlock
 62
  256
370
   -1
100
AcDbTrace
 10
53.63217572116177
 20
16.52596712120616
 30
0
 11
52.38217572116177
 21
16.31782479231974
 31
0
 12
52.38217572116177
 22
16.73410945009258
 32
0
 13
52.38217572116177
 23
16.73410945009258
 33
0
  0
LINE
  5
12B
100
AcDbEntity
  8
Dimensions
  6
ByBlock
 62
  256
370
   -1
100
AcDbLine
 10
8.632175721161778
 20
23.85014047898719
 11
8.632175721161769
 21
13.40096712120616
  0
LINE
  5
12C
100
AcDbEntity
  8
Dimensions
  6
ByBlock
 62
  256
370
   -1
100
AcDbLine
 10
53.63217572116177
 20
24.00329836800903
 11
53.63217572116177
 21
13.40096712120616
  0
ENDBLK
  5
A9
330
A7
100
AcDbEntity
  8
0
100
AcDbBlockEnd
  0
BLOCK
  5
AB
330
AA
100
AcDbEntity
  8
0
100
AcDbBlockBegin
  2
BorderTemplate - Letter_Landscape-4
 70
    0
 10
0
 20
0
  3
BorderTemplate - Letter_Landscape-4
  1

  0
LINE
  5
12D
100
AcDbEntity
  8
Paper_Format
  6
ByLayer
 62
  256
370
   -1
100
AcDbLine
 10
-4.5
 20
-2.25
 11
94.5
 21
-2.25
  0
LINE
  5
12E
100
AcDbEntity
  8
Paper_Format
  6
ByLayer
 62
  256
370
   -1
100
AcDbLine
 10
94.5
 20
-2.25
 11
94.5
 21
74.25
  0
LINE
  5
12F
100
AcDbEntity
  8
Paper_Format
  6
ByLayer
 62
  256
370
   -1
100
AcDbLine
 10
94.5
 20
74.25
 11
-4.5
 21
74.25
  0
LINE
  5
130
100
AcDbEntity
  8
Paper_Format
  6
ByLayer
 62
  256
370
   -1
100
AcDbLine
 10
-4.5
 20
74.25
 11
-4.5
 21
-2.25
  0
LINE
  5
131
100
AcDbEntity
  8
Drawing_Border
  6
ByLayer
 62
  256
370
   -1
100
AcDbLine
 10
91.125
 20
70.875
 11
1.125
 21
70.875
  0
LINE
  5
132
100
AcDbEntity
  8
Drawing_Border
  6
ByLayer
 62
  256
370
   -1
100
AcDbLine
 10
91.125
 20
1.125
 11
91.125
 21
70.875
  0
LINE
  5
133
100
AcDbEntity
  8
Drawing_Border
  6
ByLayer
 62
  256
370
   -1
100
AcDbLine
 10
1.125
 20
70.875
 11
1.125
 21
1.125
  0
LINE
  5
134
100
AcDbEntity
  8
Drawing_Border
  6
ByLayer
 62
  256
370
   -1
100
AcDbLine
 10
1.125
 20
1.125
 11
91.125
 21
1.125
  0
LINE
  5
135
100
AcDbEntity
  8
Drawing_Border
  6
ByLayer
 62
  256
370
   70
100
AcDbLine
 10
92.25
 20
72
 11
0
 21
72
  0
LINE
  5
136
100
AcDbEntity
  8
Drawing_Border
  6
ByLayer
 62
  256
370
   70
100
AcDbLine
 10
92.25
 20
0
 11
92.25
 21
72
  0
LINE
  5
137
100
AcDbEntity
  8
Drawing_Border
  6
ByLayer
 62
  256
370
   70
100
AcDbLine
 10
0
 20
72
 11
0
 21
0
  0
LINE
  5
138
100
AcDbEntity
  8
Drawing_Border
  6
ByLayer
 62
  256
370
   70
100
AcDbLine
 10
0
 20
0
 11
92.25
 21
0
  0
LINE
  5
139
100
AcDbEntity
  8
Drawing_Border
  6
ByLayer
 62
  256
370
   -1
100
AcDbLine
 10
31.12500000000001
 20
70.875
 11
31.12500000000001
 21
72
  0
LINE
  5
13A
100
AcDbEntity
  8
Drawing_Border
  6
ByLayer
 62
  256
370
   -1
100
AcDbLine
 10
31.12500000000001
 20
70.875
 11
31.12500000000001
 21
72
  0
LINE
  5
13B
100
AcDbEntity
  8
Drawing_Border
  6
ByLayer
 62
  256
370
   -1
100
AcDbLine
 10
61.125
 20
70.875
 11
61.125
 21
72
  0
LINE
  5
13C
100
AcDbEntity
  8
Drawing_Border
  6
ByLayer
 62
  256
370
   -1
100
AcDbLine
 10
1.125
 20
36
 11
0
 21
36
  0
MTEXT
  5
13D
100
AcDbEntity
  8
Paper_Format
  6
ByLayer
 62
  256
370
   -1
100
AcDbMText
 10
1.125
 20
36
 30
0
 40
0.5625
 41
0.13392875
 71
    5
 72
    1
  1
1
  7
romans
210
0
220
0
230
1
 50
0
 73
    2
 44
1
  0
MTEXT
  5
13E
100
AcDbEntity
  8
Drawing_Border
  6
ByLayer
 62
  256
370
   -1
100
AcDbMText
 10
16.125
 20
71.4375
 30
0
 40
0.5625
 41
0.4285712500000001
 71
    5
 72
    1
  1
A
  7
romans
210
0
220
0
230
1
 50
0
 73
    2
 44
1
  0
MTEXT
  5
13F
100
AcDbEntity
  8
Drawing_Border
  6
ByLayer
 62
  256
370
   -1
100
AcDbMText
 10
46.125
 20
71.4375
 30
0
 40
0.5625
 41
0.375
 71
    5
 72
    1
  1
B
  7
romans
210
0
220
0
230
1
 50
0
 73
    2
 44
1
  0
MTEXT
  5
140
100
AcDbEntity
  8
Drawing_Border
  6
ByLayer
 62
  256
370
   -1
100
AcDbMText
 10
76.125
 20
71.4375
 30
0
 40
0.5625
 41
0.4017856249999999
 71
    5
 72
    1
  1
C
  7
romans
210
0
220
0
230
1
 50
0
 73
    2
 44
1
  0
MTEXT
  5
141
100
AcDbEntity
  8
Drawing_Border
  6
ByLayer
 62
  256
370
   -1
100
AcDbMText
 10
0.5625
 20
53.4375
 30
0
 40
0.5625
 41
0.13392875
 71
    5
 72
    1
  1
1
  7
romans
210
0
220
0
230
1
 50
0
 73
    2
 44
1
  0
MTEXT
  5
142
100
AcDbEntity
  8
Drawing_Border
  6
ByLayer
 62
  256
370
   -1
100
AcDbMText
 10
0.5625
 20
18.5625
 30
0
 40
0.5625
 41
0.375
 71
    5
 72
    1
  1
2
  7
romans
210
0
220
0
230
1
 50
0
 73
    2
 44
1
  0
LWPOLYLINE
  5
143
100
AcDbEntity
  8
Drawing_Border
  6
ByLayer
 62
  256
370
   -1
100
AcDbPolyline
 90
    4
 70
    1
 43
0
 10
91.125
 20
9
 10
91.6875
 20
9
 10
91.6875
 20
63
 10
91.125
 20
63
  0
LINE
  5
144
100
AcDbEntity
  8
Title_Block
  6
ByLayer
 62
  256
370
   -1
100
AcDbLine
 10
1.125
 20
1.125
 11
3.375
 21
1.125
  0
LINE
  5
145
100
AcDbEntity
  8
Title_Block
  6
ByLayer
 62
  256
370
   -1
100
AcDbLine
 10
3.375
 20
4.5
 11
1.125
 21
4.5
  0
LINE
  5
146
100
AcDbEntity
  8
Title_Block
  6
ByLayer
 62
  256
370
   -1
100
AcDbLine
 10
1.125
 20
4.5
 11
1.125
 21
1.125
  0
LINE
  5
147
100
AcDbEntity
  8
Title_Block
  6
ByLayer
 62
  256
370
   -1
100
AcDbLine
 10
3.375
 20
1.125
 11
5.625
 21
1.125
  0
LINE
  5
148
100
AcDbEntity
  8
Title_Block
  6
ByLayer
 62
  256
370
   -1
100
AcDbLine
 10
5.625
 20
4.5
 11
3.375
 21
4.5
  0
LINE
  5
149
100
AcDbEntity
  8
Title_Block
  6
ByLayer
 62
  256
370
   -1
100
AcDbLine
 10
5.625
 20
1.125
 11
7.875
 21
1.125
  0
LINE
  5
14A
100
AcDbEntity
  8
Title_Block
  6
ByLayer
 62
  256
370
   -1
100
AcDbLine
 10
7.875
 20
4.5
 11
5.625
 21
4.5
  0
LINE
  5
14B
100
AcDbEntity
  8
Title_Block
  6
ByLayer
 62
  256
370
   -1
100
AcDbLine
 10
7.875
 20
1.125
 11
10.125
 21
1.125
  0
LINE
  5
14C
100
AcDbEntity
  8
Title_Block
  6
ByLayer
 62
  256
370
   -1
100
AcDbLine
 10
10.125
 20
4.5
 11
7.875
 21
4.5
  0
LINE
  5
14D
100
AcDbEntity
  8
Title_Block
  6
ByLayer
 62
  256
370
   -1
100
AcDbLine
 10
10.125
 20
1.125
 11
12.375
 21
1.125
  0
LINE
  5
14E
100
AcDbEntity
  8
Title_Block
  6
ByLayer
 62
  256
370
   -1
100
AcDbLine
 10
12.375
 20
1.125
 11
12.375
 21
4.5
  0
LINE
  5
14F
100
AcDbEntity
  8
Title_Block
  6
ByLayer
 62
  256
370
   -1
100
AcDbLine
 10
12.375
 20
4.5
 11
10.125
 21
4.5
  0
LINE
  5
150
100
AcDbEntity
  8
Title_Block
  6
ByLayer
 62
  256
370
   -1
100
AcDbLine
 10
12.375
 20
1.125
 11
14.625
 21
1.125
  0
LINE
  5
151
100
AcDbEntity
  8
Title_Block
  6
ByLayer
 62
  256
370
   -1
100
AcDbLine
 10
14.625
 20
4.5
 11
12.375
 21
4.5
  0
LINE
  5
152
100
AcDbEntity
  8
Title_Block
  6
ByLayer
 62
  256
370
   -1
100
AcDbLine
 10
12.375
 20
4.5
 11
12.375
 21
1.125
  0
LINE
  5
153
100
AcDbEntity
  8
Title_Block
  6
ByLayer
 62
  256
370
   -1
100
AcDbLine
 10
14.625
 20
1.125
 11
16.875
 21
1.125
  0
LINE
  5
154
100
AcDbEntity
  8
Title_Block
  6
ByLayer
 62
  256
370
   -1
100
AcDbLine
 10
16.875
 20
4.5
 11
14.625
 21
4.5
  0
LINE
  5
155
100
AcDbEntity
  8
Title_Block
  6
ByLayer
 62
  256
370
   -1
100
AcDbLine
 10
16.875
 20
1.125
 11
19.125
 21
1.125
  0
LINE
  5
156
100
AcDbEntity
  8
Title_Block
  6
ByLayer
 62
  256
370
   -1
100
AcDbLine
 10
19.125
 20
4.5
 11
16.875
 21
4.5
  0
LINE
  5
157
100
AcDbEntity
  8
Title_Block
  6
ByLayer
 62
  256
370
   -1
100
AcDbLine
 10
19.125
 20
1.125
 11
21.375
 21
1.125
  0
LINE
  5
158
100
AcDbEntity
  8
Title_Block
  6
ByLayer
 62
  256
370
   -1
100
AcDbLine
 10
21.375
 20
4.5
 11
19.125
 21
4.5
  0
LINE
  5
159
100
AcDbEntity
  8
Title_Block
  6
ByLayer
 62
  256
370
   -1
100
AcDbLine
 10
21.375
 20
1.125
 11
23.625
 21
1.125
  0
LINE
  5
15A
100
AcDbEntity
  8
Title_Block
  6
ByLayer
 62
  256
370
   -1
100
AcDbLine
 10
23.625
 20
4.5
 11
21.375
 21
4.5
  0
LINE
  5
15B
100
AcDbEntity
  8
Title_Block
  6
ByLayer
 62
  256
370
   -1
100
AcDbLine
 10
23.625
 20
1.125
 11
25.875
 21
1.125
  0
LINE
  5
15C
100
AcDbEntity
  8
Title_Block
  6
ByLayer
 62
  256
370
   -1
100
AcDbLine
 10
25.875
 20
1.125
 11
25.875
 21
4.5
  0
LINE
  5
15D
100
AcDbEntity
  8
Title_Block
  6
ByLayer
 62
  256
370
   -1
100
AcDbLine
 10
25.875
 20
4.5
 11
23.625
 21
4.5
  0
LINE
  5
15E
100
AcDbEntity
  8
Title_Block
  6
ByLayer
 62
  256
370
   -1
100
AcDbLine
 10
25.875
 20
1.125
 11
28.125
 21
1.125
  0
LINE
  5
15F
100
AcDbEntity
  8
Title_Block
  6
ByLayer
 62
  256
370
   -1
100
AcDbLine
 10
28.125
 20
4.5
 11
25.875
 21
4.5
  0
LINE
  5
160
100
AcDbEntity
  8
Title_Block
  6
ByLayer
 62
  256
370
   -1
100
AcDbLine
 10
25.875
 20
4.5
 11
25.875
 21
1.125
  0
LINE
  5
161
100
AcDbEntity
  8
Title_Block
  6
ByLayer
 62
  256
370
   -1
100
AcDbLine
 10
28.125
 20
1.125
 11
30.375
 21
1.125
  0
LINE
  5
162
100
AcDbEntity
  8
Title_Block
  6
ByLayer
 62
  256
370
   -1
100
AcDbLine
 10
30.375
 20
4.5
 11
28.125
 21
4.5
  0
LINE
  5
163
100
AcDbEntity
  8
Title_Block
  6
ByLayer
 62
  256
370
   -1
100
AcDbLine
 10
30.375
 20
1.125
 11
32.625
 21
1.125
  0
LINE
  5
164
100
AcDbEntity
  8
Title_Block
  6
ByLayer
 62
  256
370
   -1
100
AcDbLine
 10
32.625
 20
4.5
 11
30.375
 21
4.5
  0
LINE
  5
165
100
AcDbEntity
  8
Title_Block
  6
ByLayer
 62
  256
370
   -1
100
AcDbLine
 10
32.625
 20
1.125
 11
34.875
 21
1.125
  0
LINE
  5
166
100
AcDbEntity
  8
Title_Block
  6
ByLayer
 62
  256
370
   -1
100
AcDbLine
 10
34.875
 20
4.5
 11
32.625
 21
4.5
  0
LINE
  5
167
100
AcDbEntity
  8
Title_Block
  6
ByLayer
 62
  256
370
   -1
100
AcDbLine
 10
34.875
 20
1.125
 11
37.125
 21
1.125
  0
LINE
  5
168
100
AcDbEntity
  8
Title_Block
  6
ByLayer
 62
  256
370
   -1
100
AcDbLine
 10
37.125
 20
4.5
 11
34.875
 21
4.5
  0
LINE
  5
169
100
AcDbEntity
  8
Title_Block
  6
ByLayer
 62
  256
370
   -1
100
AcDbLine
 10
37.125
 20
1.125
 11
39.375
 21
1.125
  0
LINE
  5
16A
100
AcDbEntity
  8
Title_Block
  6
ByLayer
 62
  256
370
   -1
100
AcDbLine
 10
39.375
 20
4.5
 11
37.125
 21
4.5
  0
LINE
  5
16B
100
AcDbEntity
  8
Title_Block
  6
ByLayer
 62
  256
370
   -1
100
AcDbLine
 10
39.375
 20
1.125
 11
41.625
 21
1.125
  0
LINE
  5
16C
100
AcDbEntity
  8
Title_Block
  6
ByLayer
 62
  256
370
   -1
100
AcDbLine
 10
41.625
 20
4.5
 11
39.375
 21
4.5
  0
LINE
  5
16D
100
AcDbEntity
  8
Title_Block
  6
ByLayer
 62
  256
370
   -1
100
AcDbLine
 10
41.625
 20
1.125
 11
43.875
 21
1.125
  0
LINE
  5
16E
100
AcDbEntity
  8
Title_Block
  6
ByLayer
 62
  256
370
   -1
100
AcDbLine
 10
43.875
 20
4.5
 11
41.625
 21
4.5
  0
LINE
  5
16F
100
AcDbEntity
  8
Title_Block
  6
ByLayer
 62
  256
370
   -1
100
AcDbLine
 10
43.875
 20
1.125
 11
46.125
 21
1.125
  0
LINE
  5
170
100
AcDbEntity
  8
Title_Block
  6
ByLayer
 62
  256
370
   -1
100
AcDbLine
 10
46.125
 20
4.5
 11
43.875
 21
4.5
  0
LINE
  5
171
100
AcDbEntity
  8
Title_Block
  6
ByLayer
 62
  256
370
   -1
100
AcDbLine
 10
46.125
 20
1.125
 11
48.375
 21
1.125
  0
LINE
  5
172
100
AcDbEntity
  8
Title_Block
  6
ByLayer
 62
  256
370
   -1
100
AcDbLine
 10
48.375
 20
4.5
 11
46.125
 21
4.5
  0
LINE
  5
173
100
AcDbEntity
  8
Title_Block
  6
ByLayer
 62
  256
370
   -1
100
AcDbLine
 10
48.375
 20
1.125
 11
50.625
 21
1.125
  0
LINE
  5
174
100
AcDbEntity
  8
Title_Block
  6
ByLayer
 62
  256
370
   -1
100
AcDbLine
 10
50.625
 20
4.5
 11
48.375
 21
4.5
  0
LINE
  5
175
100
AcDbEntity
  8
Title_Block
  6
ByLayer
 62
  256
370
   -1
100
AcDbLine
 10
50.625
 20
1.125
 11
52.875
 21
1.125
  0
LINE
  5
176
100
AcDbEntity
  8
Title_Block
  6
ByLayer
 62
  256
370
   -1
100
AcDbLine
 10
52.875
 20
4.5
 11
50.625
 21
4.5
  0
LINE
  5
177
100
AcDbEntity
  8
Title_Block
  6
ByLayer
 62
  256
370
   -1
100
AcDbLine
 10
52.875
 20
1.125
 11
55.125
 21
1.125
  0
LINE
  5
178
100
AcDbEntity
  8
Title_Block
  6
ByLayer
 62
  256
370
   -1
100
AcDbLine
 10
55.125
 20
4.5
 11
52.875
 21
4.5
  0
LINE
  5
179
100
AcDbEntity
  8
Title_Block
  6
ByLayer
 62
  256
370
   -1
100
AcDbLine
 10
55.125
 20
1.125
 11
57.375
 21
1.125
  0
LINE
  5
17A
100
AcDbEntity
  8
Title_Block
  6
ByLayer
 62
  256
370
   -1
100
AcDbLine
 10
57.375
 20
4.5
 11
55.125
 21
4.5
  0
LINE
  5
17B
100
AcDbEntity
  8
Title_Block
  6
ByLayer
 62
  256
370
   -1
100
AcDbLine
 10
57.375
 20
1.125
 11
59.625
 21
1.125
  0
LINE
  5
17C
100
AcDbEntity
  8
Title_Block
  6
ByLayer
 62
  256
370
   -1
100
AcDbLine
 10
59.625
 20
4.5
 11
57.375
 21
4.5
  0
LINE
  5
17D
100
AcDbEntity
  8
Title_Block
  6
ByLayer
 62
  256
370
   -1
100
AcDbLine
 10
59.625
 20
1.125
 11
61.875
 21
1.125
  0
LINE
  5
17E
100
AcDbEntity
  8
Title_Block
  6
ByLayer
 62
  256
370
   -1
100
AcDbLine
 10
61.875
 20
4.5
 11
59.625
 21
4.5
  0
LINE
  5
17F
100
AcDbEntity
  8
Title_Block
  6
ByLayer
 62
  256
370
   -1
100
AcDbLine
 10
61.875
 20
1.125
 11
64.125
 21
1.125
  0
LINE
  5
180
100
AcDbEntity
  8
Title_Block
  6
ByLayer
 62
  256
370
   -1
100
AcDbLine
 10
64.125
 20
4.5
 11
61.875
 21
4.5
  0
LINE
  5
181
100
AcDbEntity
  8
Title_Block
  6
ByLayer
 62
  256
370
   -1
100
AcDbLine
 10
64.125
 20
1.125
 11
66.375
 21
1.125
  0
LINE
  5
182
100
AcDbEntity
  8
Title_Block
  6
ByLayer
 62
  256
370
   -1
100
AcDbLine
 10
66.375
 20
4.5
 11
64.125
 21
4.5
  0
LINE
  5
183
100
AcDbEntity
  8
Title_Block
  6
ByLayer
 62
  256
370
   -1
100
AcDbLine
 10
66.375
 20
1.125
 11
68.625
 21
1.125
  0
LINE
  5
184
100
AcDbEntity
  8
Title_Block
  6
ByLayer
 62
  256
370
   -1
100
AcDbLine
 10
68.625
 20
4.5
 11
66.375
 21
4.5
  0
LINE
  5
185
100
AcDbEntity
  8
Title_Block
  6
ByLayer
 62
  256
370
   -1
100
AcDbLine
 10
68.625
 20
1.125
 11
70.875
 21
1.125
  0
LINE
  5
186
100
AcDbEntity
  8
Title_Block
  6
ByLayer
 62
  256
370
   -1
100
AcDbLine
 10
70.875
 20
4.5
 11
68.625
 21
4.5
  0
LINE
  5
187
100
AcDbEntity
  8
Title_Block
  6
ByLayer
 62
  256
370
   -1
100
AcDbLine
 10
70.875
 20
1.125
 11
73.125
 21
1.125
  0
LINE
  5
188
100
AcDbEntity
  8
Title_Block
  6
ByLayer
 62
  256
370
   -1
100
AcDbLine
 10
73.125
 20
4.5
 11
70.875
 21
4.5
  0
LINE
  5
189
100
AcDbEntity
  8
Title_Block
  6
ByLayer
 62
  256
370
   -1
100
AcDbLine
 10
73.125
 20
1.125
 11
75.375
 21
1.125
  0
LINE
  5
18A
100
AcDbEntity
  8
Title_Block
  6
ByLayer
 62
  256
370
   -1
100
AcDbLine
 10
75.375
 20
4.5
 11
73.125
 21
4.5
  0
LINE
  5
18B
100
AcDbEntity
  8
Title_Block
  6
ByLayer
 62
  256
370
   -1
100
AcDbLine
 10
75.375
 20
1.125
 11
77.625
 21
1.125
  0
LINE
  5
18C
100
AcDbEntity
  8
Title_Block
  6
ByLayer
 62
  256
370
   -1
100
AcDbLine
 10
77.625
 20
1.125
 11
77.625
 21
4.5
  0
LINE
  5
18D
100
AcDbEntity
  8
Title_Block
  6
ByLayer
 62
  256
370
   -1
100
AcDbLine
 10
77.625
 20
4.5
 11
75.375
 21
4.5
  0
LINE
  5
18E
100
AcDbEntity
  8
Title_Block
  6
ByLayer
 62
  256
370
   -1
100
AcDbLine
 10
77.625
 20
1.125
 11
79.875
 21
1.125
  0
LINE
  5
18F
100
AcDbEntity
  8
Title_Block
  6
ByLayer
 62
  256
370
   -1
100
AcDbLine
 10
79.875
 20
4.5
 11
77.625
 21
4.5
  0
LINE
  5
190
100
AcDbEntity
  8
Title_Block
  6
ByLayer
 62
  256
370
   -1
100
AcDbLine
 10
77.625
 20
4.5
 11
77.625
 21
1.125
  0
LINE
  5
191
100
AcDbEntity
  8
Title_Block
  6
ByLayer
 62
  256
370
   -1
100
AcDbLine
 10
79.875
 20
1.125
 11
82.125
 21
1.125
  0
LINE
  5
192
100
AcDbEntity
  8
Title_Block
  6
ByLayer
 62
  256
370
   -1
100
AcDbLine
 10
82.125
 20
1.125
 11
82.125
 21
4.5
  0
LINE
  5
193
100
AcDbEntity
  8
Title_Block
  6
ByLayer
 62
  256
370
   -1
100
AcDbLine
 10
82.125
 20
4.5
 11
79.875
 21
4.5
  0
LINE
  5
194
100
AcDbEntity
  8
Title_Block
  6
ByLayer
 62
  256
370
   -1
100
AcDbLine
 10
82.125
 20
1.125
 11
84.375
 21
1.125
  0
LINE
  5
195
100
AcDbEntity
  8
Title_Block
  6
ByLayer
 62
  256
370
   -1
100
AcDbLine
 10
84.375
 20
4.5
 11
82.125
 21
4.5
  0
LINE
  5
196
100
AcDbEntity
  8
Title_Block
  6
ByLayer
 62
  256
370
   -1
100
AcDbLine
 10
82.125
 20
4.5
 11
82.125
 21
1.125
  0
LINE
  5
197
100
AcDbEntity
  8
Title_Block
  6
ByLayer
 62
  256
370
   -1
100
AcDbLine
 10
84.375
 20
1.125
 11
86.625
 21
1.125
  0
LINE
  5
198
100
AcDbEntity
  8
Title_Block
  6
ByLayer
 62
  256
370
   -1
100
AcDbLine
 10
86.625
 20
1.125
 11
86.625
 21
4.5
  0
LINE
  5
199
100
AcDbEntity
  8
Title_Block
  6
ByLayer
 62
  256
370
   -1
100
AcDbLine
 10
86.625
 20
4.5
 11
84.375
 21
4.5
  0
LINE
  5
19A
100
AcDbEntity
  8
Title_Block
  6
ByLayer
 62
  256
370
   -1
100
AcDbLine
 10
86.625
 20
1.125
 11
88.875
 21
1.125
  0
LINE
  5
19B
100
AcDbEntity
  8
Title_Block
  6
ByLayer
 62
  256
370
   -1
100
AcDbLine
 10
88.875
 20
4.5
 11
86.625
 21
4.5
  0
LINE
  5
19C
100
AcDbEntity
  8
Title_Block
  6
ByLayer
 62
  256
370
   -1
100
AcDbLine
 10
86.625
 20
4.5
 11
86.625
 21
1.125
  0
LINE
  5
19D
100
AcDbEntity
  8
Title_Block
  6
ByLayer
 62
  256
370
   -1
100
AcDbLine
 10
88.875
 20
1.125
 11
91.125
 21
1.125
  0
LINE
  5
19E
100
AcDbEntity
  8
Title_Block
  6
ByLayer
 62
  256
370
   -1
100
AcDbLine
 10
91.125
 20
1.125
 11
91.125
 21
4.5
  0
LINE
  5
19F
100
AcDbEntity
  8
Title_Block
  6
ByLayer
 62
  256
370
   -1
100
AcDbLine
 10
91.125
 20
4.5
 11
88.875
 21
4.5
  0
MTEXT
  5
1A0
100
AcDbEntity
  8
Title_Block
  6
ByLayer
 62
  256
370
   -1
100
AcDbMText
 10
1.349999999999999
 20
1.169999999999999
 30
0
 40
0.5625
 41
4.1450895625
 71
    7
 72
    1
  1
Drawn By:
  7
romans
210
0
220
0
230
1
 50
0
 73
    2
 44
1
  0
MTEXT
  5
1A1
100
AcDbEntity
  8
Title_Block
  6
ByLayer
 62
  256
370
   -1
100
AcDbMText
 10
12.6
 20
1.349999999999999
 30
0
 40
0.5625
 41
2.0357145625
 71
    7
 72
    1
  1
Date:
  7
romans
210
0
220
0
230
1
 50
0
 73
    2
 44
1
  0
MTEXT
  5
1A2
100
AcDbEntity
  8
Title_Block
  6
ByLayer
 62
  256
370
   -1
100
AcDbMText
 10
86.85000000000001
 20
1.349999999999999
 30
0
 40
0.5625
 41
2.3303576875
 71
    7
 72
    1
  1
Scale:
  7
romans
210
0
220
0
230
1
 50
0
 73
    2
 44
1
  0
MTEXT
  5
1A3
100
AcDbEntity
  8
Title_Block
  6
ByLayer
 62
  256
370
   -1
100
AcDbMText
 10
82.35000000000001
 20
1.349999999999999
 30
0
 40
0.5625
 41
2.5178576875
 71
    7
 72
    1
  1
Sheet:
  7
romans
210
0
220
0
230
1
 50
0
 73
    2
 44
1
  0
MTEXT
  5
1A4
100
AcDbEntity
  8
Title_Block
  6
ByLayer
 62
  256
370
   -1
100
AcDbMText
 10
77.85000000000002
 20
1.349999999999999
 30
0
 40
0.5625
 41
1.6339289375
 71
    7
 72
    1
  1
Rev:
  7
romans
210
0
220
0
230
1
 50
0
 73
    2
 44
1
  0
MTEXT
  5
1A5
100
AcDbEntity
  8
Title_Block
  6
ByLayer
 62
  256
370
   -1
100
AcDbMText
 10
26.1
 20
1.349999999999999
 30
0
 40
0.5625
 41
1.95535725
 71
    7
 72
    1
  1
Title:
  7
romans
210
0
220
0
230
1
 50
0
 73
    2
 44
1
  0
MTEXT
  5
1A6
100
AcDbEntity
  8
Title_Block
  6
ByLayer
 62
  256
370
   -1
100
AcDbMText
 10
1.93802077338099
 20
2.432196926095266
 30
0
 40
1.125
 41
8.41071625
 71
    7
 72
    1
  1
wrcsubers
  7
romans
210
0
220
0
230
1
 50
0
 73
    2
 44
1
  0
MTEXT
  5
1A7
100
AcDbEntity
  8
Title_Block
  6
ByLayer
 62
  256
370
   -1
100
AcDbMText
 10
13.05387863998285
 20
2.295339539256518
 30
0
 40
1.125
 41
10.3392875
 71
    7
 72
    1
  1
02/12/2021
  7
romans
210
0
220
0
230
1
 50
0
 73
    2
 44
1
  0
MTEXT
  5
1A8
100
AcDbEntity
  8
Title_Block
  6
ByLayer
 62
  256
370
   -1
100
AcDbMText
 10
27.36993758333333
 20
3.112499999999999
 30
0
 40
1.125
 41
30.12054200000001
 71
    4
 72
    1
  1
Kid's Bed - Headboard/Footboard
  7
romans
210
0
220
0
230
1
 50
0
 73
    2
 44
1
  0
ENDBLK
  5
AC
330
AA
100
AcDbEntity
  8
0
100
AcDbBlockEnd
  0
ENDSEC
  0
SECTION
  2
ENTITIES
  0
INSERT
  5
1A9
100
AcDbEntity
  8
0
  6
ByLayer
 62
  256
370
   -1
100
AcDbBlockReference
  2
BorderTemplate - Letter_Landscape-4
 10
0
 20
0
 30
0
 41
1
 42
1
 43
0
 50
0
 70
    1
 71
    1
 44
0
 45
0
  0
LINE
  5
1AA
100
AcDbEntity
  8
Drawing_Border
  6
CONTINUOUS
 62
  256
370
   -1
100
AcDbLine
 10
68.33616210143492
 20
4.5
 11
68.33616210143492
 21
21.84701416425532
  0
LINE
  5
1AB
100
AcDbEntity
  8
Drawing_Border
  6
CONTINUOUS
 62
  256
370
   -1
100
AcDbLine
 10
68.33616210143492
 20
21.84701416425532
 11
91.125
 21
21.84701416425532
  0
MTEXT
  5
1AC
100
AcDbEntity
  8
Dimensions
  6
CONTINUOUS
 62
  256
370
   -1
100
AcDbMText
 10
73.51803682309502
 20
20.96147451804853
 30
0
 40
0.9
 41
12.7500013
 71
    4
 72
    1
  1
Corner Post Detail
  7
romans
210
0
220
0
230
1
 50
0
 73
    2
 44
1
  0
LWPOLYLINE
  5
1AD
100
AcDbEntity
  8
Drawing
  6
CONTINUOUS
 62
  256
370
   -1
100
AcDbPolyline
 90
    5
 70
    1
 43
0
 10
77.96723068603431
 20
8.668624397933939
 10
81.46723068603431
 20
8.668624397933939
 10
81.46723068603431
 20
11.16862439793394
 10
80.46723068603431
 20
12.16862439793394
 10
77.96723068603431
 20
12.16862439793394
  0
LINE
  5
1AE
100
AcDbEntity
  8
Drawing
  6
ByLayer
 62
    7
370
   -1
100
AcDbLine
 10
9.132175721161779
 20
24.71232952772854
 11
8.632175721161779
 21
25.21232952772854
  0
LINE
  5
1AF
100
AcDbEntity
  8
Drawing
  6
ByLayer
 62
    7
370
   -1
100
AcDbLine
 10
9.132175721161779
 20
24.71232952772854
 11
11.63217572116178
 21
24.71232952772854
  0
LINE
  5
1B0
100
AcDbEntity
  8
Drawing
  6
ByLayer
 62
    7
370
   -1
100
AcDbLine
 10
11.63217572116178
 20
24.71232952772854
 11
12.13217572116178
 21
25.21232952772854
  0
LINE
  5
1B1
100
AcDbEntity
  8
Drawing
  6
ByLayer
 62
    7
370
   -1
100
AcDbLine
 10
12.13217572116178
 20
25.21232952772854
 11
12.13217572116178
 21
56.21232952772853
  0
LINE
  5
1B2
100
AcDbEntity
  8
Drawing
  6
ByLayer
 62
    7
370
   -1
100
AcDbLine
 10
12.13217572116178
 20
56.21232952772853
 11
11.63217572116178
 21
56.71232952772853
  0
LINE
  5
1B3
100
AcDbEntity
  8
Drawing
  6
ByLayer
 62
    7
370
   -1
100
AcDbLine
 10
11.63217572116178
 20
56.71232952772853
 11
9.132175721161779
 21
56.71232952772853
  0
LINE
  5
1B4
100
AcDbEntity
  8
Drawing
  6
ByLayer
 62
    7
370
   -1
100
AcDbLine
 10
9.132175721161779
 20
56.71232952772853
 11
8.632175721161779
 21
56.21232952772853
  0
LINE
  5
1B5
100
AcDbEntity
  8
Drawing
  6
ByLayer
 62
    7
370
   -1
100
AcDbLine
 10
8.632175721161779
 20
56.21232952772853
 11
8.632175721161779
 21
25.21232952772854
  0
LINE
  5
1B6
100
AcDbEntity
  8
Drawing
  6
ByLayer
 62
  256
370
   -1
100
AcDbLine
 10
12.13217572116178
 20
51.21232952772854
 11
31.13217572116178
 21
51.21232952772854
  0
LINE
  5
1B7
100
AcDbEntity
  8
Drawing
  6
ByLayer
 62
  256
370
   -1
100
AcDbLine
 10
12.13217572116178
 20
54.71232952772853
 11
31.13217572116178
 21
54.71232952772853
  0
LINE
  5
1B8
100
AcDbEntity
  8
Drawing
  6
DOTTINY
 62
  256
370
   -1
100
AcDbLine
 10
18.71547572116178
 20
54.71232952772853
 11
18.71547572116178
 21
51.21232952772854
  0
LINE
  5
1B9
100
AcDbEntity
  8
Drawing
  6
DOTTINY
 62
  256
370
   -1
100
AcDbLine
 10
17.21547572116178
 20
54.71232952772853
 11
17.21547572116178
 21
51.21232952772854
  0
LINE
  5
1BA
100
AcDbEntity
  8
Drawing
  6
DOTTINY
 62
  256
370
   -1
100
AcDbLine
 10
23.79887572116178
 20
54.71232952772853
 11
23.79887572116178
 21
51.21232952772854
  0
LINE
  5
1BB
100
AcDbEntity
  8
Drawing
  6
DOTTINY
 62
  256
370
   -1
100
AcDbLine
 10
25.29887572116178
 20
54.71232952772853
 11
25.29887572116178
 21
51.21232952772854
  0
LINE
  5
1BC
100
AcDbEntity
  8
Drawing
  6
DOTTINY
 62
  256
370
   -1
100
AcDbLine
 10
30.38217572116178
 20
54.71232952772853
 11
30.38217572116178
 21
51.21232952772854
  0
LINE
  5
1BD
100
AcDbEntity
  8
Drawing
  6
ByLayer
 62
  256
370
   -1
100
AcDbLine
 10
53.13217572116177
 20
24.71232952772854
 11
53.63217572116177
 21
25.21232952772854
  0
LINE
  5
1BE
100
AcDbEntity
  8
Drawing
  6
ByLayer
 62
  256
370
   -1
100
AcDbLine
 10
53.13217572116177
 20
24.71232952772854
 11
50.63217572116178
 21
24.71232952772854
  0
LINE
  5
1BF
100
AcDbEntity
  8
Drawing
  6
ByLayer
 62
  256
370
   -1
100
AcDbLine
 10
50.63217572116178
 20
24.71232952772854
 11
50.13217572116178
 21
25.21232952772854
  0
LINE
  5
1C0
100
AcDbEntity
  8
Drawing
  6
ByLayer
 62
  256
370
   -1
100
AcDbLine
 10
50.13217572116178
 20
25.21232952772854
 11
50.13217572116178
 21
56.21232952772853
  0
LINE
  5
1C1
100
AcDbEntity
  8
Drawing
  6
ByLayer
 62
  256
370
   -1
100
AcDbLine
 10
50.13217572116178
 20
56.21232952772853
 11
50.63217572116178
 21
56.71232952772853
  0
LINE
  5
1C2
100
AcDbEntity
  8
Drawing
  6
ByLayer
 62
  256
370
   -1
100
AcDbLine
 10
50.63217572116178
 20
56.71232952772853
 11
53.13217572116177
 21
56.71232952772853
  0
LINE
  5
1C3
100
AcDbEntity
  8
Drawing
  6
ByLayer
 62
  256
370
   -1
100
AcDbLine
 10
53.13217572116177
 20
56.71232952772853
 11
53.63217572116177
 21
56.21232952772853
  0
LINE
  5
1C4
100
AcDbEntity
  8
Drawing
  6
ByLayer
 62
  256
370
   -1
100
AcDbLine
 10
53.63217572116177
 20
56.21232952772853
 11
53.63217572116177
 21
25.21232952772854
  0
LINE
  5
1C5
100
AcDbEntity
  8
Drawing
  6
ByLayer
 62
  256
370
   -1
100
AcDbLine
 10
50.13217572116178
 20
51.21232952772854
 11
31.13217572116178
 21
51.21232952772854
  0
LINE
  5
1C6
100
AcDbEntity
  8
Drawing
  6
ByLayer
 62
  256
370
   -1
100
AcDbLine
 10
50.13217572116178
 20
54.71232952772853
 11
31.13217572116178
 21
54.71232952772853
  0
LINE
  5
1C7
100
AcDbEntity
  8
Drawing
  6
DOTTINY
 62
  256
370
   -1
100
AcDbLine
 10
43.54887572116178
 20
54.71232952772853
 11
43.54887572116178
 21
51.21232952772854
  0
LINE
  5
1C8
100
AcDbEntity
  8
Drawing
  6
DOTTINY
 62
  256
370
   -1
100
AcDbLine
 10
45.04887572116178
 20
54.71232952772853
 11
45.04887572116178
 21
51.21232952772854
  0
LINE
  5
1C9
100
AcDbEntity
  8
Drawing
  6
DOTTINY
 62
  256
370
   -1
100
AcDbLine
 10
38.46547572116179
 20
54.71232952772853
 11
38.46547572116179
 21
51.21232952772854
  0
LINE
  5
1CA
100
AcDbEntity
  8
Drawing
  6
DOTTINY
 62
  256
370
   -1
100
AcDbLine
 10
36.96547572116179
 20
54.71232952772853
 11
36.96547572116179
 21
51.21232952772854
  0
LINE
  5
1CB
100
AcDbEntity
  8
Drawing
  6
DOTTINY
 62
  256
370
   -1
100
AcDbLine
 10
31.88217572116178
 20
54.71232952772853
 11
31.88217572116178
 21
51.21232952772854
  0
LWPOLYLINE
  5
1CC
100
AcDbEntity
  8
Drawing
  6
DOTTINY
 62
  256
370
   -1
100
AcDbPolyline
 90
    4
 70
    1
 43
0
 10
9.632175721161779
 20
36.71232952772854
 10
11.13217572116178
 20
36.71232952772854
 10
11.13217572116178
 20
42.21232952772854
 10
9.632175721161779
 20
42.21232952772854
  0
LINE
  5
1CD
100
AcDbEntity
  8
Drawing
  6
ByLayer
 62
  256
370
   -1
100
AcDbLine
 10
10.13217572116179
 20
53.16232952772853
 11
10.13217572116179
 21
52.76232952772853
  0
LINE
  5
1CE
100
AcDbEntity
  8
Drawing
  6
ByLayer
 62
  256
370
   -1
100
AcDbLine
 10
52.13217572116177
 20
53.16232952772853
 11
52.13217572116177
 21
52.76232952772853
  0
LEADER
  5
1CF
100
AcDbEntity
  8
Dimensions
  6
ByLayer
 62
  256
370
   -1
100
AcDbLeader
  3
Standard
 71
    1
 72
    0
 73
    3
 74
    0
 75
    0
 40
1
 41
10
 76
3
 76
3
 10
10.82287004841902
 20
27.71232952772854
 30
0
 10
14.82287004841902
 20
24.71232952772854
 30
0
 10
17.82287004841902
 20
24.71232952772854
 30
0
  0
LEADER
  5
1D0
100
AcDbEntity
  8
Dimensions
  6
ByLayer
 62
  256
370
   -1
100
AcDbLeader
  3
Standard
 71
    1
 72
    0
 73
    3
 74
    0
 75
    0
 40
1
 41
10
 76
3
 76
3
 10
19.52184695444679
 20
33.92249922752183
 30
0
 10
22.01401052027321
 20
30.02172147231526
 30
0
 10
23.42262470965336
 20
30.02172147231526
 30
0
  0
LEADER
  5
1D1
100
AcDbEntity
  8
Dimensions
  6
ByLayer
 62
  256
370
   -1
100
AcDbLeader
  3
Standard
 71
    1
 72
    0
 73
    3
 74
    0
 75
    0
 40
1
 41
10
 76
3
 76
3
 10
31.11467937477883
 20
40.19093796215025
 30
0
 10
32.93569213176962
 20
37.94969149200774
 30
0
 10
32.86565317957767
 20
28.42439399390206
 30
0
  0
DIMENSION
  5
1D2
100
AcDbEntity
  8
Dimensions
  6
ByLayer
 62
  256
370
   -1
100
AcDbDimension
  2
*D4
 10
12.13217572116178
 20
56.21232952772853
 30
0
 11
14.67382572116178
 21
57.77482952772853
 31
0
 70
   32
 71
    5
  3
Standard
 53
0
210
0
220
0
230
1
100
AcDbAlignedDimension
 13
17.21547572116178
 23
51.21232952772854
 33
0
 14
12.13217572116178
 24
54.71232952772853
 34
0
100
AcDbRotatedDimension
  0
DIMENSION
  5
1D3
100
AcDbEntity
  8
Dimensions
  6
ByLayer
 62
  256
370
   -1
100
AcDbDimension
  2
*D5
 10
23.78471317542391
 20
60.11589974319006
 30
0
 11
17.96552572116178
 21
61.67839974319006
 31
0
 70
   32
 71
    5
  3
Standard
 53
0
210
0
220
0
230
1
100
AcDbAlignedDimension
 13
12.13217572116178
 23
54.71232952772853
 33
0
 14
23.79887572116178
 24
54.71232952772853
 34
0
100
AcDbRotatedDimension
  0
DIMENSION
  5
1D4
100
AcDbEntity
  8
Dimensions
  6
ByLayer
 62
  256
370
   -1
100
AcDbDimension
  2
*D6
 10
30.36034263670747
 20
64.40435373967931
 30
0
 11
21.25717572116178
 21
65.96685373967931
 31
0
 70
   32
 71
    5
  3
Standard
 53
0
210
0
220
0
230
1
100
AcDbAlignedDimension
 13
12.13217572116178
 23
54.71232952772853
 33
0
 14
30.38217572116178
 24
54.71232952772853
 34
0
100
AcDbRotatedDimension
  0
LINE
  5
1D5
100
AcDbEntity
  8
Drawing
  6
DOTTINY
 62
  256
370
   -1
100
AcDbLine
 10
11.13217572116178
 20
36.71232952772854
 11
12.63217572116178
 21
36.71232952772854
  0
LINE
  5
1D6
100
AcDbEntity
  8
Drawing
  6
DOTTINY
 62
  256
370
   -1
100
AcDbLine
 10
12.63217572116178
 20
36.71232952772854
 11
12.63217572116178
 21
38.21232952772854
  0
LINE
  5
1D7
100
AcDbEntity
  8
Drawing
  6
DOTTINY
 62
  256
370
   -1
100
AcDbLine
 10
12.63217572116178
 20
38.21232952772854
 11
11.13217572116178
 21
38.21232952772854
  0
CIRCLE
  5
1D8
100
AcDbEntity
  8
Drawing
  6
DOTTINY
 62
  256
370
   -1
100
AcDbCircle
 10
10.38217572116178
 20
38.21232952772854
 40
0.25
  0
CIRCLE
  5
1D9
100
AcDbEntity
  8
Drawing
  6
DOTTINY
 62
  256
370
   -1
100
AcDbCircle
 10
10.38217572116178
 20
40.71232952772854
 40
0.25
  0
LINE
  5
1DA
100
AcDbEntity
  8
Drawing
  6
ByLayer
 62
  256
370
   -1
100
AcDbLine
 10
12.13217572116178
 20
33.21232952772854
 11
31.13217572116178
 21
33.21232952772854
  0
LINE
  5
1DB
100
AcDbEntity
  8
Drawing
  6
ByLayer
 62
  256
370
   -1
100
AcDbLine
 10
50.13217572116178
 20
33.21232952772854
 11
31.13217572116178
 21
33.21232952772854
  0
LINE
  5
1DC
100
AcDbEntity
  8
Drawing
  6
ByLayer
 62
  256
370
   -1
100
AcDbLine
 10
12.13217572116178
 20
38.71232952772854
 11
31.13217572116178
 21
38.71232952772854
  0
LINE
  5
1DD
100
AcDbEntity
  8
Drawing
  6
ByLayer
 62
  256
370
   -1
100
AcDbLine
 10
50.13217572116178
 20
38.71232952772854
 11
31.13217572116178
 21
38.71232952772854
  0
LINE
  5
1DE
100
AcDbEntity
  8
Drawing
  6
ByLayer
 62
  256
370
   -1
100
AcDbLine
 10
10.13217572116178
 20
34.91232952772854
 11
10.13217572116178
 21
34.51232952772854
  0
LEADER
  5
1DF
100
AcDbEntity
  8
Dimensions
  6
ByLayer
 62
  256
370
   -1
100
AcDbLeader
  3
Standard
 71
    1
 72
    0
 73
    3
 74
    0
 75
    0
 40
1
 41
10
 76
0
 76
0
  0
LINE
  5
1E0
100
AcDbEntity
  8
Drawing
  6
ByLayer
 62
  256
370
   -1
100
AcDbLine
 10
17.21550905449512
 20
51.21232952772854
 11
17.21550905449512
 21
38.71232952772854
  0
LINE
  5
1E1
100
AcDbEntity
  8
Drawing
  6
ByLayer
 62
  256
370
   -1
100
AcDbLine
 10
18.71550905449512
 20
51.21232952772854
 11
18.71550905449512
 21
38.71232952772854
  0
LINE
  5
1E2
100
AcDbEntity
  8
Drawing
  6
ByLayer
 62
  256
370
   -1
100
AcDbLine
 10
23.79884238782845
 20
51.21232952772854
 11
23.79884238782846
 21
38.71232952772854
  0
LINE
  5
1E3
100
AcDbEntity
  8
Drawing
  6
ByLayer
 62
  256
370
   -1
100
AcDbLine
 10
25.29884238782845
 20
51.21232952772854
 11
25.29884238782845
 21
38.71232952772854
  0
LINE
  5
1E4
100
AcDbEntity
  8
Drawing
  6
ByLayer
 62
  256
370
   -1
100
AcDbLine
 10
31.88217572116178
 20
51.21232952772854
 11
31.88217572116178
 21
38.71232952772854
  0
LINE
  5
1E5
100
AcDbEntity
  8
Drawing
  6
ByLayer
 62
  256
370
   -1
100
AcDbLine
 10
36.96550905449511
 20
51.21232952772854
 11
36.96550905449509
 21
38.71232952772854
  0
LINE
  5
1E6
100
AcDbEntity
  8
Drawing
  6
ByLayer
 62
  256
370
   -1
100
AcDbLine
 10
38.46550905449511
 20
51.21232952772854
 11
38.46550905449509
 21
38.71232952772854
  0
LINE
  5
1E7
100
AcDbEntity
  8
Drawing
  6
ByLayer
 62
  256
370
   -1
100
AcDbLine
 10
43.54884238782845
 20
51.21232952772854
 11
43.54884238782845
 21
38.71232952772854
  0
LINE
  5
1E8
100
AcDbEntity
  8
Drawing
  6
ByLayer
 62
  256
370
   -1
100
AcDbLine
 10
45.04884238782845
 20
51.21232952772854
 11
45.04884238782845
 21
38.71232952772854
  0
LINE
  5
1E9
100
AcDbEntity
  8
Drawing
  6
DOTTINY
 62
  256
370
   -1
100
AcDbLine
 10
17.21550905449512
 20
38.71232952772854
 11
17.21550905449512
 21
33.21232952772854
  0
LINE
  5
1EA
100
AcDbEntity
  8
Drawing
  6
DOTTINY
 62
  256
370
   -1
100
AcDbLine
 10
18.71550905449512
 20
38.71232952772854
 11
18.71550905449512
 21
33.21232952772854
  0
LINE
  5
1EB
100
AcDbEntity
  8
Drawing
  6
DOTTINY
 62
  256
370
   -1
100
AcDbLine
 10
23.79884238782846
 20
38.71232952772854
 11
23.79884238782846
 21
33.21232952772854
  0
LINE
  5
1EC
100
AcDbEntity
  8
Drawing
  6
DOTTINY
 62
  256
370
   -1
100
AcDbLine
 10
25.29884238782845
 20
38.71232952772854
 11
25.29884238782845
 21
33.21232952772854
  0
LINE
  5
1ED
100
AcDbEntity
  8
Drawing
  6
DOTTINY
 62
  256
370
   -1
100
AcDbLine
 10
30.38217572116178
 20
38.71232952772854
 11
30.38217572116178
 21
33.21232952772854
  0
LINE
  5
1EE
100
AcDbEntity
  8
Drawing
  6
DOTTINY
 62
  256
370
   -1
100
AcDbLine
 10
31.88217572116178
 20
38.71232952772854
 11
31.88217572116178
 21
33.21232952772854
  0
LINE
  5
1EF
100
AcDbEntity
  8
Drawing
  6
DOTTINY
 62
  256
370
   -1
100
AcDbLine
 10
36.96550905449509
 20
38.71232952772854
 11
36.96550905449509
 21
33.21232952772854
  0
LINE
  5
1F0
100
AcDbEntity
  8
Drawing
  6
DOTTINY
 62
  256
370
   -1
100
AcDbLine
 10
38.46550905449509
 20
38.71232952772854
 11
38.46550905449509
 21
33.21232952772854
  0
LINE
  5
1F1
100
AcDbEntity
  8
Drawing
  6
DOTTINY
 62
  256
370
   -1
100
AcDbLine
 10
43.54884238782845
 20
38.71232952772854
 11
43.54884238782845
 21
33.21232952772854
  0
LINE
  5
1F2
100
AcDbEntity
  8
Drawing
  6
DOTTINY
 62
  256
370
   -1
100
AcDbLine
 10
45.04884238782845
 20
38.71232952772854
 11
45.04884238782845
 21
33.21232952772854
  0
LWPOLYLINE
  5
1F3
100
AcDbEntity
  8
Drawing
  6
DOTTINY
 62
  256
370
   -1
100
AcDbPolyline
 90
    4
 70
    1
 43
0
 10
52.63217572116177
 20
36.71232952772854
 10
51.13217572116178
 20
36.71232952772854
 10
51.13217572116178
 20
42.21232952772854
 10
52.63217572116177
 20
42.21232952772854
  0
LINE
  5
1F4
100
AcDbEntity
  8
Drawing
  6
DOTTINY
 62
  256
370
   -1
100
AcDbLine
 10
51.13217572116178
 20
36.71232952772854
 11
49.63217572116178
 21
36.71232952772854
  0
LINE
  5
1F5
100
AcDbEntity
  8
Drawing
  6
DOTTINY
 62
  256
370
   -1
100
AcDbLine
 10
49.63217572116178
 20
36.71232952772854
 11
49.63217572116178
 21
38.21232952772854
  0
LINE
  5
1F6
100
AcDbEntity
  8
Drawing
  6
DOTTINY
 62
  256
370
   -1
100
AcDbLine
 10
49.63217572116178
 20
38.21232952772854
 11
51.13217572116178
 21
38.21232952772854
  0
CIRCLE
  5
1F7
100
AcDbEntity
  8
Drawing
  6
DOTTINY
 62
  256
370
   -1
100
AcDbCircle
 10
51.88217572116177
 20
38.21232952772854
 40
0.25
  0
CIRCLE
  5
1F8
100
AcDbEntity
  8
Drawing
  6
DOTTINY
 62
  256
370
   -1
100
AcDbCircle
 10
51.88217572116177
 20
40.71232952772854
 40
0.25
  0
LINE
  5
1F9
100
AcDbEntity
  8
Drawing
  6
ByLayer
 62
  256
370
   -1
100
AcDbLine
 10
52.13217572116177
 20
34.91232952772854
 11
52.13217572116177
 21
34.51232952772854
  0
DIMENSION
  5
1FA
100
AcDbEntity
  8
Dimensions
  6
DOTTINY
 62
  256
370
   -1
100
AcDbDimension
  2
*D8
 10
59.06774587062567
 20
24.71232952772854
 30
0
 11
57.50524587062567
 21
29.71232952772854
 31
0
 70
   32
 71
    5
 72
    0
  3
Standard
 53
0
210
0
220
0
230
1
100
AcDbAlignedDimension
 13
52.13217572116177
 23
34.71232952772854
 33
0
 14
53.13217572116177
 24
24.71232952772854
 34
0
 50
90
100
AcDbRotatedDimension
  0
DIMENSION
  5
1FB
100
AcDbEntity
  8
Dimensions
  6
DOTTINY
 62
  256
370
   -1
100
AcDbDimension
  2
*D9
 10
42.99709007478972
 20
33.21232952772854
 30
0
 11
41.43459007478972
 21
28.96232952772854
 31
0
 70
   32
 71
    5
 72
    0
  3
Standard
 53
0
210
0
220
0
230
1
100
AcDbAlignedDimension
 13
50.63217572116178
 23
24.71232952772854
 33
0
 14
50.13217572116178
 24
33.21232952772854
 34
0
 50
90
100
AcDbRotatedDimension
  0
DIMENSION
  5
1FC
100
AcDbEntity
  8
Dimensions
  6
DOTTINY
 62
  256
370
   -1
100
AcDbDimension
  2
*D10
 10
42.97271006756438
 20
56.71232952772853
 30
0
 11
41.41021006756438
 21
55.71232952772853
 31
0
 70
   32
 71
    5
 72
    0
  3
Standard
 53
0
210
0
220
0
230
1
100
AcDbAlignedDimension
 13
50.13217572116178
 23
54.71232952772853
 33
0
 14
50.63217572116178
 24
56.71232952772853
 34
0
 50
90
100
AcDbRotatedDimension
  0
LINE
  5
1FD
100
AcDbEntity
  8
Drawing
  6
ByLayer
 62
  256
370
   -1
100
AcDbLine
 10
30.38217572116178
 20
51.21232952772854
 11
30.38217572116178
 21
38.71232952772854
  0
DIMENSION
  5
1FE
100
AcDbEntity
  8
Dimensions
  6
ByLayer
 62
  256
370
   -1
100
AcDbDimension
  2
*D11
 10
50.01254981258932
 20
20.95884965289671
 30
0
 11
31.13217572116178
 21
22.52134965289671
 31
0
 70
   32
 71
    5
  3
Standard
 53
0
210
0
220
0
230
1
100
AcDbAlignedDimension
 13
12.13217572116178
 23
25.88285669804649
 33
0
 14
50.13217572116178
 24
26.23401484914188
 34
0
100
AcDbRotatedDimension
  0
DIMENSION
  5
1FF
100
AcDbEntity
  8
Dimensions
  6
ByLayer
 62
  256
370
   -1
100
AcDbDimension
  2
*D12
 10
53.32601756354993
 20
16.52596712120616
 30
0
 11
31.13217572116177
 21
18.08846712120616
 31
0
 70
   32
 71
    5
  3
Standard
 53
0
210
0
220
0
230
1
100
AcDbAlignedDimension
 13
8.632175721161779
 23
25.41264047898719
 33
0
 14
53.63217572116177
 24
25.56579836800903
 34
0
100
AcDbRotatedDimension
  0
MTEXT
  5
200
100
AcDbEntity
  8
Dimensions
  6
CONTINUOUS
 62
  256
370
   -1
100
AcDbMText
 10
18.15157369049079
 20
24.80238297179049
 30
0
 40
1
 41
5.547618888888889
 71
    4
 72
    1
  1
4" x 4"
  7
romans
210
0
220
0
230
1
 50
0
 73
    2
 44
1
  0
MTEXT
  5
201
100
AcDbEntity
  8
Dimensions
  6
CONTINUOUS
 62
  256
370
   -1
100
AcDbMText
 10
30.33415301837225
 20
28.00708469053687
 30
0
 40
1
 41
5.452381111111111
 71
    4
 72
    1
  1
2" x 2"
  7
romans
210
0
220
0
230
1
 50
0
 73
    2
 44
1
  0
MTEXT
  5
202
100
AcDbEntity
  8
Dimensions
  6
CONTINUOUS
 62
  256
370
   -1
100
AcDbMText
 10
23.64198178216658
 20
30.05715123120551
 30
0
 40
1
 41
5.404762222222222
 71
    4
 72
    1
  1
2" x 6"
  7
romans
210
0
220
0
230
1
 50
0
 73
    2
 44
1
  0
DIMENSION
  5
203
100
AcDbEntity
  8
Dimensions
  6
DOTTINY
 62
  256
370
   -1
100
AcDbDimension
  2
*D13
 10
51.21265880848206
 20
47.06005843394763
 30
0
 11
31.13217572116178
 21
48.62255843394763
 31
0
 70
   32
 71
    5
 72
    0
  3
Standard
 53
0
210
0
220
0
230
1
100
AcDbAlignedDimension
 13
11.13217572116178
 23
42.21232952772854
 33
0
 14
51.13217572116178
 24
42.21232952772854
 34
0
100
AcDbRotatedDimension
  0
DIMENSION
  5
204
100
AcDbEntity
  8
Dimensions
  6
DOTTINY
 62
  256
370
   -1
100
AcDbDimension
  2
*D14
 10
42.97271006756438
 20
54.71232952772853
 30
0
 11
41.41021006756438
 21
43.96232952772854
 31
0
 70
   32
 71
    5
 72
    0
  3
Standard
 53
0
210
0
220
0
230
1
100
AcDbAlignedDimension
 13
50.13217572116178
 23
33.21232952772854
 33
0
 14
50.13217572116178
 24
54.71232952772853
 34
0
 50
90
100
AcDbRotatedDimension
  0
LINE
  5
205
100
AcDbEntity
  8
Drawing
  6
ByLayer
 62
  256
370
   -1
100
AcDbLine
 10
10.13217572116179
 20
52.96232952772853
 11
14.13217572116179
 21
52.96232952772853
  0
LINE
  5
206
100
AcDbEntity
  8
Drawing
  6
ByLayer
 62
  256
370
   -1
100
AcDbLine
 10
10.13217572116178
 20
34.71232952772854
 11
14.13217572116178
 21
34.71232952772854
  0
LINE
  5
207
100
AcDbEntity
  8
Drawing
  6
ByLayer
 62
  256
370
   -1
100
AcDbLine
 10
52.13217572116177
 20
52.96232952772853
 11
48.13217572116178
 21
52.96232952772853
  0
LINE
  5
208
100
AcDbEntity
  8
Drawing
  6
ByLayer
 62
  256
370
   -1
100
AcDbLine
 10
52.13217572116177
 20
34.71232952772854
 11
48.13217572116178
 21
34.71232952772854
  0
MTEXT
  5
209
100
AcDbEntity
  8
Dimensions
  6
CONTINUOUS
 62
  256
370
   -1
100
AcDbMText
 10
3.126090290391229
 20
59.36052259364759
 30
0
 40
1
 41
5.5
 71
    4
 72
    1
  1
2" x 4"
  7
romans
210
0
220
0
230
1
 50
0
 73
    2
 44
1
  0
LEADER
  5
20A
100
AcDbEntity
  8
Dimensions
  6
ByLayer
 62
  256
370
   -1
100
AcDbLeader
  3
Standard
 71
    1
 72
    0
 73
    3
 74
    0
 75
    0
 40
1
 41
10
 76
3
 76
3
 10
14.29350989910762
 20
53.80709829536092
 30
0
 10
5.969759523353758
 20
56.38088952996901
 30
0
 10
5.914998007723799
 20
58.24278106138765
 30
0
  0
LINE
  5
20B
100
AcDbEntity
  8
Drawing_Border
  6
ByLayer
 62
  256
370
   -1
100
AcDbLine
 10
68.33616210143492
 20
21.84701416425532
 11
68.33616210143492
 21
41.3786856680292
  0
LINE
  5
20C
100
AcDbEntity
  8
Drawing_Border
  6
ByLayer
 62
  256
370
   -1
100
AcDbLine
 10
68.33616210143492
 20
41.3786856680292
 11
91.125
 21
41.3786856680292
  0
LINE
  5
20D
100
AcDbEntity
  8
Drawing
  6
ByLayer
 62
  256
370
   -1
100
AcDbLine
 10
81.41337119821922
 20
34.39268458405949
 11
73.61933046072252
 21
34.39268458405949
  0
LINE
  5
20E
100
AcDbEntity
  8
Drawing
  6
ByLayer
 62
  256
370
   -1
100
AcDbLine
 10
73.61933046072252
 20
28.89268458405949
 11
81.41337119821922
 21
28.89268458405949
  0
MTEXT
  5
20F
100
AcDbEntity
  8
Dimensions
  6
CONTINUOUS
 62
  256
370
   -1
100
AcDbMText
 10
74.84040931974855
 20
40.26676310965463
 30
0
 40
0.9
 41
11.4642866
 71
    4
 72
    1
  1
Post Joint Detail
  7
romans
210
0
220
0
230
1
 50
0
 73
    2
 44
1
  0
LINE
  5
210
100
AcDbEntity
  8
Drawing
  6
ByLayer
 62
  256
370
   -1
100
AcDbLine
 10
83.41337119821922
 20
32.58018458405949
 11
83.41337119821922
 21
33.20518458405949
  0
LINE
  5
211
100
AcDbEntity
  8
Drawing
  6
ByLayer
 62
  256
370
   -1
100
AcDbLine
 10
83.41337119821922
 20
32.58018458405949
 11
84.91337119821922
 21
32.58018458405949
  0
LINE
  5
212
100
AcDbEntity
  8
Drawing
  6
ByLayer
 62
  256
370
   -1
100
AcDbLine
 10
81.41337119821922
 20
33.01768458405949
 11
83.41337119821922
 21
33.01768458405949
  0
LINE
  5
213
100
AcDbEntity
  8
Drawing
  6
ByLayer
 62
  256
370
   -1
100
AcDbLine
 10
81.41337119821922
 20
32.76768458405949
 11
83.41337119821922
 21
32.76768458405949
  0
LINE
  5
214
100
AcDbEntity
  8
Drawing
  6
ByLayer
 62
  256
370
   -1
100
AcDbLine
 10
81.41337119821922
 20
32.93955958405949
 11
78.91337119821922
 21
32.93955958405949
  0
LINE
  5
215
100
AcDbEntity
  8
Drawing
  6
ByLayer
 62
  256
370
   -1
100
AcDbLine
 10
81.41337119821922
 20
32.84580958405949
 11
78.91337119821922
 21
32.84580958405949
  0
LINE
  5
216
100
AcDbEntity
  8
Drawing
  6
ByLayer
 62
  256
370
   -1
100
AcDbLine
 10
78.91337119821922
 20
32.93955958405949
 11
78.91337119821922
 21
32.84580958405949
  0
LINE
  5
217
100
AcDbEntity
  8
Drawing
  6
ByLayer
 62
  256
370
   -1
100
AcDbLine
 10
83.41337119821922
 20
33.20518458405949
 11
84.91337119821922
 21
33.20518458405949
  0
LINE
  5
218
100
AcDbEntity
  8
Drawing
  6
ByLayer
 62
  256
370
   -1
100
AcDbLine
 10
81.41337119821922
 20
25.76170926517396
 11
81.41337119821922
 21
36.76170926517396
  0
LINE
  5
219
100
AcDbEntity
  8
Drawing
  6
ByLayer
 62
  256
370
   -1
100
AcDbLine
 10
84.91337119821922
 20
36.76170926517396
 11
84.91337119821922
 21
33.20518458405949
  0
LINE
  5
21A
100
AcDbEntity
  8
Drawing
  6
ByLayer
 62
  256
370
   -1
100
AcDbLine
 10
84.91337119821922
 20
33.20518458405949
 11
84.91337119821922
 21
32.58018458405949
  0
LINE
  5
21B
100
AcDbEntity
  8
Drawing
  6
ByLayer
 62
  256
370
   -1
100
AcDbLine
 10
84.91337119821922
 20
32.58018458405949
 11
84.91337119821922
 21
25.76170926517396
  0
LINE
  5
21C
100
AcDbEntity
  8
Drawing
  6
ByLayer
 62
  256
370
   -1
100
AcDbLine
 10
83.41337119821922
 20
30.08018458405949
 11
83.41337119821922
 21
30.70518458405949
  0
LINE
  5
21D
100
AcDbEntity
  8
Drawing
  6
ByLayer
 62
  256
370
   -1
100
AcDbLine
 10
83.41337119821922
 20
30.08018458405949
 11
84.91337119821922
 21
30.08018458405949
  0
LINE
  5
21E
100
AcDbEntity
  8
Drawing
  6
ByLayer
 62
  256
370
   -1
100
AcDbLine
 10
81.41337119821922
 20
30.51768458405949
 11
83.41337119821922
 21
30.51768458405949
  0
LINE
  5
21F
100
AcDbEntity
  8
Drawing
  6
ByLayer
 62
  256
370
   -1
100
AcDbLine
 10
81.41337119821922
 20
30.26768458405949
 11
83.41337119821922
 21
30.26768458405949
  0
LINE
  5
220
100
AcDbEntity
  8
Drawing
  6
ByLayer
 62
  256
370
   -1
100
AcDbLine
 10
81.41337119821922
 20
30.43955958405949
 11
78.91337119821922
 21
30.43955958405949
  0
LINE
  5
221
100
AcDbEntity
  8
Drawing
  6
ByLayer
 62
  256
370
   -1
100
AcDbLine
 10
81.41337119821922
 20
30.34580958405949
 11
78.91337119821922
 21
30.34580958405949
  0
LINE
  5
222
100
AcDbEntity
  8
Drawing
  6
ByLayer
 62
  256
370
   -1
100
AcDbLine
 10
78.91337119821922
 20
30.43955958405949
 11
78.91337119821922
 21
30.34580958405949
  0
LINE
  5
223
100
AcDbEntity
  8
Drawing
  6
ByLayer
 62
  256
370
   -1
100
AcDbLine
 10
83.41337119821922
 20
30.70518458405949
 11
84.91337119821922
 21
30.70518458405949
  0
LINE
  5
224
100
AcDbEntity
  8
Drawing
  6
ByLayer
 62
  256
370
   -1
100
AcDbLine
 10
84.91337119821922
 20
30.70518458405949
 11
84.91337119821922
 21
30.08018458405949
  0
LINE
  5
225
100
AcDbEntity
  8
Drawing
  6
ByLayer
 62
  256
370
   -1
100
AcDbLine
 10
73.61933046072252
 20
34.39268458405949
 11
73.61933046072252
 21
28.89268458405949
  0
LINE
  5
226
100
AcDbEntity
  8
Drawing
  6
ByLayer
 62
  256
370
   -1
100
AcDbLine
 10
81.41337119821922
 20
36.76170926517396
 11
84.91337119821922
 21
36.76170926517396
  0
LINE
  5
227
100
AcDbEntity
  8
Drawing
  6
ByLayer
 62
  256
370
   -1
100
AcDbLine
 10
81.41337119821922
 20
25.76170926517396
 11
84.91337119821922
 21
25.76170926517396
  0
LEADER
  5
228
100
AcDbEntity
  8
Dimensions
  6
ByLayer
 62
  256
370
   -1
100
AcDbLeader
  3
Standard
 71
    1
 72
    0
 73
    3
 74
    0
 75
    0
 40
1
 41
10
 76
2
 76
2
 10
79.52063027933904
 20
33.11194689218097
 30
0
 10
74.55277720711842
 20
36.71110575062652
 30
0
  0
LEADER
  5
229
100
AcDbEntity
  8
Dimensions
  6
ByLayer
 62
  256
370
   -1
100
AcDbLeader
  3
Standard
 71
    1
 72
    0
 73
    3
 74
    0
 75
    0
 40
1
 41
10
 76
3
 76
3
 10
82.43544203089708
 20
33.34006259447681
 30
0
 10
82.46078822004105
 20
38.5106851798493
 30
0
 10
83.44928959665639
 20
38.5106851798493
 30
0
  0
MTEXT
  5
22A
100
AcDbEntity
  8
Dimensions
  6
CONTINUOUS
 62
  256
370
   -1
100
AcDbMText
 10
70.18620234110402
 20
37.39199096607423
 30
0
 40
0.5
 41
9.172619777777779
 71
    4
 72
    1
  1
%%C3/32" x 2.5" Pre-drill
  7
romans
210
0
220
0
230
1
 50
0
 73
    2
 44
1
  0
MTEXT
  5
22B
100
AcDbEntity
  8
Dimensions
  6
CONTINUOUS
 62
  256
370
   -1
100
AcDbMText
 10
83.82949985283516
 20
38.52144183719051
 30
0
 40
0.5
 41
4.130952777777777
 71
    4
 72
    1
  1
%%C1/4" x 2" \PPre-drill
  7
romans
210
0
220
0
230
1
 50
0
 73
    2
 44
1
  0
MTEXT
  5
22C
100
AcDbEntity
  8
Dimensions
  6
CONTINUOUS
 62
  256
370
   -1
100
AcDbMText
 10
2.350708768168801
 20
6.024102728554499
 30
0
 40
0.9
 41
62.38929449999998
 71
    4
 72
    1
  1
Fasteners: SPAX 0.25" x 4.5" Powerlag Hex Drive Washer Head Lag Screw or Equivalent\P
  7
romans
210
0
220
0
230
1
 50
0
 73
    2
 44
1
  0
LINE
  5
22D
100
AcDbEntity
  8
Drawing
  6
ByLayer
 62
  256
370
   -1
100
AcDbLine
 10
10.13217572116178
 20
37.41232952772855
 11
10.13217572116178
 21
37.01232952772854
  0
LINE
  5
22E
100
AcDbEntity
  8
Drawing
  6
ByLayer
 62
  256
370
   -1
100
AcDbLine
 10
52.13217572116177
 20
37.41232952772855
 11
52.13217572116177
 21
37.01232952772854
  0
LINE
  5
22F
100
AcDbEntity
  8
Drawing
  6
ByLayer
 62
  256
370
   -1
100
AcDbLine
 10
10.13217572116178
 20
37.21232952772854
 11
14.13217572116178
 21
37.21232952772854
  0
LINE
  5
230
100
AcDbEntity
  8
Drawing
  6
ByLayer
 62
  256
370
   -1
100
AcDbLine
 10
52.13217572116177
 20
37.21232952772854
 11
48.13217572116178
 21
37.21232952772854
  0
DIMENSION
  5
231
100
AcDbEntity
  8
Dimensions
  6
ByLayer
 62
  256
370
   -1
100
AcDbDimension
  2
*D18
 10
59.05324777599476
 20
37.21232952772854
 30
0
 11
57.49074777599476
 21
45.08732952772854
 31
0
 70
   32
 71
    5
 72
    0
  3
Standard
 53
0
210
0
220
0
230
1
100
AcDbAlignedDimension
 13
52.13217572116177
 23
52.96232952772853
 33
0
 14
52.13217572116177
 24
37.21232952772854
 34
0
 50
90
100
AcDbRotatedDimension
  0
MTEXT
  5
232
100
AcDbEntity
  8
Dimensions
  6
CONTINUOUS
 62
  256
370
   -1
100
AcDbMText
 10
85.39844615760053
 20
29.9585049282823
 30
0
 40
0.5
 41
5.190477222222222
 71
    4
 72
    1
  1
%%C5/8" x 1.5" \PPre-drill\PForstner bit\Precommended
  7
romans
210
0
220
0
230
1
 50
0
 73
    2
 44
1
  0
LEADER
  5
233
100
AcDbEntity
  8
Dimensions
  6
ByLayer
 62
  256
370
   -1
100
AcDbLeader
  3
Standard
 71
    1
 72
    0
 73
    3
 74
    0
 75
    0
 40
1
 41
10
 76
2
 76
2
 10
85.47543865167916
 20
32.89195246136728
 30
0
 10
87.6027788606233
 20
31.96465031900701
 30
0
  0
LEADER
  5
234
100
AcDbEntity
  8
0
  6
ByLayer
 62
  256
370
   -1
100
AcDbLeader
  3
Standard
 71
    1
 72
    0
 73
    3
 74
    0
 75
    0
 40
1
 41
10
 76
0
 76
0
  0
MTEXT
  5
235
100
AcDbEntity
  8
Dimensions
  6
CONTINUOUS
 62
  256
370
   -1
100
AcDbMText
 10
12.45655856841931
 20
43.58665527645008
 30
0
 40
0.65
 41
4.580953216666667
 71
    4
 72
    1
  1
Side/Slat\P   Rail
  7
romans
210
0
220
0
230
1
 50
0
 73
    2
 44
1
  0
LEADER
  5
236
100
AcDbEntity
  8
Dimensions
  6
ByLayer
 62
  256
370
   -1
100
AcDbLeader
  3
Standard
 71
    1
 72
    0
 73
    3
 74
    0
 75
    0
 40
1
 41
10
 76
3
 76
3
 10
10.51416719041192
 20
39.3853168370479
 30
0
 10
14.55544317890901
 20
40.89223330733495
 30
0
 10
14.55544317890901
 20
42.26215737123227
 30
0
  0
LEADER
  5
237
100
AcDbEntity
  8
Dimensions
  6
ByLayer
 62
  256
370
   -1
100
AcDbLeader
  3
Standard
 71
    1
 72
    0
 73
    3
 74
    0
 75
    0
 40
1
 41
10
 76
4
 76
4
 10
9.587250654252735
 20
52.97252554970689
 30
0
 10
7.49509471845405
 20
52.97252554970689
 30
0
 10
5.489213254234692
 20
51.0097813212772
 30
0
 10
5.489213254234692
 20
8.009781321277202
 30
0
  0
LEADER
  5
238
100
AcDbEntity
  8
Dimensions
  6
ByLayer
 62
  256
370
   -1
100
AcDbLeader
  3
Standard
 71
    1
 72
    0
 73
    3
 74
    0
 75
    0
 40
1
 41
10
 76
3
 76
3
 10
8.975607787991114
 20
37.21443939419813
 30
0
 10
7.46741139738605
 20
37.21443939419813
 30
0
 10
5.493268154398933
 20
35.37517550321634
 30
0
  0
LEADER
  5
239
100
AcDbEntity
  8
Dimensions
  6
ByLayer
 62
  256
370
   -1
100
AcDbLeader
  3
Standard
 71
    1
 72
    0
 73
    3
 74
    0
 75
    0
 40
1
 41
10
 76
3
 76
3
 10
8.975644106505509
 20
34.71022862842559
 30
0
 10
7.480065620056397
 20
34.71022862842559
 30
0
 10
5.49063049746363
 20
32.47458365136216
 30
0
  0
DIMENSION
  5
23A
100
AcDbEntity
  8
Dimensions
  6
CONTINUOUS
 62
  256
370
   -1
100
AcDbDimension
  2
*D25
 10
59.01105370664075
 20
37.21232952772854
 30
0
 11
63.56125375268712
 21
31.59564068963609
 31
0
 70
   32
 71
    5
 72
    0
  3
Standard
 53
0
210
0
220
0
230
1
100
AcDbAlignedDimension
 13
52.13217572116177
 23
34.71232952772854
 33
0
 14
52.13217572116177
 24
37.21232952772854
 34
0
 50
90
100
AcDbRotatedDimension
  0
DIMENSION
  5
23B
100
AcDbEntity
  8
Dimensions
  6
ByLayer
 62
  256
370
   -1
100
AcDbDimension
  2
*D26
 10
59.0475979607443
 20
56.71232952772853
 30
0
 11
63.93122612610206
 21
49.94627041101723
 31
0
 70
   32
 71
    5
  3
Standard
 53
0
210
0
220
0
230
1
100
AcDbAlignedDimension
 13
51.75174917442497
 23
52.96232952772853
 33
0
 14
51.80994023171682
 24
56.71232952772853
 34
0
 50
90
100
AcDbRotatedDimension
  0
DIMENSION
  5
23C
100
AcDbEntity
  8
Dimensions
  6
DOTTINY
 62
  256
370
   -1
100
AcDbDimension
  2
*D27
 10
77.04826728213136
 20
8.668624397933939
 30
0
 11
72.50874214355773
 21
4.954013438379721
 31
0
 70
   32
 71
    5
 72
    0
  3
Standard
 53
0
210
0
220
0
230
1
100
AcDbAlignedDimension
 13
77.96723068603431
 23
12.16862439793394
 33
0
 14
77.96723068603431
 24
8.668624397933939
 34
0
 50
90
100
AcDbRotatedDimension
  0
DIMENSION
  5
23D
100
AcDbEntity
  8
Dimensions
  6
DOTTINY
 62
  256
370
   -1
100
AcDbDimension
  2
*D28
 10
80.69478573959694
 20
13.40497753914513
 30
0
 11
74.36318567664104
 21
17.74967381665461
 31
0
 70
   32
 71
    5
 72
    0
  3
Standard
 53
0
210
0
220
0
230
1
100
AcDbAlignedDimension
 13
77.96723068603431
 23
12.16862439793394
 33
0
 14
80.46723068603431
 24
12.16862439793394
 34
0
100
AcDbRotatedDimension
  0
DIMENSION
  5
23E
100
AcDbEntity
  8
Dimensions
  6
ByLayer
 62
  256
370
   -1
100
AcDbDimension
  2
*D29
 10
80.46723068603431
 20
12.16862439793394
 30
0
 11
0
 21
0
 31
0
 70
   34
 71
    5
 72
    0
  3
Standard
 53
0
210
0
220
0
230
1
100
AcDb2LineAngularDimension
 13
80.46723068603431
 23
12.16862439793394
 33
0
 14
81.46723068603431
 24
11.16862439793394
 34
0
 15
77.96723068603431
 25
12.16862439793394
 35
0
 16
86.23162428837428
 26
9.166249463526114
 36
0
  0
ENDSEC
  0
SECTION
  2
OBJECTS
  0
DICTIONARY
  5
C
330
0
100
AcDbDictionary
281
    1
  3
ACAD_GROUP
350
D
  0
DICTIONARY
  5
D
330
C
100
AcDbDictionary
281
    1
  0
PLOTSETTINGS
  5
23F
100
AcDbPlotSettings
  6
1x1
 40
0
 41
0
 42
0
 43
0
  0
ENDSEC
  0
EOF
